solid PVA Test Object v2 - Inner
facet normal 0.0 0.0 -1.0
  outer loop
    vertex 3.049286211513712 16.957478479906708 2.9999999999999747
    vertex 7.451210000160398 11.457478479906708 2.9999999999999747
    vertex 3.049286211513712 2.957478479906708 2.9999999999999747
  endloop
endfacet
facet normal 0.0 0.0 -1.0
  outer loop
    vertex 7.451210000160398 11.457478479906708 2.9999999999999747
    vertex 3.049286211513712 16.957478479906708 2.9999999999999747
    vertex 7.927965867954071 12.07879882346635 2.9999999999999747
  endloop
endfacet
facet normal 0.0 0.0 -1.0
  outer loop
    vertex 7.927965867954071 12.07879882346635 2.9999999999999747
    vertex 3.049286211513712 16.957478479906708 2.9999999999999747
    vertex 8.549286211513712 12.555554691260022 2.9999999999999747
  endloop
endfacet
facet normal 0.0 0.0 -1.0
  outer loop
    vertex 8.549286211513712 12.555554691260022 2.9999999999999747
    vertex 3.049286211513712 16.957478479906708 2.9999999999999747
    vertex 17.04928621151371 16.957478479906708 2.9999999999999747
  endloop
endfacet
facet normal 0.0 0.0 -1.0
  outer loop
    vertex 3.049286211513712 2.957478479906708 2.9999999999999747
    vertex 7.451210000160398 11.457478479906708 2.9999999999999747
    vertex 7.151508732646508 10.73393561521427 2.9999999999999747
  endloop
endfacet
facet normal 0.0 0.0 -1.0
  outer loop
    vertex 3.049286211513712 2.957478479906708 2.9999999999999747
    vertex 7.151508732646508 10.73393561521427 2.9999999999999747
    vertex 7.049286211513713 9.957478479906708 2.9999999999999747
  endloop
endfacet
facet normal 0.0 0.0 -1.0
  outer loop
    vertex 8.549286211513712 12.555554691260022 2.9999999999999747
    vertex 17.04928621151371 16.957478479906708 2.9999999999999747
    vertex 9.27282907620615 12.855255958773913 2.9999999999999747
  endloop
endfacet
facet normal 0.0 0.0 -1.0
  outer loop
    vertex 9.27282907620615 12.855255958773913 2.9999999999999747
    vertex 17.04928621151371 16.957478479906708 2.9999999999999747
    vertex 10.04928621151371 12.957478479906708 2.9999999999999747
  endloop
endfacet
facet normal 0.0 0.0 -1.0
  outer loop
    vertex 10.04928621151371 12.957478479906708 2.9999999999999747
    vertex 17.04928621151371 16.957478479906708 2.9999999999999747
    vertex 10.825743346821273 12.855255958773913 2.9999999999999747
  endloop
endfacet
facet normal 0.0 0.0 -1.0
  outer loop
    vertex 10.825743346821273 12.855255958773913 2.9999999999999747
    vertex 17.04928621151371 16.957478479906708 2.9999999999999747
    vertex 11.54928621151371 12.555554691260022 2.9999999999999747
  endloop
endfacet
facet normal 0.0 0.0 -1.0
  outer loop
    vertex 11.54928621151371 12.555554691260022 2.9999999999999747
    vertex 17.04928621151371 16.957478479906708 2.9999999999999747
    vertex 12.170606555073352 12.07879882346635 2.9999999999999747
  endloop
endfacet
facet normal 0.0 0.0 -1.0
  outer loop
    vertex 12.170606555073352 12.07879882346635 2.9999999999999747
    vertex 17.04928621151371 16.957478479906708 2.9999999999999747
    vertex 12.647362422867028 11.457478479906708 2.9999999999999747
  endloop
endfacet
facet normal 0.0 0.0 -1.0
  outer loop
    vertex 12.647362422867028 11.457478479906708 2.9999999999999747
    vertex 17.04928621151371 16.957478479906708 2.9999999999999747
    vertex 12.947063690380915 10.73393561521427 2.9999999999999747
  endloop
endfacet
facet normal 0.0 0.0 -1.0
  outer loop
    vertex 12.947063690380915 10.73393561521427 2.9999999999999747
    vertex 17.04928621151371 16.957478479906708 2.9999999999999747
    vertex 13.04928621151371 9.95747847990671 2.9999999999999747
  endloop
endfacet
facet normal 0.0 0.0 -1.0
  outer loop
    vertex 3.049286211513712 2.957478479906708 2.9999999999999747
    vertex 8.549286211513712 7.359402268553393 2.9999999999999747
    vertex 17.04928621151371 2.957478479906708 2.9999999999999747
  endloop
endfacet
facet normal 0.0 0.0 -1.0
  outer loop
    vertex 8.549286211513712 7.359402268553393 2.9999999999999747
    vertex 3.049286211513712 2.957478479906708 2.9999999999999747
    vertex 7.927965867954071 7.836158136347065 2.9999999999999747
  endloop
endfacet
facet normal 0.0 0.0 -1.0
  outer loop
    vertex 7.927965867954071 7.836158136347065 2.9999999999999747
    vertex 3.049286211513712 2.957478479906708 2.9999999999999747
    vertex 7.451210000160398 8.45747847990671 2.9999999999999747
  endloop
endfacet
facet normal 0.0 0.0 -1.0
  outer loop
    vertex 7.451210000160398 8.45747847990671 2.9999999999999747
    vertex 3.049286211513712 2.957478479906708 2.9999999999999747
    vertex 7.151508732646508 9.181021344599147 2.9999999999999747
  endloop
endfacet
facet normal 0.0 0.0 -1.0
  outer loop
    vertex 7.151508732646508 9.181021344599147 2.9999999999999747
    vertex 3.049286211513712 2.957478479906708 2.9999999999999747
    vertex 7.049286211513713 9.957478479906708 2.9999999999999747
  endloop
endfacet
facet normal 0.0 0.0 -1.0
  outer loop
    vertex 17.04928621151371 2.957478479906708 2.9999999999999747
    vertex 8.549286211513712 7.359402268553393 2.9999999999999747
    vertex 9.27282907620615 7.059701001039506 2.9999999999999747
  endloop
endfacet
facet normal 0.0 0.0 -1.0
  outer loop
    vertex 17.04928621151371 2.957478479906708 2.9999999999999747
    vertex 9.27282907620615 7.059701001039506 2.9999999999999747
    vertex 10.049286211513712 6.95747847990671 2.9999999999999747
  endloop
endfacet
facet normal 0.0 0.0 -1.0
  outer loop
    vertex 17.04928621151371 2.957478479906708 2.9999999999999747
    vertex 10.049286211513712 6.95747847990671 2.9999999999999747
    vertex 10.825743346821273 7.059701001039506 2.9999999999999747
  endloop
endfacet
facet normal 0.0 0.0 -1.0
  outer loop
    vertex 17.04928621151371 2.957478479906708 2.9999999999999747
    vertex 10.825743346821273 7.059701001039506 2.9999999999999747
    vertex 11.54928621151371 7.359402268553393 2.9999999999999747
  endloop
endfacet
facet normal 0.0 0.0 -1.0
  outer loop
    vertex 17.04928621151371 2.957478479906708 2.9999999999999747
    vertex 11.54928621151371 7.359402268553393 2.9999999999999747
    vertex 12.170606555073356 7.836158136347068 2.9999999999999747
  endloop
endfacet
facet normal 0.0 0.0 -1.0
  outer loop
    vertex 17.04928621151371 2.957478479906708 2.9999999999999747
    vertex 12.170606555073356 7.836158136347068 2.9999999999999747
    vertex 12.647362422867028 8.45747847990671 2.9999999999999747
  endloop
endfacet
facet normal 0.0 0.0 -1.0
  outer loop
    vertex 17.04928621151371 2.957478479906708 2.9999999999999747
    vertex 12.647362422867028 8.45747847990671 2.9999999999999747
    vertex 12.947063690380915 9.181021344599147 2.9999999999999747
  endloop
endfacet
facet normal 0.0 0.0 -1.0
  outer loop
    vertex 17.04928621151371 2.957478479906708 2.9999999999999747
    vertex 12.947063690380915 9.181021344599147 2.9999999999999747
    vertex 13.04928621151371 9.95747847990671 2.9999999999999747
  endloop
endfacet
facet normal 0.0 0.0 -1.0
  outer loop
    vertex 17.04928621151371 2.957478479906708 2.9999999999999747
    vertex 13.04928621151371 9.95747847990671 2.9999999999999747
    vertex 17.04928621151371 16.957478479906708 2.9999999999999747
  endloop
endfacet
facet normal -1.0 0.0 1.7574065547009837e-48
  outer loop
    vertex 7.049286211513713 9.957478479906708 2.9999999999999747
    vertex 7.151508732646508 9.181021344599147 -2.5379698342931078e-14
    vertex 7.151508732646508 9.181021344599147 2.9999999999999747
  endloop
endfacet
facet normal -0.9659258262890682 -0.2588190451025209 -9.528627999158091e-33
  outer loop
    vertex 7.151508732646508 9.181021344599147 -2.5379698342931078e-14
    vertex 7.049286211513713 9.957478479906708 2.9999999999999747
    vertex 7.049286211513713 9.957478479906708 -2.5379698342931078e-14
  endloop
endfacet
facet normal 0.8660254037844388 -0.4999999999999998 -1.840789574697585e-32
  outer loop
    vertex 12.647362422867028 8.45747847990671 -2.5379698342931078e-14
    vertex 12.170606555073356 7.836158136347068 2.9999999999999747
    vertex 12.170606555073356 7.836158136347068 -2.5379698342931078e-14
  endloop
endfacet
facet normal 0.7071067811865481 -0.707106781186547 -2.603269582012325e-32
  outer loop
    vertex 12.170606555073356 7.836158136347068 2.9999999999999747
    vertex 12.647362422867028 8.45747847990671 -2.5379698342931078e-14
    vertex 12.647362422867028 8.45747847990671 2.9999999999999747
  endloop
endfacet
facet normal 0.8660254037844386 0.5000000000000002 1.840789574697586e-32
  outer loop
    vertex 12.647362422867028 11.457478479906708 -2.5379698342931078e-14
    vertex 12.947063690380915 10.73393561521427 2.9999999999999747
    vertex 12.947063690380915 10.73393561521427 -2.5379698342931078e-14
  endloop
endfacet
facet normal 0.9659258262890682 0.2588190451025212 9.528627999158104e-33
  outer loop
    vertex 12.947063690380915 10.73393561521427 2.9999999999999747
    vertex 12.647362422867028 11.457478479906708 -2.5379698342931078e-14
    vertex 12.647362422867028 11.457478479906708 2.9999999999999747
  endloop
endfacet
facet normal 0.4999999999999999 -0.8660254037844388 -3.188341069419323e-32
  outer loop
    vertex 11.54928621151371 7.359402268553393 2.9999999999999747
    vertex 10.825743346821273 7.059701001039506 -2.5379698342931078e-14
    vertex 11.54928621151371 7.359402268553393 -2.5379698342931078e-14
  endloop
endfacet
facet normal 0.25881904510252013 -0.9659258262890684 -3.5561323819281364e-32
  outer loop
    vertex 10.825743346821273 7.059701001039506 -2.5379698342931078e-14
    vertex 11.54928621151371 7.359402268553393 2.9999999999999747
    vertex 10.825743346821273 7.059701001039506 2.9999999999999747
  endloop
endfacet
facet normal -0.7071067811865477 0.7071067811865475 2.6032695820123265e-32
  outer loop
    vertex 7.927965867954071 12.07879882346635 2.9999999999999747
    vertex 7.451210000160398 11.457478479906708 -2.5379698342931078e-14
    vertex 7.451210000160398 11.457478479906708 2.9999999999999747
  endloop
endfacet
facet normal -0.8660254037844388 0.4999999999999998 1.840789574697585e-32
  outer loop
    vertex 7.451210000160398 11.457478479906708 -2.5379698342931078e-14
    vertex 7.927965867954071 12.07879882346635 2.9999999999999747
    vertex 7.927965867954071 12.07879882346635 -2.5379698342931078e-14
  endloop
endfacet
facet normal -2.28907132834372e-48 3.681579149395171e-32 -1.0
  outer loop
    vertex 7.151508732646508 10.73393561521427 -2.5379698342931078e-14
    vertex 7.151508732646508 9.181021344599147 -2.5379698342931078e-14
    vertex 7.049286211513713 9.957478479906708 -2.5379698342931078e-14
  endloop
endfacet
facet normal -2.28907132834372e-48 3.681579149395171e-32 -1.0
  outer loop
    vertex 7.151508732646508 9.181021344599147 -2.5379698342931078e-14
    vertex 7.151508732646508 10.73393561521427 -2.5379698342931078e-14
    vertex 7.451210000160398 11.457478479906708 -2.5379698342931078e-14
  endloop
endfacet
facet normal -2.28907132834372e-48 3.681579149395171e-32 -1.0
  outer loop
    vertex 7.151508732646508 9.181021344599147 -2.5379698342931078e-14
    vertex 7.451210000160398 11.457478479906708 -2.5379698342931078e-14
    vertex 7.451210000160398 8.45747847990671 -2.5379698342931078e-14
  endloop
endfacet
facet normal -2.28907132834372e-48 3.681579149395171e-32 -1.0
  outer loop
    vertex 7.451210000160398 8.45747847990671 -2.5379698342931078e-14
    vertex 7.451210000160398 11.457478479906708 -2.5379698342931078e-14
    vertex 7.927965867954071 12.07879882346635 -2.5379698342931078e-14
  endloop
endfacet
facet normal -2.28907132834372e-48 3.681579149395171e-32 -1.0
  outer loop
    vertex 7.451210000160398 8.45747847990671 -2.5379698342931078e-14
    vertex 7.927965867954071 12.07879882346635 -2.5379698342931078e-14
    vertex 7.927965867954071 7.836158136347065 -2.5379698342931078e-14
  endloop
endfacet
facet normal -2.28907132834372e-48 3.681579149395171e-32 -1.0
  outer loop
    vertex 7.927965867954071 7.836158136347065 -2.5379698342931078e-14
    vertex 7.927965867954071 12.07879882346635 -2.5379698342931078e-14
    vertex 8.549286211513712 12.555554691260022 -2.5379698342931078e-14
  endloop
endfacet
facet normal -2.28907132834372e-48 3.681579149395171e-32 -1.0
  outer loop
    vertex 7.927965867954071 7.836158136347065 -2.5379698342931078e-14
    vertex 8.549286211513712 12.555554691260022 -2.5379698342931078e-14
    vertex 8.549286211513712 7.359402268553393 -2.5379698342931078e-14
  endloop
endfacet
facet normal -2.28907132834372e-48 3.681579149395171e-32 -1.0
  outer loop
    vertex 8.549286211513712 7.359402268553393 -2.5379698342931078e-14
    vertex 8.549286211513712 12.555554691260022 -2.5379698342931078e-14
    vertex 9.27282907620615 12.855255958773913 -2.5379698342931078e-14
  endloop
endfacet
facet normal -2.28907132834372e-48 3.681579149395171e-32 -1.0
  outer loop
    vertex 8.549286211513712 7.359402268553393 -2.5379698342931078e-14
    vertex 9.27282907620615 12.855255958773913 -2.5379698342931078e-14
    vertex 9.27282907620615 7.059701001039506 -2.5379698342931078e-14
  endloop
endfacet
facet normal -2.28907132834372e-48 3.681579149395171e-32 -1.0
  outer loop
    vertex 9.27282907620615 7.059701001039506 -2.5379698342931078e-14
    vertex 9.27282907620615 12.855255958773913 -2.5379698342931078e-14
    vertex 10.049286211513712 6.95747847990671 -2.5379698342931078e-14
  endloop
endfacet
facet normal -2.28907132834372e-48 3.681579149395171e-32 -1.0
  outer loop
    vertex 10.049286211513712 6.95747847990671 -2.5379698342931078e-14
    vertex 9.27282907620615 12.855255958773913 -2.5379698342931078e-14
    vertex 10.04928621151371 12.957478479906708 -2.5379698342931078e-14
  endloop
endfacet
facet normal -2.28907132834372e-48 3.681579149395171e-32 -1.0
  outer loop
    vertex 10.049286211513712 6.95747847990671 -2.5379698342931078e-14
    vertex 10.04928621151371 12.957478479906708 -2.5379698342931078e-14
    vertex 10.825743346821273 12.855255958773913 -2.5379698342931078e-14
  endloop
endfacet
facet normal -2.28907132834372e-48 3.681579149395171e-32 -1.0
  outer loop
    vertex 10.049286211513712 6.95747847990671 -2.5379698342931078e-14
    vertex 10.825743346821273 12.855255958773913 -2.5379698342931078e-14
    vertex 10.825743346821273 7.059701001039506 -2.5379698342931078e-14
  endloop
endfacet
facet normal -2.28907132834372e-48 3.681579149395171e-32 -1.0
  outer loop
    vertex 10.825743346821273 7.059701001039506 -2.5379698342931078e-14
    vertex 10.825743346821273 12.855255958773913 -2.5379698342931078e-14
    vertex 11.54928621151371 12.555554691260022 -2.5379698342931078e-14
  endloop
endfacet
facet normal -2.28907132834372e-48 3.681579149395171e-32 -1.0
  outer loop
    vertex 10.825743346821273 7.059701001039506 -2.5379698342931078e-14
    vertex 11.54928621151371 12.555554691260022 -2.5379698342931078e-14
    vertex 11.54928621151371 7.359402268553393 -2.5379698342931078e-14
  endloop
endfacet
facet normal -2.28907132834372e-48 3.681579149395171e-32 -1.0
  outer loop
    vertex 11.54928621151371 7.359402268553393 -2.5379698342931078e-14
    vertex 11.54928621151371 12.555554691260022 -2.5379698342931078e-14
    vertex 12.170606555073352 12.07879882346635 -2.5379698342931078e-14
  endloop
endfacet
facet normal -2.28907132834372e-48 3.681579149395171e-32 -1.0
  outer loop
    vertex 11.54928621151371 7.359402268553393 -2.5379698342931078e-14
    vertex 12.170606555073352 12.07879882346635 -2.5379698342931078e-14
    vertex 12.170606555073356 7.836158136347068 -2.5379698342931078e-14
  endloop
endfacet
facet normal -2.28907132834372e-48 3.681579149395171e-32 -1.0
  outer loop
    vertex 12.170606555073356 7.836158136347068 -2.5379698342931078e-14
    vertex 12.170606555073352 12.07879882346635 -2.5379698342931078e-14
    vertex 12.647362422867028 11.457478479906708 -2.5379698342931078e-14
  endloop
endfacet
facet normal -2.28907132834372e-48 3.681579149395171e-32 -1.0
  outer loop
    vertex 12.170606555073356 7.836158136347068 -2.5379698342931078e-14
    vertex 12.647362422867028 11.457478479906708 -2.5379698342931078e-14
    vertex 12.647362422867028 8.45747847990671 -2.5379698342931078e-14
  endloop
endfacet
facet normal -2.28907132834372e-48 3.681579149395171e-32 -1.0
  outer loop
    vertex 12.647362422867028 8.45747847990671 -2.5379698342931078e-14
    vertex 12.647362422867028 11.457478479906708 -2.5379698342931078e-14
    vertex 12.947063690380915 10.73393561521427 -2.5379698342931078e-14
  endloop
endfacet
facet normal -2.28907132834372e-48 3.681579149395171e-32 -1.0
  outer loop
    vertex 12.647362422867028 8.45747847990671 -2.5379698342931078e-14
    vertex 12.947063690380915 10.73393561521427 -2.5379698342931078e-14
    vertex 12.947063690380915 9.181021344599147 -2.5379698342931078e-14
  endloop
endfacet
facet normal -2.28907132834372e-48 3.681579149395171e-32 -1.0
  outer loop
    vertex 12.947063690380915 9.181021344599147 -2.5379698342931078e-14
    vertex 12.947063690380915 10.73393561521427 -2.5379698342931078e-14
    vertex 13.04928621151371 9.95747847990671 -2.5379698342931078e-14
  endloop
endfacet
facet normal 0.25881904510252013 -0.9659258262890684 -3.5561323819281364e-32
  outer loop
    vertex 10.825743346821273 7.059701001039506 2.9999999999999747
    vertex 10.049286211513712 6.95747847990671 -2.5379698342931078e-14
    vertex 10.825743346821273 7.059701001039506 -2.5379698342931078e-14
  endloop
endfacet
facet normal 1.0693331874776287e-16 -1.0 -3.681579149395172e-32
  outer loop
    vertex 10.049286211513712 6.95747847990671 -2.5379698342931078e-14
    vertex 10.825743346821273 7.059701001039506 2.9999999999999747
    vertex 10.049286211513712 6.95747847990671 2.9999999999999747
  endloop
endfacet
facet normal -0.25881904510252113 -0.9659258262890682 -3.556132381928135e-32
  outer loop
    vertex 9.27282907620615 7.059701001039506 2.9999999999999747
    vertex 8.549286211513712 7.359402268553393 -2.5379698342931078e-14
    vertex 9.27282907620615 7.059701001039506 -2.5379698342931078e-14
  endloop
endfacet
facet normal -0.5 -0.8660254037844387 -3.1883410694193234e-32
  outer loop
    vertex 8.549286211513712 7.359402268553393 -2.5379698342931078e-14
    vertex 9.27282907620615 7.059701001039506 2.9999999999999747
    vertex 8.549286211513712 7.359402268553393 2.9999999999999747
  endloop
endfacet
facet normal -0.9659258262890682 0.2588190451025209 9.528627999158095e-33
  outer loop
    vertex 7.151508732646508 10.73393561521427 2.9999999999999747
    vertex 7.049286211513713 9.957478479906708 -2.5379698342931078e-14
    vertex 7.049286211513713 9.957478479906708 2.9999999999999747
  endloop
endfacet
facet normal -1.0 0.0 1.7574065547009837e-48
  outer loop
    vertex 7.049286211513713 9.957478479906708 -2.5379698342931078e-14
    vertex 7.151508732646508 10.73393561521427 2.9999999999999747
    vertex 7.151508732646508 10.73393561521427 -2.5379698342931078e-14
  endloop
endfacet
facet normal 0.9659258262890682 0.2588190451025212 9.528627999158104e-33
  outer loop
    vertex 12.947063690380915 10.73393561521427 -2.5379698342931078e-14
    vertex 13.04928621151371 9.95747847990671 2.9999999999999747
    vertex 13.04928621151371 9.95747847990671 -2.5379698342931078e-14
  endloop
endfacet
facet normal 1.0 1.0693331874776287e-16 2.1967581933762296e-48
  outer loop
    vertex 13.04928621151371 9.95747847990671 2.9999999999999747
    vertex 12.947063690380915 10.73393561521427 -2.5379698342931078e-14
    vertex 12.947063690380915 10.73393561521427 2.9999999999999747
  endloop
endfacet
facet normal -0.258819045102521 0.9659258262890682 3.556132381928135e-32
  outer loop
    vertex 9.27282907620615 12.855255958773913 2.9999999999999747
    vertex 10.04928621151371 12.957478479906708 -2.5379698342931078e-14
    vertex 9.27282907620615 12.855255958773913 -2.5379698342931078e-14
  endloop
endfacet
facet normal -2.4059996718246644e-16 1.0 3.681579149395172e-32
  outer loop
    vertex 10.04928621151371 12.957478479906708 -2.5379698342931078e-14
    vertex 9.27282907620615 12.855255958773913 2.9999999999999747
    vertex 10.04928621151371 12.957478479906708 2.9999999999999747
  endloop
endfacet
facet normal 1.0 1.0693331874776287e-16 2.1967581933762296e-48
  outer loop
    vertex 13.04928621151371 9.95747847990671 -2.5379698342931078e-14
    vertex 12.947063690380915 9.181021344599147 2.9999999999999747
    vertex 12.947063690380915 9.181021344599147 -2.5379698342931078e-14
  endloop
endfacet
facet normal 0.9659258262890684 -0.25881904510252085 -9.528627999158095e-33
  outer loop
    vertex 12.947063690380915 9.181021344599147 2.9999999999999747
    vertex 13.04928621151371 9.95747847990671 -2.5379698342931078e-14
    vertex 13.04928621151371 9.95747847990671 2.9999999999999747
  endloop
endfacet
facet normal 0.9659258262890684 -0.25881904510252085 -9.528627999158095e-33
  outer loop
    vertex 12.947063690380915 9.181021344599147 -2.5379698342931078e-14
    vertex 12.647362422867028 8.45747847990671 2.9999999999999747
    vertex 12.647362422867028 8.45747847990671 -2.5379698342931078e-14
  endloop
endfacet
facet normal 0.8660254037844388 -0.4999999999999998 -1.840789574697585e-32
  outer loop
    vertex 12.647362422867028 8.45747847990671 2.9999999999999747
    vertex 12.947063690380915 9.181021344599147 -2.5379698342931078e-14
    vertex 12.947063690380915 9.181021344599147 2.9999999999999747
  endloop
endfacet
facet normal -0.5 -0.8660254037844387 -3.1883410694193234e-32
  outer loop
    vertex 8.549286211513712 7.359402268553393 2.9999999999999747
    vertex 7.927965867954071 7.836158136347065 -2.5379698342931078e-14
    vertex 8.549286211513712 7.359402268553393 -2.5379698342931078e-14
  endloop
endfacet
facet normal -0.7071067811865475 -0.7071067811865477 -2.6032695820123276e-32
  outer loop
    vertex 7.927965867954071 7.836158136347065 -2.5379698342931078e-14
    vertex 8.549286211513712 7.359402268553393 2.9999999999999747
    vertex 7.927965867954071 7.836158136347065 2.9999999999999747
  endloop
endfacet
facet normal -0.7071067811865477 0.7071067811865475 2.6032695820123265e-32
  outer loop
    vertex 7.927965867954071 12.07879882346635 2.9999999999999747
    vertex 8.549286211513712 12.555554691260022 -2.5379698342931078e-14
    vertex 7.927965867954071 12.07879882346635 -2.5379698342931078e-14
  endloop
endfacet
facet normal -0.4999999999999999 0.8660254037844387 3.1883410694193234e-32
  outer loop
    vertex 8.549286211513712 12.555554691260022 -2.5379698342931078e-14
    vertex 7.927965867954071 12.07879882346635 2.9999999999999747
    vertex 8.549286211513712 12.555554691260022 2.9999999999999747
  endloop
endfacet
facet normal 0.7071067811865481 -0.707106781186547 -2.603269582012325e-32
  outer loop
    vertex 12.170606555073356 7.836158136347068 2.9999999999999747
    vertex 11.54928621151371 7.359402268553393 -2.5379698342931078e-14
    vertex 12.170606555073356 7.836158136347068 -2.5379698342931078e-14
  endloop
endfacet
facet normal 0.4999999999999999 -0.8660254037844388 -3.188341069419323e-32
  outer loop
    vertex 11.54928621151371 7.359402268553393 -2.5379698342931078e-14
    vertex 12.170606555073356 7.836158136347068 2.9999999999999747
    vertex 11.54928621151371 7.359402268553393 2.9999999999999747
  endloop
endfacet
facet normal -0.4999999999999999 0.8660254037844387 3.1883410694193234e-32
  outer loop
    vertex 8.549286211513712 12.555554691260022 2.9999999999999747
    vertex 9.27282907620615 12.855255958773913 -2.5379698342931078e-14
    vertex 8.549286211513712 12.555554691260022 -2.5379698342931078e-14
  endloop
endfacet
facet normal -0.258819045102521 0.9659258262890682 3.556132381928135e-32
  outer loop
    vertex 9.27282907620615 12.855255958773913 -2.5379698342931078e-14
    vertex 8.549286211513712 12.555554691260022 2.9999999999999747
    vertex 9.27282907620615 12.855255958773913 2.9999999999999747
  endloop
endfacet
facet normal 0.25881904510252085 0.9659258262890684 3.5561323819281364e-32
  outer loop
    vertex 10.825743346821273 12.855255958773913 2.9999999999999747
    vertex 11.54928621151371 12.555554691260022 -2.5379698342931078e-14
    vertex 10.825743346821273 12.855255958773913 -2.5379698342931078e-14
  endloop
endfacet
facet normal 0.4999999999999998 0.8660254037844388 3.1883410694193234e-32
  outer loop
    vertex 11.54928621151371 12.555554691260022 -2.5379698342931078e-14
    vertex 10.825743346821273 12.855255958773913 2.9999999999999747
    vertex 11.54928621151371 12.555554691260022 2.9999999999999747
  endloop
endfacet
facet normal -0.8660254037844388 0.4999999999999998 1.840789574697585e-32
  outer loop
    vertex 7.451210000160398 11.457478479906708 2.9999999999999747
    vertex 7.151508732646508 10.73393561521427 -2.5379698342931078e-14
    vertex 7.151508732646508 10.73393561521427 2.9999999999999747
  endloop
endfacet
facet normal -0.9659258262890682 0.2588190451025209 9.528627999158095e-33
  outer loop
    vertex 7.151508732646508 10.73393561521427 -2.5379698342931078e-14
    vertex 7.451210000160398 11.457478479906708 2.9999999999999747
    vertex 7.451210000160398 11.457478479906708 -2.5379698342931078e-14
  endloop
endfacet
facet normal -0.8660254037844387 -0.4999999999999999 -1.840789574697585e-32
  outer loop
    vertex 7.451210000160398 8.45747847990671 2.9999999999999747
    vertex 7.927965867954071 7.836158136347065 -2.5379698342931078e-14
    vertex 7.927965867954071 7.836158136347065 2.9999999999999747
  endloop
endfacet
facet normal -0.7071067811865475 -0.7071067811865477 -2.6032695820123276e-32
  outer loop
    vertex 7.927965867954071 7.836158136347065 -2.5379698342931078e-14
    vertex 7.451210000160398 8.45747847990671 2.9999999999999747
    vertex 7.451210000160398 8.45747847990671 -2.5379698342931078e-14
  endloop
endfacet
facet normal 0.4999999999999998 0.8660254037844388 3.1883410694193234e-32
  outer loop
    vertex 11.54928621151371 12.555554691260022 2.9999999999999747
    vertex 12.170606555073352 12.07879882346635 -2.5379698342931078e-14
    vertex 11.54928621151371 12.555554691260022 -2.5379698342931078e-14
  endloop
endfacet
facet normal 0.7071067811865475 0.7071067811865477 2.6032695820123276e-32
  outer loop
    vertex 12.170606555073352 12.07879882346635 -2.5379698342931078e-14
    vertex 11.54928621151371 12.555554691260022 2.9999999999999747
    vertex 12.170606555073352 12.07879882346635 2.9999999999999747
  endloop
endfacet
facet normal 0.7071067811865475 0.7071067811865477 2.6032695820123276e-32
  outer loop
    vertex 12.170606555073352 12.07879882346635 -2.5379698342931078e-14
    vertex 12.647362422867028 11.457478479906708 2.9999999999999747
    vertex 12.647362422867028 11.457478479906708 -2.5379698342931078e-14
  endloop
endfacet
facet normal 0.8660254037844386 0.5000000000000002 1.840789574697586e-32
  outer loop
    vertex 12.647362422867028 11.457478479906708 2.9999999999999747
    vertex 12.170606555073352 12.07879882346635 -2.5379698342931078e-14
    vertex 12.170606555073352 12.07879882346635 2.9999999999999747
  endloop
endfacet
facet normal 1.0693331874776287e-16 -1.0 -3.681579149395172e-32
  outer loop
    vertex 10.049286211513712 6.95747847990671 2.9999999999999747
    vertex 9.27282907620615 7.059701001039506 -2.5379698342931078e-14
    vertex 10.049286211513712 6.95747847990671 -2.5379698342931078e-14
  endloop
endfacet
facet normal -0.25881904510252113 -0.9659258262890682 -3.556132381928135e-32
  outer loop
    vertex 9.27282907620615 7.059701001039506 -2.5379698342931078e-14
    vertex 10.049286211513712 6.95747847990671 2.9999999999999747
    vertex 9.27282907620615 7.059701001039506 2.9999999999999747
  endloop
endfacet
facet normal -0.9659258262890682 -0.2588190451025209 -9.528627999158091e-33
  outer loop
    vertex 7.151508732646508 9.181021344599147 2.9999999999999747
    vertex 7.451210000160398 8.45747847990671 -2.5379698342931078e-14
    vertex 7.451210000160398 8.45747847990671 2.9999999999999747
  endloop
endfacet
facet normal -0.8660254037844387 -0.4999999999999999 -1.840789574697585e-32
  outer loop
    vertex 7.451210000160398 8.45747847990671 -2.5379698342931078e-14
    vertex 7.151508732646508 9.181021344599147 2.9999999999999747
    vertex 7.151508732646508 9.181021344599147 -2.5379698342931078e-14
  endloop
endfacet
facet normal -2.4059996718246644e-16 1.0 3.681579149395172e-32
  outer loop
    vertex 10.04928621151371 12.957478479906708 2.9999999999999747
    vertex 10.825743346821273 12.855255958773913 -2.5379698342931078e-14
    vertex 10.04928621151371 12.957478479906708 -2.5379698342931078e-14
  endloop
endfacet
facet normal 0.25881904510252085 0.9659258262890684 3.5561323819281364e-32
  outer loop
    vertex 10.825743346821273 12.855255958773913 -2.5379698342931078e-14
    vertex 10.04928621151371 12.957478479906708 2.9999999999999747
    vertex 10.825743346821273 12.855255958773913 2.9999999999999747
  endloop
endfacet
facet normal -5.113527405323494e-16 5.113527405323493e-16 1.0
  outer loop
    vertex 5.806645524394426 9.957478479906708 16.999999999999975
    vertex 3.049286211513712 12.71483779278742 16.99999999999997
    vertex 3.049286211513712 7.200119167025994 16.999999999999975
  endloop
endfacet
facet normal 5.113527405323488e-16 -5.113527405323488e-16 1.0
  outer loop
    vertex 12.806645524394426 2.957478479906708 16.99999999999997
    vertex 10.04928621151371 5.714837792787425 16.999999999999975
    vertex 7.291926898632993 2.9574784799067086 16.999999999999975
  endloop
endfacet
facet normal -5.113527405323491e-16 5.113527405323485e-16 1.0
  outer loop
    vertex 17.04928621151371 7.200119167025994 16.99999999999998
    vertex 17.049286211513706 12.714837792787428 16.999999999999975
    vertex 14.291926898632994 9.95747847990671 16.999999999999975
  endloop
endfacet
facet normal 3.6815519472598616e-17 1.0 -5.035654433121243e-17
  outer loop
    vertex 7.291926898632993 16.95747847990671 16.99999999999998
    vertex 12.80664552439443 16.957478479906708 16.999999999999975
    vertex 3.049286211513712 16.957478479906708 16.999999999999975
  endloop
endfacet
facet normal 3.6815519472598616e-17 1.0 -5.035654433121243e-17
  outer loop
    vertex 3.049286211513712 16.957478479906708 16.999999999999975
    vertex 17.04928621151371 16.957478479906708 2.9999999999999747
    vertex 3.049286211513712 16.957478479906708 2.9999999999999747
  endloop
endfacet
facet normal 3.6815519472598616e-17 1.0 -5.035654433121243e-17
  outer loop
    vertex 17.04928621151371 16.957478479906708 2.9999999999999747
    vertex 3.049286211513712 16.957478479906708 16.999999999999975
    vertex 17.04928621151371 16.957478479906708 16.999999999999975
  endloop
endfacet
facet normal 3.6815519472598616e-17 1.0 -5.035654433121243e-17
  outer loop
    vertex 17.04928621151371 16.957478479906708 16.999999999999975
    vertex 3.049286211513712 16.957478479906708 16.999999999999975
    vertex 12.80664552439443 16.957478479906708 16.999999999999975
  endloop
endfacet
facet normal 1.0 3.6815519472598616e-17 5.035654433121242e-17
  outer loop
    vertex 17.04928621151371 16.957478479906708 2.9999999999999747
    vertex 17.04928621151371 2.957478479906708 16.999999999999975
    vertex 17.04928621151371 2.957478479906708 2.9999999999999747
  endloop
endfacet
facet normal 1.0 3.6815519472598616e-17 5.035654433121242e-17
  outer loop
    vertex 17.04928621151371 2.957478479906708 16.999999999999975
    vertex 17.04928621151371 16.957478479906708 2.9999999999999747
    vertex 17.04928621151371 7.200119167025994 16.99999999999998
  endloop
endfacet
facet normal 1.0 3.6815519472598616e-17 5.035654433121242e-17
  outer loop
    vertex 17.04928621151371 7.200119167025994 16.99999999999998
    vertex 17.04928621151371 16.957478479906708 2.9999999999999747
    vertex 17.049286211513706 12.714837792787428 16.999999999999975
  endloop
endfacet
facet normal 1.0 3.6815519472598616e-17 5.035654433121242e-17
  outer loop
    vertex 17.049286211513706 12.714837792787428 16.999999999999975
    vertex 17.04928621151371 16.957478479906708 2.9999999999999747
    vertex 17.04928621151371 16.957478479906708 16.999999999999975
  endloop
endfacet
facet normal 5.113527405323482e-16 -5.113527405323488e-16 1.0
  outer loop
    vertex 12.80664552439443 16.957478479906708 16.999999999999975
    vertex 7.291926898632993 16.95747847990671 16.99999999999998
    vertex 10.049286211513712 14.200119167025996 16.999999999999975
  endloop
endfacet
facet normal -4.00471827930745e-17 -4.0047182793074504e-17 1.0
  outer loop
    vertex 0.049286211513711854 -0.04252152009329172 19.999999999999975
    vertex 5.806645524394426 9.957478479906708 19.999999999999975
    vertex 0.04928621151370868 4.20011916702599 19.999999999999975
  endloop
endfacet
facet normal -4.00471827930745e-17 -4.0047182793074504e-17 1.0
  outer loop
    vertex 5.806645524394426 9.957478479906708 19.999999999999975
    vertex 0.049286211513711854 -0.04252152009329172 19.999999999999975
    vertex 4.291926898632992 -0.04252152009329384 19.999999999999975
  endloop
endfacet
facet normal -4.00471827930745e-17 -4.0047182793074504e-17 1.0
  outer loop
    vertex 5.806645524394426 9.957478479906708 19.999999999999975
    vertex 4.291926898632992 -0.04252152009329384 19.999999999999975
    vertex 10.04928621151371 5.714837792787425 19.999999999999975
  endloop
endfacet
facet normal -4.00471827930745e-17 -4.0047182793074504e-17 1.0
  outer loop
    vertex 5.806645524394426 9.957478479906708 19.999999999999975
    vertex 0.04928621151370974 19.957478479906705 19.999999999999975
    vertex 0.04928621151370692 15.714837792787424 19.99999999999997
  endloop
endfacet
facet normal -4.00471827930745e-17 -4.0047182793074504e-17 1.0
  outer loop
    vertex 0.04928621151370974 19.957478479906705 19.999999999999975
    vertex 5.806645524394426 9.957478479906708 19.999999999999975
    vertex 4.291926898632991 19.957478479906708 19.99999999999998
  endloop
endfacet
facet normal -4.00471827930745e-17 -4.0047182793074504e-17 1.0
  outer loop
    vertex 4.291926898632991 19.957478479906708 19.99999999999998
    vertex 5.806645524394426 9.957478479906708 19.999999999999975
    vertex 10.049286211513712 14.200119167025996 19.999999999999975
  endloop
endfacet
facet normal -4.00471827930745e-17 -4.0047182793074504e-17 1.0
  outer loop
    vertex 10.049286211513712 14.200119167025996 19.999999999999975
    vertex 5.806645524394426 9.957478479906708 19.999999999999975
    vertex 10.04928621151371 5.714837792787425 19.999999999999975
  endloop
endfacet
facet normal -4.00471827930745e-17 -4.0047182793074504e-17 1.0
  outer loop
    vertex 10.049286211513712 14.200119167025996 19.999999999999975
    vertex 10.04928621151371 5.714837792787425 19.999999999999975
    vertex 15.806645524394424 -0.04252152009329489 19.99999999999997
  endloop
endfacet
facet normal -4.00471827930745e-17 -4.0047182793074504e-17 1.0
  outer loop
    vertex 10.049286211513712 14.200119167025996 19.999999999999975
    vertex 15.806645524394424 -0.04252152009329489 19.99999999999997
    vertex 14.291926898632994 9.95747847990671 19.999999999999975
  endloop
endfacet
facet normal -4.00471827930745e-17 -4.0047182793074504e-17 1.0
  outer loop
    vertex 14.291926898632994 9.95747847990671 19.999999999999975
    vertex 15.806645524394424 -0.04252152009329489 19.99999999999997
    vertex 20.04928621151371 4.200119167025989 19.99999999999998
  endloop
endfacet
facet normal -4.00471827930745e-17 -4.0047182793074504e-17 1.0
  outer loop
    vertex 20.04928621151371 4.200119167025989 19.99999999999998
    vertex 15.806645524394424 -0.04252152009329489 19.99999999999997
    vertex 20.04928621151371 -0.04252152009329384 19.999999999999975
  endloop
endfacet
facet normal -4.00471827930745e-17 -4.0047182793074504e-17 1.0
  outer loop
    vertex 14.291926898632994 9.95747847990671 19.999999999999975
    vertex 15.806645524394426 19.957478479906708 19.999999999999975
    vertex 10.049286211513712 14.200119167025996 19.999999999999975
  endloop
endfacet
facet normal -4.00471827930745e-17 -4.0047182793074504e-17 1.0
  outer loop
    vertex 15.806645524394426 19.957478479906708 19.999999999999975
    vertex 14.291926898632994 9.95747847990671 19.999999999999975
    vertex 20.04928621151371 15.714837792787428 19.999999999999975
  endloop
endfacet
facet normal -4.00471827930745e-17 -4.0047182793074504e-17 1.0
  outer loop
    vertex 15.806645524394426 19.957478479906708 19.999999999999975
    vertex 20.04928621151371 15.714837792787428 19.999999999999975
    vertex 20.04928621151371 19.957478479906708 19.999999999999975
  endloop
endfacet
facet normal -4.985043556320992e-16 -1.0 0.0
  outer loop
    vertex 4.291926898632992 -0.04252152009329384 19.999999999999975
    vertex 0.049286211513711854 -0.04252152009329172 16.999999999999975
    vertex 4.291926898632992 -0.04252152009329384 16.999999999999975
  endloop
endfacet
facet normal -4.985043556320992e-16 -1.0 0.0
  outer loop
    vertex 0.049286211513711854 -0.04252152009329172 16.999999999999975
    vertex 4.291926898632992 -0.04252152009329384 19.999999999999975
    vertex 0.049286211513711854 -0.04252152009329172 19.999999999999975
  endloop
endfacet
facet normal 0.7071067811865476 -0.7071067811865475 0.0
  outer loop
    vertex 7.291926898632993 2.9574784799067086 16.999999999999975
    vertex 4.291926898632992 -0.04252152009329384 19.999999999999975
    vertex 4.291926898632992 -0.04252152009329384 16.999999999999975
  endloop
endfacet
facet normal 0.7071067811865476 -0.7071067811865475 0.0
  outer loop
    vertex 4.291926898632992 -0.04252152009329384 19.999999999999975
    vertex 7.291926898632993 2.9574784799067086 16.999999999999975
    vertex 10.04928621151371 5.714837792787425 19.999999999999975
  endloop
endfacet
facet normal 0.7071067811865476 -0.7071067811865475 0.0
  outer loop
    vertex 10.04928621151371 5.714837792787425 19.999999999999975
    vertex 7.291926898632993 2.9574784799067086 16.999999999999975
    vertex 10.04928621151371 5.714837792787425 16.999999999999975
  endloop
endfacet
facet normal -0.7071067811865476 0.7071067811865476 0.0
  outer loop
    vertex 5.806645524394426 9.957478479906708 19.999999999999975
    vertex 0.04928621151370868 4.20011916702599 16.999999999999975
    vertex 0.04928621151370868 4.20011916702599 19.999999999999975
  endloop
endfacet
facet normal -0.7071067811865476 0.7071067811865476 0.0
  outer loop
    vertex 0.04928621151370868 4.20011916702599 16.999999999999975
    vertex 5.806645524394426 9.957478479906708 19.999999999999975
    vertex 3.049286211513712 7.200119167025994 16.999999999999975
  endloop
endfacet
facet normal -0.7071067811865476 0.7071067811865476 0.0
  outer loop
    vertex 3.049286211513712 7.200119167025994 16.999999999999975
    vertex 5.806645524394426 9.957478479906708 19.999999999999975
    vertex 5.806645524394426 9.957478479906708 16.999999999999975
  endloop
endfacet
facet normal -1.0 -7.477565334481485e-16 0.0
  outer loop
    vertex 0.04928621151370868 4.20011916702599 19.999999999999975
    vertex 0.049286211513711854 -0.04252152009329172 16.999999999999975
    vertex 0.049286211513711854 -0.04252152009329172 19.999999999999975
  endloop
endfacet
facet normal -1.0 -7.477565334481485e-16 0.0
  outer loop
    vertex 0.049286211513711854 -0.04252152009329172 16.999999999999975
    vertex 0.04928621151370868 4.20011916702599 19.999999999999975
    vertex 0.04928621151370868 4.20011916702599 16.999999999999975
  endloop
endfacet
facet normal 6.646724741761313e-16 6.646724741761314e-16 -1.0
  outer loop
    vertex 20.049286211513714 4.200119167025991 16.99999999999998
    vertex 17.04928621151371 2.957478479906708 16.999999999999975
    vertex 17.04928621151371 7.200119167025994 16.99999999999998
  endloop
endfacet
facet normal 6.646724741761313e-16 6.646724741761314e-16 -1.0
  outer loop
    vertex 17.04928621151371 2.957478479906708 16.999999999999975
    vertex 20.049286211513714 4.200119167025991 16.99999999999998
    vertex 20.04928621151371 -0.04252152009329172 16.999999999999975
  endloop
endfacet
facet normal 6.646724741761313e-16 6.646724741761314e-16 -1.0
  outer loop
    vertex 17.04928621151371 2.957478479906708 16.999999999999975
    vertex 15.806645524394426 -0.04252152009329278 16.99999999999997
    vertex 12.806645524394426 2.957478479906708 16.99999999999997
  endloop
endfacet
facet normal 6.646724741761313e-16 6.646724741761314e-16 -1.0
  outer loop
    vertex 15.806645524394426 -0.04252152009329278 16.99999999999997
    vertex 17.04928621151371 2.957478479906708 16.999999999999975
    vertex 20.04928621151371 -0.04252152009329172 16.999999999999975
  endloop
endfacet
facet normal 1.0 -6.646724741761322e-16 6.646724741761309e-16
  outer loop
    vertex 20.04928621151371 -0.04252152009329172 16.999999999999975
    vertex 20.04928621151371 4.200119167025989 19.99999999999998
    vertex 20.04928621151371 -0.04252152009329384 19.999999999999975
  endloop
endfacet
facet normal 1.0 -6.646724741761322e-16 6.646724741761309e-16
  outer loop
    vertex 20.04928621151371 4.200119167025989 19.99999999999998
    vertex 20.04928621151371 -0.04252152009329172 16.999999999999975
    vertex 20.049286211513714 4.200119167025991 16.99999999999998
  endloop
endfacet
facet normal 0.7071067811865476 0.7071067811865475 4.3965314698108565e-16
  outer loop
    vertex 20.049286211513714 4.200119167025991 16.99999999999998
    vertex 14.291926898632994 9.95747847990671 19.999999999999975
    vertex 20.04928621151371 4.200119167025989 19.99999999999998
  endloop
endfacet
facet normal 0.7071067811865476 0.7071067811865475 4.3965314698108565e-16
  outer loop
    vertex 14.291926898632994 9.95747847990671 19.999999999999975
    vertex 20.049286211513714 4.200119167025991 16.99999999999998
    vertex 17.04928621151371 7.200119167025994 16.99999999999998
  endloop
endfacet
facet normal 0.7071067811865476 0.7071067811865475 4.3965314698108565e-16
  outer loop
    vertex 14.291926898632994 9.95747847990671 19.999999999999975
    vertex 17.04928621151371 7.200119167025994 16.99999999999998
    vertex 14.291926898632994 9.95747847990671 16.999999999999975
  endloop
endfacet
facet normal -0.7071067811865478 -0.7071067811865472 -3.8103272738360846e-16
  outer loop
    vertex 10.04928621151371 5.714837792787425 19.999999999999975
    vertex 15.806645524394426 -0.04252152009329278 16.99999999999997
    vertex 15.806645524394424 -0.04252152009329489 19.99999999999997
  endloop
endfacet
facet normal -0.7071067811865478 -0.7071067811865472 -3.8103272738360846e-16
  outer loop
    vertex 15.806645524394426 -0.04252152009329278 16.99999999999997
    vertex 10.04928621151371 5.714837792787425 19.999999999999975
    vertex 12.806645524394426 2.957478479906708 16.99999999999997
  endloop
endfacet
facet normal -0.7071067811865478 -0.7071067811865472 -3.8103272738360846e-16
  outer loop
    vertex 12.806645524394426 2.957478479906708 16.99999999999997
    vertex 10.04928621151371 5.714837792787425 19.999999999999975
    vertex 10.04928621151371 5.714837792787425 16.999999999999975
  endloop
endfacet
facet normal 2.4925217781604974e-16 -1.0 -6.646724741761312e-16
  outer loop
    vertex 20.04928621151371 -0.04252152009329172 16.999999999999975
    vertex 15.806645524394424 -0.04252152009329489 19.99999999999997
    vertex 15.806645524394426 -0.04252152009329278 16.99999999999997
  endloop
endfacet
facet normal 2.4925217781604974e-16 -1.0 -6.646724741761312e-16
  outer loop
    vertex 15.806645524394424 -0.04252152009329489 19.99999999999997
    vertex 20.04928621151371 -0.04252152009329172 16.999999999999975
    vertex 20.04928621151371 -0.04252152009329384 19.999999999999975
  endloop
endfacet
facet normal -0.0 -0.0 -1.0
  outer loop
    vertex 15.806645524394426 19.957478479906708 16.999999999999975
    vertex 17.04928621151371 16.957478479906708 16.999999999999975
    vertex 12.80664552439443 16.957478479906708 16.999999999999975
  endloop
endfacet
facet normal -0.0 -0.0 -1.0
  outer loop
    vertex 17.04928621151371 16.957478479906708 16.999999999999975
    vertex 15.806645524394426 19.957478479906708 16.999999999999975
    vertex 20.04928621151371 19.957478479906708 16.999999999999975
  endloop
endfacet
facet normal -0.0 -0.0 -1.0
  outer loop
    vertex 17.04928621151371 16.957478479906708 16.999999999999975
    vertex 20.04928621151371 15.714837792787428 16.999999999999975
    vertex 17.049286211513706 12.714837792787428 16.999999999999975
  endloop
endfacet
facet normal -0.0 -0.0 -1.0
  outer loop
    vertex 20.04928621151371 15.714837792787428 16.999999999999975
    vertex 17.04928621151371 16.957478479906708 16.999999999999975
    vertex 20.04928621151371 19.957478479906708 16.999999999999975
  endloop
endfacet
facet normal 0.7071067811865476 -0.7071067811865476 0.0
  outer loop
    vertex 17.049286211513706 12.714837792787428 16.999999999999975
    vertex 14.291926898632994 9.95747847990671 19.999999999999975
    vertex 14.291926898632994 9.95747847990671 16.999999999999975
  endloop
endfacet
facet normal 0.7071067811865476 -0.7071067811865476 0.0
  outer loop
    vertex 14.291926898632994 9.95747847990671 19.999999999999975
    vertex 17.049286211513706 12.714837792787428 16.999999999999975
    vertex 20.04928621151371 15.714837792787428 19.999999999999975
  endloop
endfacet
facet normal 0.7071067811865476 -0.7071067811865476 0.0
  outer loop
    vertex 20.04928621151371 15.714837792787428 19.999999999999975
    vertex 17.049286211513706 12.714837792787428 16.999999999999975
    vertex 20.04928621151371 15.714837792787428 16.999999999999975
  endloop
endfacet
facet normal 1.0 0.0 0.0
  outer loop
    vertex 20.04928621151371 19.957478479906708 16.999999999999975
    vertex 20.04928621151371 15.714837792787428 19.999999999999975
    vertex 20.04928621151371 15.714837792787428 16.999999999999975
  endloop
endfacet
facet normal 1.0 0.0 0.0
  outer loop
    vertex 20.04928621151371 15.714837792787428 19.999999999999975
    vertex 20.04928621151371 19.957478479906708 16.999999999999975
    vertex 20.04928621151371 19.957478479906708 19.999999999999975
  endloop
endfacet
facet normal 0.0 1.0 0.0
  outer loop
    vertex 15.806645524394426 19.957478479906708 19.999999999999975
    vertex 20.04928621151371 19.957478479906708 16.999999999999975
    vertex 15.806645524394426 19.957478479906708 16.999999999999975
  endloop
endfacet
facet normal 0.0 1.0 0.0
  outer loop
    vertex 20.04928621151371 19.957478479906708 16.999999999999975
    vertex 15.806645524394426 19.957478479906708 19.999999999999975
    vertex 20.04928621151371 19.957478479906708 19.999999999999975
  endloop
endfacet
facet normal -0.7071067811865476 0.7071067811865476 0.0
  outer loop
    vertex 15.806645524394426 19.957478479906708 19.999999999999975
    vertex 10.049286211513712 14.200119167025996 16.999999999999975
    vertex 10.049286211513712 14.200119167025996 19.999999999999975
  endloop
endfacet
facet normal -0.7071067811865476 0.7071067811865476 0.0
  outer loop
    vertex 10.049286211513712 14.200119167025996 16.999999999999975
    vertex 15.806645524394426 19.957478479906708 19.999999999999975
    vertex 12.80664552439443 16.957478479906708 16.999999999999975
  endloop
endfacet
facet normal -0.7071067811865476 0.7071067811865476 0.0
  outer loop
    vertex 12.80664552439443 16.957478479906708 16.999999999999975
    vertex 15.806645524394426 19.957478479906708 19.999999999999975
    vertex 15.806645524394426 19.957478479906708 16.999999999999975
  endloop
endfacet
facet normal 6.646724741761317e-16 6.646724741761313e-16 -1.0
  outer loop
    vertex 4.291926898632993 19.95747847990671 16.99999999999998
    vertex 3.049286211513712 16.957478479906708 16.999999999999975
    vertex 0.049286211513711854 19.957478479906708 16.999999999999975
  endloop
endfacet
facet normal 6.646724741761317e-16 6.646724741761313e-16 -1.0
  outer loop
    vertex 3.049286211513712 16.957478479906708 16.999999999999975
    vertex 4.291926898632993 19.95747847990671 16.99999999999998
    vertex 7.291926898632993 16.95747847990671 16.99999999999998
  endloop
endfacet
facet normal 6.646724741761317e-16 6.646724741761313e-16 -1.0
  outer loop
    vertex 0.049286211513711854 19.957478479906708 16.999999999999975
    vertex 3.049286211513712 12.71483779278742 16.99999999999997
    vertex 0.04928621151370904 15.714837792787428 16.99999999999997
  endloop
endfacet
facet normal 6.646724741761317e-16 6.646724741761313e-16 -1.0
  outer loop
    vertex 3.049286211513712 12.71483779278742 16.99999999999997
    vertex 0.049286211513711854 19.957478479906708 16.999999999999975
    vertex 3.049286211513712 16.957478479906708 16.999999999999975
  endloop
endfacet
facet normal 0.7071067811865472 0.7071067811865479 4.1034293718234607e-16
  outer loop
    vertex 4.291926898632991 19.957478479906708 19.99999999999998
    vertex 7.291926898632993 16.95747847990671 16.99999999999998
    vertex 4.291926898632993 19.95747847990671 16.99999999999998
  endloop
endfacet
facet normal 0.7071067811865472 0.7071067811865479 4.1034293718234607e-16
  outer loop
    vertex 7.291926898632993 16.95747847990671 16.99999999999998
    vertex 4.291926898632991 19.957478479906708 19.99999999999998
    vertex 10.049286211513712 14.200119167025996 19.999999999999975
  endloop
endfacet
facet normal 0.7071067811865472 0.7071067811865479 4.1034293718234607e-16
  outer loop
    vertex 10.049286211513712 14.200119167025996 19.999999999999975
    vertex 10.049286211513712 14.200119167025996 16.999999999999975
    vertex 7.291926898632993 16.95747847990671 16.99999999999998
  endloop
endfacet
facet normal -6.646724741761324e-16 1.0 6.646724741761309e-16
  outer loop
    vertex 0.04928621151370974 19.957478479906705 19.999999999999975
    vertex 4.291926898632993 19.95747847990671 16.99999999999998
    vertex 0.049286211513711854 19.957478479906708 16.999999999999975
  endloop
endfacet
facet normal -6.646724741761324e-16 1.0 6.646724741761309e-16
  outer loop
    vertex 4.291926898632993 19.95747847990671 16.99999999999998
    vertex 0.04928621151370974 19.957478479906705 19.999999999999975
    vertex 4.291926898632991 19.957478479906708 19.99999999999998
  endloop
endfacet
facet normal -1.0 6.646724741761324e-16 -6.646724741761313e-16
  outer loop
    vertex 0.04928621151370974 19.957478479906705 19.999999999999975
    vertex 0.04928621151370904 15.714837792787428 16.99999999999997
    vertex 0.04928621151370692 15.714837792787424 19.99999999999997
  endloop
endfacet
facet normal -1.0 6.646724741761324e-16 -6.646724741761313e-16
  outer loop
    vertex 0.04928621151370904 15.714837792787428 16.99999999999997
    vertex 0.04928621151370974 19.957478479906705 19.999999999999975
    vertex 0.049286211513711854 19.957478479906708 16.999999999999975
  endloop
endfacet
facet normal -0.7071067811865476 -0.7071067811865476 -3.8103272738361166e-16
  outer loop
    vertex 0.04928621151370692 15.714837792787424 19.99999999999997
    vertex 5.806645524394426 9.957478479906708 16.999999999999975
    vertex 5.806645524394426 9.957478479906708 19.999999999999975
  endloop
endfacet
facet normal -0.7071067811865476 -0.7071067811865476 -3.8103272738361166e-16
  outer loop
    vertex 5.806645524394426 9.957478479906708 16.999999999999975
    vertex 0.04928621151370692 15.714837792787424 19.99999999999997
    vertex 3.049286211513712 12.71483779278742 16.99999999999997
  endloop
endfacet
facet normal -0.7071067811865476 -0.7071067811865476 -3.8103272738361166e-16
  outer loop
    vertex 3.049286211513712 12.71483779278742 16.99999999999997
    vertex 0.04928621151370692 15.714837792787424 19.99999999999997
    vertex 0.04928621151370904 15.714837792787428 16.99999999999997
  endloop
endfacet
facet normal -0.0 -0.0 -1.0
  outer loop
    vertex 3.049286211513712 7.200119167025994 16.999999999999975
    vertex 0.049286211513711854 -0.04252152009329172 16.999999999999975
    vertex 0.04928621151370868 4.20011916702599 16.999999999999975
  endloop
endfacet
facet normal -0.0 -0.0 -1.0
  outer loop
    vertex 0.049286211513711854 -0.04252152009329172 16.999999999999975
    vertex 3.049286211513712 7.200119167025994 16.999999999999975
    vertex 3.049286211513712 2.957478479906708 16.999999999999975
  endloop
endfacet
facet normal -0.0 -0.0 -1.0
  outer loop
    vertex 0.049286211513711854 -0.04252152009329172 16.999999999999975
    vertex 3.049286211513712 2.957478479906708 16.999999999999975
    vertex 4.291926898632992 -0.04252152009329384 16.999999999999975
  endloop
endfacet
facet normal -0.0 -0.0 -1.0
  outer loop
    vertex 4.291926898632992 -0.04252152009329384 16.999999999999975
    vertex 3.049286211513712 2.957478479906708 16.999999999999975
    vertex 7.291926898632993 2.9574784799067086 16.999999999999975
  endloop
endfacet
facet normal -4.601939934074826e-18 -1.0 6.2945680414015595e-18
  outer loop
    vertex 17.04928621151371 2.957478479906708 16.999999999999975
    vertex 3.049286211513712 2.957478479906708 2.9999999999999747
    vertex 17.04928621151371 2.957478479906708 2.9999999999999747
  endloop
endfacet
facet normal -4.601939934074826e-18 -1.0 6.2945680414015595e-18
  outer loop
    vertex 3.049286211513712 2.957478479906708 2.9999999999999747
    vertex 17.04928621151371 2.957478479906708 16.999999999999975
    vertex 12.806645524394426 2.957478479906708 16.99999999999997
  endloop
endfacet
facet normal -4.601939934074826e-18 -1.0 6.2945680414015595e-18
  outer loop
    vertex 12.806645524394426 2.957478479906708 16.99999999999997
    vertex 3.049286211513712 2.957478479906708 16.999999999999975
    vertex 3.049286211513712 2.957478479906708 2.9999999999999747
  endloop
endfacet
facet normal -4.601939934074826e-18 -1.0 6.2945680414015595e-18
  outer loop
    vertex 3.049286211513712 2.957478479906708 16.999999999999975
    vertex 12.806645524394426 2.957478479906708 16.99999999999997
    vertex 7.291926898632993 2.9574784799067086 16.999999999999975
  endloop
endfacet
facet normal -1.0 0.0 0.0
  outer loop
    vertex 3.049286211513712 7.200119167025994 16.999999999999975
    vertex 3.049286211513712 2.957478479906708 2.9999999999999747
    vertex 3.049286211513712 2.957478479906708 16.999999999999975
  endloop
endfacet
facet normal -1.0 0.0 0.0
  outer loop
    vertex 3.049286211513712 2.957478479906708 2.9999999999999747
    vertex 3.049286211513712 7.200119167025994 16.999999999999975
    vertex 3.049286211513712 16.957478479906708 2.9999999999999747
  endloop
endfacet
facet normal -1.0 0.0 0.0
  outer loop
    vertex 3.049286211513712 16.957478479906708 2.9999999999999747
    vertex 3.049286211513712 7.200119167025994 16.999999999999975
    vertex 3.049286211513712 12.71483779278742 16.99999999999997
  endloop
endfacet
facet normal -1.0 0.0 0.0
  outer loop
    vertex 3.049286211513712 16.957478479906708 2.9999999999999747
    vertex 3.049286211513712 12.71483779278742 16.99999999999997
    vertex 3.049286211513712 16.957478479906708 16.999999999999975
  endloop
endfacet
endsolid PVA Test Object v2 - Inner
