solid PVA Test Object v1 - Outer
facet normal -0.2588190451025209 -0.9659258262890682 -3.794348081907087e-32
  outer loop
    vertex 10.776457135307561 12.897777478867203 3.0000000000000058
    vertex 10.000000000000002 12.999999999999998 0.0
    vertex 10.776457135307561 12.897777478867203 0.0
  endloop
endfacet
facet normal -2.2277774739117265e-16 -1.0 -3.681579149395172e-32
  outer loop
    vertex 10.000000000000002 12.999999999999998 0.0
    vertex 10.776457135307561 12.897777478867203 3.0000000000000058
    vertex 10.000000000000002 12.999999999999998 3.0000000000000058
  endloop
endfacet
facet normal 0.25881904510252013 0.9659258262890684 3.7943480819070885e-32
  outer loop
    vertex 9.223542864692439 7.102222521132794 3.0000000000000058
    vertex 10.000000000000002 7.000000000000004 0.0
    vertex 9.223542864692439 7.102222521132794 0.0
  endloop
endfacet
facet normal 1.0693331874776287e-16 1.0 3.681579149395172e-32
  outer loop
    vertex 10.000000000000002 7.000000000000004 0.0
    vertex 9.223542864692439 7.102222521132794 3.0000000000000058
    vertex 10.000000000000002 7.000000000000004 3.0000000000000058
  endloop
endfacet
facet normal 0.2588190451025215 -0.9659258262890681 -3.3179166819491816e-32
  outer loop
    vertex 9.223542864692435 12.897777478867203 3.0000000000000058
    vertex 8.499999999999998 12.59807621135331 0.0
    vertex 9.223542864692435 12.897777478867203 0.0
  endloop
endfacet
facet normal 0.5000000000000009 -0.866025403784438 -2.7281436757449235e-32
  outer loop
    vertex 8.499999999999998 12.59807621135331 0.0
    vertex 9.223542864692435 12.897777478867203 3.0000000000000058
    vertex 8.499999999999998 12.59807621135331 3.0000000000000058
  endloop
endfacet
facet normal 0.9659258262890684 -0.2588190451025204 -6.382970443377394e-34
  outer loop
    vertex 7.102222521132797 10.776457135307561 0.0
    vertex 7.000000000000001 9.999999999999998 3.0000000000000058
    vertex 7.000000000000001 9.999999999999998 0.0
  endloop
endfacet
facet normal 1.0 -2.2277774739117265e-16 9.203947873487915e-33
  outer loop
    vertex 7.000000000000001 9.999999999999998 3.0000000000000058
    vertex 7.102222521132797 10.776457135307561 0.0
    vertex 7.102222521132797 10.776457135307561 3.0000000000000058
  endloop
endfacet
facet normal -0.7933533402912346 -0.6087614290087213 -2.9714016629243223e-32
  outer loop
    vertex 12.12132034355964 12.12132034355964 3.0000000000000058
    vertex 12.598076211353316 11.500000000000002 0.0
    vertex 12.598076211353316 11.500000000000002 3.0000000000000058
  endloop
endfacet
facet normal -0.8660254037844384 -0.5000000000000004 -2.6378748420524173e-32
  outer loop
    vertex 12.598076211353316 11.500000000000002 0.0
    vertex 12.12132034355964 12.12132034355964 3.0000000000000058
    vertex 12.12132034355964 12.12132034355964 0.0
  endloop
endfacet
facet normal 0.6087614290087202 0.7933533402912355 3.4810939617178524e-32
  outer loop
    vertex 7.878679656440359 7.878679656440356 3.0000000000000058
    vertex 8.500000000000002 7.401923788646687 0.0
    vertex 7.878679656440359 7.878679656440356 0.0
  endloop
endfacet
facet normal 0.4999999999999991 0.8660254037844393 3.64853846309372e-32
  outer loop
    vertex 8.500000000000002 7.401923788646687 0.0
    vertex 7.878679656440359 7.878679656440356 3.0000000000000058
    vertex 8.500000000000002 7.401923788646687 3.0000000000000058
  endloop
endfacet
facet normal 0.4999999999999991 0.8660254037844393 3.64853846309372e-32
  outer loop
    vertex 8.500000000000002 7.401923788646687 3.0000000000000058
    vertex 9.223542864692439 7.102222521132794 0.0
    vertex 8.500000000000002 7.401923788646687 0.0
  endloop
endfacet
facet normal 0.25881904510252013 0.9659258262890684 3.7943480819070885e-32
  outer loop
    vertex 9.223542864692439 7.102222521132794 0.0
    vertex 8.500000000000002 7.401923788646687 3.0000000000000058
    vertex 9.223542864692439 7.102222521132794 3.0000000000000058
  endloop
endfacet
facet normal -0.9659258262890682 -0.2588190451025208 -1.8418958953978423e-32
  outer loop
    vertex 12.897777478867203 10.776457135307561 3.0000000000000058
    vertex 12.999999999999998 9.999999999999998 0.0
    vertex 12.999999999999998 9.999999999999998 3.0000000000000058
  endloop
endfacet
facet normal -1.0 1.0693331874776287e-16 -9.203947873487919e-33
  outer loop
    vertex 12.999999999999998 9.999999999999998 0.0
    vertex 12.897777478867203 10.776457135307561 3.0000000000000058
    vertex 12.897777478867203 10.776457135307561 0.0
  endloop
endfacet
facet normal -0.4999999999999998 -0.8660254037844388 -3.6485384630937195e-32
  outer loop
    vertex 11.499999999999998 12.598076211353316 3.0000000000000058
    vertex 10.776457135307561 12.897777478867203 0.0
    vertex 11.499999999999998 12.598076211353316 0.0
  endloop
endfacet
facet normal -0.2588190451025209 -0.9659258262890682 -3.794348081907087e-32
  outer loop
    vertex 10.776457135307561 12.897777478867203 0.0
    vertex 11.499999999999998 12.598076211353316 3.0000000000000058
    vertex 10.776457135307561 12.897777478867203 3.0000000000000058
  endloop
endfacet
facet normal 1.0693331874776287e-16 1.0 3.681579149395172e-32
  outer loop
    vertex 10.000000000000002 7.000000000000004 3.0000000000000058
    vertex 10.776457135307565 7.102222521132794 0.0
    vertex 10.000000000000002 7.000000000000004 0.0
  endloop
endfacet
facet normal -0.2588190451025208 0.9659258262890682 3.3179166819491827e-32
  outer loop
    vertex 10.776457135307565 7.102222521132794 0.0
    vertex 10.000000000000002 7.000000000000004 3.0000000000000058
    vertex 10.776457135307565 7.102222521132794 3.0000000000000058
  endloop
endfacet
facet normal -0.8660254037844388 0.4999999999999998 1.0437043073427538e-32
  outer loop
    vertex 12.598076211353316 8.500000000000002 3.0000000000000058
    vertex 12.121320343559644 7.878679656440362 0.0
    vertex 12.121320343559644 7.878679656440362 3.0000000000000058
  endloop
endfacet
facet normal -0.7933533402912355 0.6087614290087202 1.5110051050647068e-32
  outer loop
    vertex 12.121320343559644 7.878679656440362 0.0
    vertex 12.598076211353316 8.500000000000002 3.0000000000000058
    vertex 12.598076211353316 8.500000000000002 0.0
  endloop
endfacet
facet normal 0.8660254037844389 -0.49999999999999956 -1.0437043073427528e-32
  outer loop
    vertex 7.401923788646684 11.499999999999996 0.0
    vertex 7.102222521132797 10.776457135307561 3.0000000000000058
    vertex 7.102222521132797 10.776457135307561 0.0
  endloop
endfacet
facet normal 0.9659258262890684 -0.2588190451025204 -6.382970443377394e-34
  outer loop
    vertex 7.102222521132797 10.776457135307561 3.0000000000000058
    vertex 7.401923788646684 11.499999999999996 0.0
    vertex 7.401923788646684 11.499999999999996 3.0000000000000058
  endloop
endfacet
facet normal 1.0 -2.2277774739117265e-16 9.203947873487915e-33
  outer loop
    vertex 7.000000000000001 9.999999999999998 0.0
    vertex 7.102222521132797 9.223542864692435 3.0000000000000058
    vertex 7.102222521132797 9.223542864692435 0.0
  endloop
endfacet
facet normal 0.9659258262890681 0.2588190451025215 1.8418958953978448e-32
  outer loop
    vertex 7.102222521132797 9.223542864692435 3.0000000000000058
    vertex 7.000000000000001 9.999999999999998 0.0
    vertex 7.000000000000001 9.999999999999998 3.0000000000000058
  endloop
endfacet
facet normal -0.9659258262890682 0.2588190451025209 6.382970443377578e-34
  outer loop
    vertex 12.897777478867203 9.223542864692442 3.0000000000000058
    vertex 12.598076211353316 8.500000000000002 0.0
    vertex 12.598076211353316 8.500000000000002 3.0000000000000058
  endloop
endfacet
facet normal -0.8660254037844388 0.4999999999999998 1.0437043073427538e-32
  outer loop
    vertex 12.598076211353316 8.500000000000002 0.0
    vertex 12.897777478867203 9.223542864692442 3.0000000000000058
    vertex 12.897777478867203 9.223542864692442 0.0
  endloop
endfacet
facet normal 0.8660254037844384 0.5000000000000004 2.6378748420524173e-32
  outer loop
    vertex 7.401923788646687 8.500000000000002 0.0
    vertex 7.878679656440359 7.878679656440356 3.0000000000000058
    vertex 7.878679656440359 7.878679656440356 0.0
  endloop
endfacet
facet normal 0.7933533402912355 0.6087614290087202 2.971401662924319e-32
  outer loop
    vertex 7.878679656440359 7.878679656440356 3.0000000000000058
    vertex 7.401923788646687 8.500000000000002 0.0
    vertex 7.401923788646687 8.500000000000002 3.0000000000000058
  endloop
endfacet
facet normal -0.5000000000000004 0.8660254037844384 2.7281436757449257e-32
  outer loop
    vertex 11.500000000000002 7.401923788646687 3.0000000000000058
    vertex 12.121320343559644 7.878679656440362 0.0
    vertex 11.500000000000002 7.401923788646687 0.0
  endloop
endfacet
facet normal -0.6087614290087213 0.7933533402912346 2.360492269720592e-32
  outer loop
    vertex 12.121320343559644 7.878679656440362 0.0
    vertex 11.500000000000002 7.401923788646687 3.0000000000000058
    vertex 12.121320343559644 7.878679656440362 3.0000000000000058
  endloop
endfacet
facet normal -0.6087614290087202 -0.7933533402912355 -3.4810939617178524e-32
  outer loop
    vertex 12.12132034355964 12.12132034355964 3.0000000000000058
    vertex 11.499999999999998 12.598076211353316 0.0
    vertex 12.12132034355964 12.12132034355964 0.0
  endloop
endfacet
facet normal -0.4999999999999998 -0.8660254037844388 -3.6485384630937195e-32
  outer loop
    vertex 11.499999999999998 12.598076211353316 0.0
    vertex 12.12132034355964 12.12132034355964 3.0000000000000058
    vertex 11.499999999999998 12.598076211353316 3.0000000000000058
  endloop
endfacet
facet normal -2.2277774739117265e-16 -1.0 -3.681579149395172e-32
  outer loop
    vertex 10.000000000000002 12.999999999999998 3.0000000000000058
    vertex 9.223542864692435 12.897777478867203 0.0
    vertex 10.000000000000002 12.999999999999998 0.0
  endloop
endfacet
facet normal 0.2588190451025215 -0.9659258262890681 -3.3179166819491816e-32
  outer loop
    vertex 9.223542864692435 12.897777478867203 0.0
    vertex 10.000000000000002 12.999999999999998 3.0000000000000058
    vertex 9.223542864692435 12.897777478867203 3.0000000000000058
  endloop
endfacet
facet normal -0.2588190451025208 0.9659258262890682 3.3179166819491827e-32
  outer loop
    vertex 10.776457135307565 7.102222521132794 3.0000000000000058
    vertex 11.500000000000002 7.401923788646687 0.0
    vertex 10.776457135307565 7.102222521132794 0.0
  endloop
endfacet
facet normal -0.5000000000000004 0.8660254037844384 2.7281436757449257e-32
  outer loop
    vertex 11.500000000000002 7.401923788646687 0.0
    vertex 10.776457135307565 7.102222521132794 3.0000000000000058
    vertex 11.500000000000002 7.401923788646687 3.0000000000000058
  endloop
endfacet
facet normal -1.0 1.0693331874776287e-16 -9.203947873487919e-33
  outer loop
    vertex 12.999999999999998 9.999999999999998 3.0000000000000058
    vertex 12.897777478867203 9.223542864692442 0.0
    vertex 12.897777478867203 9.223542864692442 3.0000000000000058
  endloop
endfacet
facet normal -0.9659258262890682 0.2588190451025209 6.382970443377578e-34
  outer loop
    vertex 12.897777478867203 9.223542864692442 0.0
    vertex 12.999999999999998 9.999999999999998 3.0000000000000058
    vertex 12.999999999999998 9.999999999999998 0.0
  endloop
endfacet
facet normal 0.9659258262890681 0.2588190451025215 1.8418958953978448e-32
  outer loop
    vertex 7.102222521132797 9.223542864692435 0.0
    vertex 7.401923788646687 8.500000000000002 3.0000000000000058
    vertex 7.401923788646687 8.500000000000002 0.0
  endloop
endfacet
facet normal 0.8660254037844384 0.5000000000000004 2.6378748420524173e-32
  outer loop
    vertex 7.401923788646687 8.500000000000002 3.0000000000000058
    vertex 7.102222521132797 9.223542864692435 0.0
    vertex 7.102222521132797 9.223542864692435 3.0000000000000058
  endloop
endfacet
facet normal 0.7933533402912354 -0.6087614290087205 -1.5110051050647082e-32
  outer loop
    vertex 7.878679656440359 12.12132034355964 0.0
    vertex 7.401923788646684 11.499999999999996 3.0000000000000058
    vertex 7.401923788646684 11.499999999999996 0.0
  endloop
endfacet
facet normal 0.8660254037844389 -0.49999999999999956 -1.0437043073427528e-32
  outer loop
    vertex 7.401923788646684 11.499999999999996 3.0000000000000058
    vertex 7.878679656440359 12.12132034355964 0.0
    vertex 7.878679656440359 12.12132034355964 3.0000000000000058
  endloop
endfacet
facet normal 0.5000000000000009 -0.866025403784438 -2.7281436757449235e-32
  outer loop
    vertex 8.499999999999998 12.59807621135331 3.0000000000000058
    vertex 7.878679656440359 12.12132034355964 0.0
    vertex 8.499999999999998 12.59807621135331 0.0
  endloop
endfacet
facet normal 0.6087614290087211 -0.7933533402912349 -2.3604922697205933e-32
  outer loop
    vertex 7.878679656440359 12.12132034355964 0.0
    vertex 8.499999999999998 12.59807621135331 3.0000000000000058
    vertex 7.878679656440359 12.12132034355964 3.0000000000000058
  endloop
endfacet
facet normal -0.8660254037844384 -0.5000000000000004 -2.6378748420524173e-32
  outer loop
    vertex 12.598076211353316 11.500000000000002 3.0000000000000058
    vertex 12.897777478867203 10.776457135307561 0.0
    vertex 12.897777478867203 10.776457135307561 3.0000000000000058
  endloop
endfacet
facet normal -0.9659258262890682 -0.2588190451025208 -1.8418958953978423e-32
  outer loop
    vertex 12.897777478867203 10.776457135307561 0.0
    vertex 12.598076211353316 11.500000000000002 3.0000000000000058
    vertex 12.598076211353316 11.500000000000002 0.0
  endloop
endfacet
facet normal 0.0 0.0 -1.0
  outer loop
    vertex 0.0 20.000000000000004 5.639932965095795e-15
    vertex 7.401923788646684 11.499999999999996 0.0
    vertex 0.0 0.0 5.639932965095795e-15
  endloop
endfacet
facet normal 0.0 0.0 -1.0
  outer loop
    vertex 7.401923788646684 11.499999999999996 0.0
    vertex 0.0 20.000000000000004 5.639932965095795e-15
    vertex 7.878679656440359 12.12132034355964 0.0
  endloop
endfacet
facet normal 0.0 0.0 -1.0
  outer loop
    vertex 7.878679656440359 12.12132034355964 0.0
    vertex 0.0 20.000000000000004 5.639932965095795e-15
    vertex 8.499999999999998 12.59807621135331 0.0
  endloop
endfacet
facet normal 0.0 0.0 -1.0
  outer loop
    vertex 8.499999999999998 12.59807621135331 0.0
    vertex 0.0 20.000000000000004 5.639932965095795e-15
    vertex 20.0 20.000000000000004 5.639932965095795e-15
  endloop
endfacet
facet normal 0.0 0.0 -1.0
  outer loop
    vertex 0.0 0.0 5.639932965095795e-15
    vertex 7.401923788646684 11.499999999999996 0.0
    vertex 7.102222521132797 10.776457135307561 0.0
  endloop
endfacet
facet normal 0.0 0.0 -1.0
  outer loop
    vertex 0.0 0.0 5.639932965095795e-15
    vertex 7.102222521132797 10.776457135307561 0.0
    vertex 7.000000000000001 9.999999999999998 0.0
  endloop
endfacet
facet normal 0.0 0.0 -1.0
  outer loop
    vertex 8.499999999999998 12.59807621135331 0.0
    vertex 20.0 20.000000000000004 5.639932965095795e-15
    vertex 9.223542864692435 12.897777478867203 0.0
  endloop
endfacet
facet normal 0.0 0.0 -1.0
  outer loop
    vertex 9.223542864692435 12.897777478867203 0.0
    vertex 20.0 20.000000000000004 5.639932965095795e-15
    vertex 10.000000000000002 12.999999999999998 0.0
  endloop
endfacet
facet normal 0.0 0.0 -1.0
  outer loop
    vertex 10.000000000000002 12.999999999999998 0.0
    vertex 20.0 20.000000000000004 5.639932965095795e-15
    vertex 10.776457135307561 12.897777478867203 0.0
  endloop
endfacet
facet normal 0.0 0.0 -1.0
  outer loop
    vertex 10.776457135307561 12.897777478867203 0.0
    vertex 20.0 20.000000000000004 5.639932965095795e-15
    vertex 11.499999999999998 12.598076211353316 0.0
  endloop
endfacet
facet normal 0.0 0.0 -1.0
  outer loop
    vertex 11.499999999999998 12.598076211353316 0.0
    vertex 20.0 20.000000000000004 5.639932965095795e-15
    vertex 12.12132034355964 12.12132034355964 0.0
  endloop
endfacet
facet normal 0.0 0.0 -1.0
  outer loop
    vertex 12.12132034355964 12.12132034355964 0.0
    vertex 20.0 20.000000000000004 5.639932965095795e-15
    vertex 12.598076211353316 11.500000000000002 0.0
  endloop
endfacet
facet normal 0.0 0.0 -1.0
  outer loop
    vertex 12.598076211353316 11.500000000000002 0.0
    vertex 20.0 20.000000000000004 5.639932965095795e-15
    vertex 12.897777478867203 10.776457135307561 0.0
  endloop
endfacet
facet normal 0.0 0.0 -1.0
  outer loop
    vertex 12.897777478867203 10.776457135307561 0.0
    vertex 20.0 20.000000000000004 5.639932965095795e-15
    vertex 12.999999999999998 9.999999999999998 0.0
  endloop
endfacet
facet normal 0.0 0.0 -1.0
  outer loop
    vertex 0.0 0.0 5.639932965095795e-15
    vertex 8.500000000000002 7.401923788646687 0.0
    vertex 20.0 0.0 5.639932965095795e-15
  endloop
endfacet
facet normal 0.0 0.0 -1.0
  outer loop
    vertex 8.500000000000002 7.401923788646687 0.0
    vertex 0.0 0.0 5.639932965095795e-15
    vertex 7.878679656440359 7.878679656440356 0.0
  endloop
endfacet
facet normal 0.0 0.0 -1.0
  outer loop
    vertex 7.878679656440359 7.878679656440356 0.0
    vertex 0.0 0.0 5.639932965095795e-15
    vertex 7.401923788646687 8.500000000000002 0.0
  endloop
endfacet
facet normal 0.0 0.0 -1.0
  outer loop
    vertex 7.401923788646687 8.500000000000002 0.0
    vertex 0.0 0.0 5.639932965095795e-15
    vertex 7.102222521132797 9.223542864692435 0.0
  endloop
endfacet
facet normal 0.0 0.0 -1.0
  outer loop
    vertex 7.102222521132797 9.223542864692435 0.0
    vertex 0.0 0.0 5.639932965095795e-15
    vertex 7.000000000000001 9.999999999999998 0.0
  endloop
endfacet
facet normal 0.0 0.0 -1.0
  outer loop
    vertex 20.0 0.0 5.639932965095795e-15
    vertex 8.500000000000002 7.401923788646687 0.0
    vertex 9.223542864692439 7.102222521132794 0.0
  endloop
endfacet
facet normal 0.0 0.0 -1.0
  outer loop
    vertex 20.0 0.0 5.639932965095795e-15
    vertex 9.223542864692439 7.102222521132794 0.0
    vertex 10.000000000000002 7.000000000000004 0.0
  endloop
endfacet
facet normal 0.0 0.0 -1.0
  outer loop
    vertex 20.0 0.0 5.639932965095795e-15
    vertex 10.000000000000002 7.000000000000004 0.0
    vertex 10.776457135307565 7.102222521132794 0.0
  endloop
endfacet
facet normal 0.0 0.0 -1.0
  outer loop
    vertex 20.0 0.0 5.639932965095795e-15
    vertex 10.776457135307565 7.102222521132794 0.0
    vertex 11.500000000000002 7.401923788646687 0.0
  endloop
endfacet
facet normal 0.0 0.0 -1.0
  outer loop
    vertex 20.0 0.0 5.639932965095795e-15
    vertex 11.500000000000002 7.401923788646687 0.0
    vertex 12.121320343559644 7.878679656440362 0.0
  endloop
endfacet
facet normal 0.0 0.0 -1.0
  outer loop
    vertex 20.0 0.0 5.639932965095795e-15
    vertex 12.121320343559644 7.878679656440362 0.0
    vertex 12.598076211353316 8.500000000000002 0.0
  endloop
endfacet
facet normal 0.0 0.0 -1.0
  outer loop
    vertex 20.0 0.0 5.639932965095795e-15
    vertex 12.598076211353316 8.500000000000002 0.0
    vertex 12.897777478867203 9.223542864692442 0.0
  endloop
endfacet
facet normal 0.0 0.0 -1.0
  outer loop
    vertex 20.0 0.0 5.639932965095795e-15
    vertex 12.897777478867203 9.223542864692442 0.0
    vertex 12.999999999999998 9.999999999999998 0.0
  endloop
endfacet
facet normal 0.0 0.0 -1.0
  outer loop
    vertex 20.0 0.0 5.639932965095795e-15
    vertex 12.999999999999998 9.999999999999998 0.0
    vertex 20.0 20.000000000000004 5.639932965095795e-15
  endloop
endfacet
facet normal 0.0 0.0 1.0
  outer loop
    vertex 0.0 0.0 20.000000000000007
    vertex 7.401923788646684 8.499999999999996 20.000000000000007
    vertex 0.0 20.000000000000004 20.000000000000007
  endloop
endfacet
facet normal 0.0 0.0 1.0
  outer loop
    vertex 7.401923788646684 8.499999999999996 20.000000000000007
    vertex 0.0 0.0 20.000000000000007
    vertex 7.878679656440356 7.878679656440356 20.000000000000007
  endloop
endfacet
facet normal 0.0 0.0 1.0
  outer loop
    vertex 7.878679656440356 7.878679656440356 20.000000000000007
    vertex 0.0 0.0 20.000000000000007
    vertex 8.500000000000002 7.401923788646681 20.000000000000007
  endloop
endfacet
facet normal 0.0 0.0 1.0
  outer loop
    vertex 8.500000000000002 7.401923788646681 20.000000000000007
    vertex 0.0 0.0 20.000000000000007
    vertex 20.0 0.0 20.000000000000007
  endloop
endfacet
facet normal 0.0 0.0 1.0
  outer loop
    vertex 0.0 20.000000000000004 20.000000000000007
    vertex 7.401923788646684 8.499999999999996 20.000000000000007
    vertex 7.102222521132797 9.223542864692435 20.000000000000007
  endloop
endfacet
facet normal 0.0 0.0 1.0
  outer loop
    vertex 0.0 20.000000000000004 20.000000000000007
    vertex 7.102222521132797 9.223542864692435 20.000000000000007
    vertex 6.999999999999998 9.999999999999998 20.000000000000007
  endloop
endfacet
facet normal 0.0 0.0 1.0
  outer loop
    vertex 8.500000000000002 7.401923788646681 20.000000000000007
    vertex 20.0 0.0 20.000000000000007
    vertex 9.223542864692439 7.102222521132794 20.000000000000007
  endloop
endfacet
facet normal 0.0 0.0 1.0
  outer loop
    vertex 9.223542864692439 7.102222521132794 20.000000000000007
    vertex 20.0 0.0 20.000000000000007
    vertex 9.999999999999998 6.999999999999998 20.000000000000007
  endloop
endfacet
facet normal 0.0 0.0 1.0
  outer loop
    vertex 9.999999999999998 6.999999999999998 20.000000000000007
    vertex 20.0 0.0 20.000000000000007
    vertex 10.776457135307565 7.102222521132794 20.000000000000007
  endloop
endfacet
facet normal 0.0 0.0 1.0
  outer loop
    vertex 10.776457135307565 7.102222521132794 20.000000000000007
    vertex 20.0 0.0 20.000000000000007
    vertex 11.500000000000002 7.401923788646681 20.000000000000007
  endloop
endfacet
facet normal 0.0 0.0 1.0
  outer loop
    vertex 11.500000000000002 7.401923788646681 20.000000000000007
    vertex 20.0 0.0 20.000000000000007
    vertex 12.121320343559644 7.878679656440356 20.000000000000007
  endloop
endfacet
facet normal 0.0 0.0 1.0
  outer loop
    vertex 12.121320343559644 7.878679656440356 20.000000000000007
    vertex 20.0 0.0 20.000000000000007
    vertex 12.598076211353316 8.500000000000002 20.000000000000007
  endloop
endfacet
facet normal 0.0 0.0 1.0
  outer loop
    vertex 12.598076211353316 8.500000000000002 20.000000000000007
    vertex 20.0 0.0 20.000000000000007
    vertex 12.897777478867207 9.223542864692435 20.000000000000007
  endloop
endfacet
facet normal 0.0 0.0 1.0
  outer loop
    vertex 12.897777478867207 9.223542864692435 20.000000000000007
    vertex 20.0 0.0 20.000000000000007
    vertex 12.999999999999998 9.999999999999998 20.000000000000007
  endloop
endfacet
facet normal 0.0 0.0 1.0
  outer loop
    vertex 0.0 20.000000000000004 20.000000000000007
    vertex 8.499999999999998 12.598076211353316 20.000000000000007
    vertex 20.0 20.000000000000004 20.000000000000007
  endloop
endfacet
facet normal 0.0 0.0 1.0
  outer loop
    vertex 8.499999999999998 12.598076211353316 20.000000000000007
    vertex 0.0 20.000000000000004 20.000000000000007
    vertex 7.878679656440356 12.12132034355964 20.000000000000007
  endloop
endfacet
facet normal 0.0 0.0 1.0
  outer loop
    vertex 7.878679656440356 12.12132034355964 20.000000000000007
    vertex 0.0 20.000000000000004 20.000000000000007
    vertex 7.401923788646684 11.499999999999996 20.000000000000007
  endloop
endfacet
facet normal 0.0 0.0 1.0
  outer loop
    vertex 7.401923788646684 11.499999999999996 20.000000000000007
    vertex 0.0 20.000000000000004 20.000000000000007
    vertex 7.102222521132794 10.776457135307561 20.000000000000007
  endloop
endfacet
facet normal 0.0 0.0 1.0
  outer loop
    vertex 7.102222521132794 10.776457135307561 20.000000000000007
    vertex 0.0 20.000000000000004 20.000000000000007
    vertex 6.999999999999998 9.999999999999998 20.000000000000007
  endloop
endfacet
facet normal 0.0 0.0 1.0
  outer loop
    vertex 20.0 20.000000000000004 20.000000000000007
    vertex 8.499999999999998 12.598076211353316 20.000000000000007
    vertex 9.223542864692435 12.897777478867203 20.000000000000007
  endloop
endfacet
facet normal 0.0 0.0 1.0
  outer loop
    vertex 20.0 20.000000000000004 20.000000000000007
    vertex 9.223542864692435 12.897777478867203 20.000000000000007
    vertex 9.999999999999998 12.999999999999998 20.000000000000007
  endloop
endfacet
facet normal 0.0 0.0 1.0
  outer loop
    vertex 20.0 20.000000000000004 20.000000000000007
    vertex 9.999999999999998 12.999999999999998 20.000000000000007
    vertex 10.776457135307561 12.897777478867203 20.000000000000007
  endloop
endfacet
facet normal 0.0 0.0 1.0
  outer loop
    vertex 20.0 20.000000000000004 20.000000000000007
    vertex 10.776457135307561 12.897777478867203 20.000000000000007
    vertex 11.499999999999998 12.598076211353316 20.000000000000007
  endloop
endfacet
facet normal 0.0 0.0 1.0
  outer loop
    vertex 20.0 20.000000000000004 20.000000000000007
    vertex 11.499999999999998 12.598076211353316 20.000000000000007
    vertex 12.121320343559644 12.12132034355964 20.000000000000007
  endloop
endfacet
facet normal 0.0 0.0 1.0
  outer loop
    vertex 20.0 20.000000000000004 20.000000000000007
    vertex 12.121320343559644 12.12132034355964 20.000000000000007
    vertex 12.598076211353316 11.500000000000002 20.000000000000007
  endloop
endfacet
facet normal 0.0 0.0 1.0
  outer loop
    vertex 20.0 20.000000000000004 20.000000000000007
    vertex 12.598076211353316 11.500000000000002 20.000000000000007
    vertex 12.897777478867203 10.776457135307561 20.000000000000007
  endloop
endfacet
facet normal 0.0 0.0 1.0
  outer loop
    vertex 20.0 20.000000000000004 20.000000000000007
    vertex 12.897777478867203 10.776457135307561 20.000000000000007
    vertex 12.999999999999998 9.999999999999998 20.000000000000007
  endloop
endfacet
facet normal 0.0 0.0 1.0
  outer loop
    vertex 20.0 20.000000000000004 20.000000000000007
    vertex 12.999999999999998 9.999999999999998 20.000000000000007
    vertex 20.0 0.0 20.000000000000007
  endloop
endfacet
facet normal -0.0 -1.0 -0.0
  outer loop
    vertex 20.0 0.0 20.000000000000007
    vertex 0.0 0.0 5.639932965095795e-15
    vertex 20.0 0.0 5.639932965095795e-15
  endloop
endfacet
facet normal -0.0 -1.0 -0.0
  outer loop
    vertex 0.0 0.0 5.639932965095795e-15
    vertex 20.0 0.0 20.000000000000007
    vertex 0.0 0.0 20.000000000000007
  endloop
endfacet
facet normal 0.0 1.0 0.0
  outer loop
    vertex 0.0 20.000000000000004 20.000000000000007
    vertex 20.0 20.000000000000004 5.639932965095795e-15
    vertex 0.0 20.000000000000004 5.639932965095795e-15
  endloop
endfacet
facet normal 0.0 1.0 0.0
  outer loop
    vertex 20.0 20.000000000000004 5.639932965095795e-15
    vertex 0.0 20.000000000000004 20.000000000000007
    vertex 20.0 20.000000000000004 20.000000000000007
  endloop
endfacet
facet normal 1.0 0.0 0.0
  outer loop
    vertex 20.0 20.000000000000004 5.639932965095795e-15
    vertex 20.0 0.0 20.000000000000007
    vertex 20.0 0.0 5.639932965095795e-15
  endloop
endfacet
facet normal 1.0 0.0 0.0
  outer loop
    vertex 20.0 0.0 20.000000000000007
    vertex 20.0 20.000000000000004 5.639932965095795e-15
    vertex 20.0 20.000000000000004 20.000000000000007
  endloop
endfacet
facet normal -1.0 0.0 0.0
  outer loop
    vertex 0.0 20.000000000000004 20.000000000000007
    vertex 0.0 0.0 5.639932965095795e-15
    vertex 0.0 0.0 20.000000000000007
  endloop
endfacet
facet normal -1.0 0.0 0.0
  outer loop
    vertex 0.0 0.0 5.639932965095795e-15
    vertex 0.0 20.000000000000004 20.000000000000007
    vertex 0.0 20.000000000000004 5.639932965095795e-15
  endloop
endfacet
facet normal 1.0 0.0 0.0
  outer loop
    vertex 3.0 16.999999999999996 3.0000000000000058
    vertex 3.0 3.0 17.000000000000007
    vertex 3.0 3.0 3.0000000000000058
  endloop
endfacet
facet normal 1.0 0.0 0.0
  outer loop
    vertex 3.0 3.0 17.000000000000007
    vertex 3.0 16.999999999999996 3.0000000000000058
    vertex 3.0 16.999999999999996 17.000000000000007
  endloop
endfacet
facet normal 0.0 1.0 0.0
  outer loop
    vertex 3.0 3.0 17.000000000000007
    vertex 17.0 3.0 3.0000000000000058
    vertex 3.0 3.0 3.0000000000000058
  endloop
endfacet
facet normal 0.0 1.0 0.0
  outer loop
    vertex 17.0 3.0 3.0000000000000058
    vertex 3.0 3.0 17.000000000000007
    vertex 17.0 3.0 17.000000000000007
  endloop
endfacet
facet normal 0.0 0.0 1.0
  outer loop
    vertex 3.0 3.0 3.0000000000000058
    vertex 7.401923788646687 8.500000000000002 3.0000000000000058
    vertex 3.0 16.999999999999996 3.0000000000000058
  endloop
endfacet
facet normal 0.0 0.0 1.0
  outer loop
    vertex 7.401923788646687 8.500000000000002 3.0000000000000058
    vertex 3.0 3.0 3.0000000000000058
    vertex 7.878679656440359 7.878679656440356 3.0000000000000058
  endloop
endfacet
facet normal 0.0 0.0 1.0
  outer loop
    vertex 7.878679656440359 7.878679656440356 3.0000000000000058
    vertex 3.0 3.0 3.0000000000000058
    vertex 8.500000000000002 7.401923788646687 3.0000000000000058
  endloop
endfacet
facet normal 0.0 0.0 1.0
  outer loop
    vertex 8.500000000000002 7.401923788646687 3.0000000000000058
    vertex 3.0 3.0 3.0000000000000058
    vertex 17.0 3.0 3.0000000000000058
  endloop
endfacet
facet normal 0.0 0.0 1.0
  outer loop
    vertex 3.0 16.999999999999996 3.0000000000000058
    vertex 7.401923788646687 8.500000000000002 3.0000000000000058
    vertex 7.102222521132797 9.223542864692435 3.0000000000000058
  endloop
endfacet
facet normal 0.0 0.0 1.0
  outer loop
    vertex 3.0 16.999999999999996 3.0000000000000058
    vertex 7.102222521132797 9.223542864692435 3.0000000000000058
    vertex 7.000000000000001 9.999999999999998 3.0000000000000058
  endloop
endfacet
facet normal 0.0 0.0 1.0
  outer loop
    vertex 8.500000000000002 7.401923788646687 3.0000000000000058
    vertex 17.0 3.0 3.0000000000000058
    vertex 9.223542864692439 7.102222521132794 3.0000000000000058
  endloop
endfacet
facet normal 0.0 0.0 1.0
  outer loop
    vertex 9.223542864692439 7.102222521132794 3.0000000000000058
    vertex 17.0 3.0 3.0000000000000058
    vertex 10.000000000000002 7.000000000000004 3.0000000000000058
  endloop
endfacet
facet normal 0.0 0.0 1.0
  outer loop
    vertex 10.000000000000002 7.000000000000004 3.0000000000000058
    vertex 17.0 3.0 3.0000000000000058
    vertex 10.776457135307565 7.102222521132794 3.0000000000000058
  endloop
endfacet
facet normal 0.0 0.0 1.0
  outer loop
    vertex 10.776457135307565 7.102222521132794 3.0000000000000058
    vertex 17.0 3.0 3.0000000000000058
    vertex 11.500000000000002 7.401923788646687 3.0000000000000058
  endloop
endfacet
facet normal 0.0 0.0 1.0
  outer loop
    vertex 11.500000000000002 7.401923788646687 3.0000000000000058
    vertex 17.0 3.0 3.0000000000000058
    vertex 12.121320343559644 7.878679656440362 3.0000000000000058
  endloop
endfacet
facet normal 0.0 0.0 1.0
  outer loop
    vertex 12.121320343559644 7.878679656440362 3.0000000000000058
    vertex 17.0 3.0 3.0000000000000058
    vertex 12.598076211353316 8.500000000000002 3.0000000000000058
  endloop
endfacet
facet normal 0.0 0.0 1.0
  outer loop
    vertex 12.598076211353316 8.500000000000002 3.0000000000000058
    vertex 17.0 3.0 3.0000000000000058
    vertex 12.897777478867203 9.223542864692442 3.0000000000000058
  endloop
endfacet
facet normal 0.0 0.0 1.0
  outer loop
    vertex 12.897777478867203 9.223542864692442 3.0000000000000058
    vertex 17.0 3.0 3.0000000000000058
    vertex 12.999999999999998 9.999999999999998 3.0000000000000058
  endloop
endfacet
facet normal 0.0 0.0 1.0
  outer loop
    vertex 3.0 16.999999999999996 3.0000000000000058
    vertex 8.499999999999998 12.59807621135331 3.0000000000000058
    vertex 17.0 16.999999999999996 3.0000000000000058
  endloop
endfacet
facet normal 0.0 0.0 1.0
  outer loop
    vertex 8.499999999999998 12.59807621135331 3.0000000000000058
    vertex 3.0 16.999999999999996 3.0000000000000058
    vertex 7.878679656440359 12.12132034355964 3.0000000000000058
  endloop
endfacet
facet normal 0.0 0.0 1.0
  outer loop
    vertex 7.878679656440359 12.12132034355964 3.0000000000000058
    vertex 3.0 16.999999999999996 3.0000000000000058
    vertex 7.401923788646684 11.499999999999996 3.0000000000000058
  endloop
endfacet
facet normal 0.0 0.0 1.0
  outer loop
    vertex 7.401923788646684 11.499999999999996 3.0000000000000058
    vertex 3.0 16.999999999999996 3.0000000000000058
    vertex 7.102222521132797 10.776457135307561 3.0000000000000058
  endloop
endfacet
facet normal 0.0 0.0 1.0
  outer loop
    vertex 7.102222521132797 10.776457135307561 3.0000000000000058
    vertex 3.0 16.999999999999996 3.0000000000000058
    vertex 7.000000000000001 9.999999999999998 3.0000000000000058
  endloop
endfacet
facet normal 0.0 0.0 1.0
  outer loop
    vertex 17.0 16.999999999999996 3.0000000000000058
    vertex 8.499999999999998 12.59807621135331 3.0000000000000058
    vertex 9.223542864692435 12.897777478867203 3.0000000000000058
  endloop
endfacet
facet normal 0.0 0.0 1.0
  outer loop
    vertex 17.0 16.999999999999996 3.0000000000000058
    vertex 9.223542864692435 12.897777478867203 3.0000000000000058
    vertex 10.000000000000002 12.999999999999998 3.0000000000000058
  endloop
endfacet
facet normal 0.0 0.0 1.0
  outer loop
    vertex 17.0 16.999999999999996 3.0000000000000058
    vertex 10.000000000000002 12.999999999999998 3.0000000000000058
    vertex 10.776457135307561 12.897777478867203 3.0000000000000058
  endloop
endfacet
facet normal 0.0 0.0 1.0
  outer loop
    vertex 17.0 16.999999999999996 3.0000000000000058
    vertex 10.776457135307561 12.897777478867203 3.0000000000000058
    vertex 11.499999999999998 12.598076211353316 3.0000000000000058
  endloop
endfacet
facet normal 0.0 0.0 1.0
  outer loop
    vertex 17.0 16.999999999999996 3.0000000000000058
    vertex 11.499999999999998 12.598076211353316 3.0000000000000058
    vertex 12.12132034355964 12.12132034355964 3.0000000000000058
  endloop
endfacet
facet normal 0.0 0.0 1.0
  outer loop
    vertex 17.0 16.999999999999996 3.0000000000000058
    vertex 12.12132034355964 12.12132034355964 3.0000000000000058
    vertex 12.598076211353316 11.500000000000002 3.0000000000000058
  endloop
endfacet
facet normal 0.0 0.0 1.0
  outer loop
    vertex 17.0 16.999999999999996 3.0000000000000058
    vertex 12.598076211353316 11.500000000000002 3.0000000000000058
    vertex 12.897777478867203 10.776457135307561 3.0000000000000058
  endloop
endfacet
facet normal 0.0 0.0 1.0
  outer loop
    vertex 17.0 16.999999999999996 3.0000000000000058
    vertex 12.897777478867203 10.776457135307561 3.0000000000000058
    vertex 12.999999999999998 9.999999999999998 3.0000000000000058
  endloop
endfacet
facet normal 0.0 0.0 1.0
  outer loop
    vertex 17.0 16.999999999999996 3.0000000000000058
    vertex 12.999999999999998 9.999999999999998 3.0000000000000058
    vertex 17.0 3.0 3.0000000000000058
  endloop
endfacet
facet normal -1.0 0.0 0.0
  outer loop
    vertex 17.0 16.999999999999996 17.000000000000007
    vertex 17.0 3.0 3.0000000000000058
    vertex 17.0 3.0 17.000000000000007
  endloop
endfacet
facet normal -1.0 0.0 0.0
  outer loop
    vertex 17.0 3.0 3.0000000000000058
    vertex 17.0 16.999999999999996 17.000000000000007
    vertex 17.0 16.999999999999996 3.0000000000000058
  endloop
endfacet
facet normal 0.0 -1.0 0.0
  outer loop
    vertex 17.0 16.999999999999996 17.000000000000007
    vertex 3.0 16.999999999999996 3.0000000000000058
    vertex 17.0 16.999999999999996 3.0000000000000058
  endloop
endfacet
facet normal 0.0 -1.0 0.0
  outer loop
    vertex 3.0 16.999999999999996 3.0000000000000058
    vertex 17.0 16.999999999999996 17.000000000000007
    vertex 3.0 16.999999999999996 17.000000000000007
  endloop
endfacet
facet normal 0.0 0.0 -1.0
  outer loop
    vertex 3.0 16.999999999999996 17.000000000000007
    vertex 7.401923788646684 11.499999999999996 17.000000000000007
    vertex 3.0 3.0 17.000000000000007
  endloop
endfacet
facet normal 0.0 0.0 -1.0
  outer loop
    vertex 7.401923788646684 11.499999999999996 17.000000000000007
    vertex 3.0 16.999999999999996 17.000000000000007
    vertex 7.878679656440356 12.12132034355964 17.000000000000007
  endloop
endfacet
facet normal 0.0 0.0 -1.0
  outer loop
    vertex 7.878679656440356 12.12132034355964 17.000000000000007
    vertex 3.0 16.999999999999996 17.000000000000007
    vertex 8.499999999999998 12.598076211353316 17.000000000000007
  endloop
endfacet
facet normal 0.0 0.0 -1.0
  outer loop
    vertex 8.499999999999998 12.598076211353316 17.000000000000007
    vertex 3.0 16.999999999999996 17.000000000000007
    vertex 17.0 16.999999999999996 17.000000000000007
  endloop
endfacet
facet normal 0.0 0.0 -1.0
  outer loop
    vertex 3.0 3.0 17.000000000000007
    vertex 7.401923788646684 11.499999999999996 17.000000000000007
    vertex 7.102222521132794 10.776457135307561 17.000000000000007
  endloop
endfacet
facet normal 0.0 0.0 -1.0
  outer loop
    vertex 3.0 3.0 17.000000000000007
    vertex 7.102222521132794 10.776457135307561 17.000000000000007
    vertex 6.999999999999998 9.999999999999998 17.000000000000007
  endloop
endfacet
facet normal 0.0 0.0 -1.0
  outer loop
    vertex 8.499999999999998 12.598076211353316 17.000000000000007
    vertex 17.0 16.999999999999996 17.000000000000007
    vertex 9.223542864692435 12.897777478867203 17.000000000000007
  endloop
endfacet
facet normal 0.0 0.0 -1.0
  outer loop
    vertex 9.223542864692435 12.897777478867203 17.000000000000007
    vertex 17.0 16.999999999999996 17.000000000000007
    vertex 9.999999999999998 12.999999999999998 17.000000000000007
  endloop
endfacet
facet normal 0.0 0.0 -1.0
  outer loop
    vertex 9.999999999999998 12.999999999999998 17.000000000000007
    vertex 17.0 16.999999999999996 17.000000000000007
    vertex 10.776457135307561 12.897777478867203 17.000000000000007
  endloop
endfacet
facet normal 0.0 0.0 -1.0
  outer loop
    vertex 10.776457135307561 12.897777478867203 17.000000000000007
    vertex 17.0 16.999999999999996 17.000000000000007
    vertex 11.499999999999998 12.598076211353316 17.000000000000007
  endloop
endfacet
facet normal 0.0 0.0 -1.0
  outer loop
    vertex 11.499999999999998 12.598076211353316 17.000000000000007
    vertex 17.0 16.999999999999996 17.000000000000007
    vertex 12.121320343559644 12.12132034355964 17.000000000000007
  endloop
endfacet
facet normal 0.0 0.0 -1.0
  outer loop
    vertex 12.121320343559644 12.12132034355964 17.000000000000007
    vertex 17.0 16.999999999999996 17.000000000000007
    vertex 12.598076211353316 11.500000000000002 17.000000000000007
  endloop
endfacet
facet normal 0.0 0.0 -1.0
  outer loop
    vertex 12.598076211353316 11.500000000000002 17.000000000000007
    vertex 17.0 16.999999999999996 17.000000000000007
    vertex 12.897777478867203 10.776457135307561 17.000000000000007
  endloop
endfacet
facet normal 0.0 0.0 -1.0
  outer loop
    vertex 12.897777478867203 10.776457135307561 17.000000000000007
    vertex 17.0 16.999999999999996 17.000000000000007
    vertex 12.999999999999998 9.999999999999998 17.000000000000007
  endloop
endfacet
facet normal 0.0 0.0 -1.0
  outer loop
    vertex 3.0 3.0 17.000000000000007
    vertex 8.500000000000002 7.401923788646681 17.000000000000007
    vertex 17.0 3.0 17.000000000000007
  endloop
endfacet
facet normal 0.0 0.0 -1.0
  outer loop
    vertex 8.500000000000002 7.401923788646681 17.000000000000007
    vertex 3.0 3.0 17.000000000000007
    vertex 7.878679656440356 7.878679656440356 17.000000000000007
  endloop
endfacet
facet normal 0.0 0.0 -1.0
  outer loop
    vertex 7.878679656440356 7.878679656440356 17.000000000000007
    vertex 3.0 3.0 17.000000000000007
    vertex 7.401923788646684 8.499999999999996 17.000000000000007
  endloop
endfacet
facet normal 0.0 0.0 -1.0
  outer loop
    vertex 7.401923788646684 8.499999999999996 17.000000000000007
    vertex 3.0 3.0 17.000000000000007
    vertex 7.102222521132797 9.223542864692435 17.000000000000007
  endloop
endfacet
facet normal 0.0 0.0 -1.0
  outer loop
    vertex 7.102222521132797 9.223542864692435 17.000000000000007
    vertex 3.0 3.0 17.000000000000007
    vertex 6.999999999999998 9.999999999999998 17.000000000000007
  endloop
endfacet
facet normal 0.0 0.0 -1.0
  outer loop
    vertex 17.0 3.0 17.000000000000007
    vertex 8.500000000000002 7.401923788646681 17.000000000000007
    vertex 9.223542864692439 7.102222521132794 17.000000000000007
  endloop
endfacet
facet normal 0.0 0.0 -1.0
  outer loop
    vertex 17.0 3.0 17.000000000000007
    vertex 9.223542864692439 7.102222521132794 17.000000000000007
    vertex 9.999999999999998 6.999999999999998 17.000000000000007
  endloop
endfacet
facet normal 0.0 0.0 -1.0
  outer loop
    vertex 17.0 3.0 17.000000000000007
    vertex 9.999999999999998 6.999999999999998 17.000000000000007
    vertex 10.776457135307565 7.102222521132794 17.000000000000007
  endloop
endfacet
facet normal 0.0 0.0 -1.0
  outer loop
    vertex 17.0 3.0 17.000000000000007
    vertex 10.776457135307565 7.102222521132794 17.000000000000007
    vertex 11.500000000000002 7.401923788646681 17.000000000000007
  endloop
endfacet
facet normal 0.0 0.0 -1.0
  outer loop
    vertex 17.0 3.0 17.000000000000007
    vertex 11.500000000000002 7.401923788646681 17.000000000000007
    vertex 12.121320343559644 7.878679656440356 17.000000000000007
  endloop
endfacet
facet normal 0.0 0.0 -1.0
  outer loop
    vertex 17.0 3.0 17.000000000000007
    vertex 12.121320343559644 7.878679656440356 17.000000000000007
    vertex 12.598076211353316 8.500000000000002 17.000000000000007
  endloop
endfacet
facet normal 0.0 0.0 -1.0
  outer loop
    vertex 17.0 3.0 17.000000000000007
    vertex 12.598076211353316 8.500000000000002 17.000000000000007
    vertex 12.897777478867207 9.223542864692435 17.000000000000007
  endloop
endfacet
facet normal 0.0 0.0 -1.0
  outer loop
    vertex 17.0 3.0 17.000000000000007
    vertex 12.897777478867207 9.223542864692435 17.000000000000007
    vertex 12.999999999999998 9.999999999999998 17.000000000000007
  endloop
endfacet
facet normal 0.0 0.0 -1.0
  outer loop
    vertex 17.0 3.0 17.000000000000007
    vertex 12.999999999999998 9.999999999999998 17.000000000000007
    vertex 17.0 16.999999999999996 17.000000000000007
  endloop
endfacet
facet normal -0.5000000000000002 0.8660254037844384 0.0
  outer loop
    vertex 11.500000000000002 7.401923788646681 20.000000000000007
    vertex 12.121320343559644 7.878679656440356 17.000000000000007
    vertex 11.500000000000002 7.401923788646681 17.000000000000007
  endloop
endfacet
facet normal -0.6087614290087225 0.7933533402912339 0.0
  outer loop
    vertex 12.121320343559644 7.878679656440356 17.000000000000007
    vertex 11.500000000000002 7.401923788646681 20.000000000000007
    vertex 12.121320343559644 7.878679656440356 20.000000000000007
  endloop
endfacet
facet normal -0.8660254037844386 0.5000000000000001 0.0
  outer loop
    vertex 12.598076211353316 8.500000000000002 20.000000000000007
    vertex 12.121320343559644 7.878679656440356 17.000000000000007
    vertex 12.121320343559644 7.878679656440356 20.000000000000007
  endloop
endfacet
facet normal -0.7933533402912368 0.6087614290087184 0.0
  outer loop
    vertex 12.121320343559644 7.878679656440356 17.000000000000007
    vertex 12.598076211353316 8.500000000000002 20.000000000000007
    vertex 12.598076211353316 8.500000000000002 17.000000000000007
  endloop
endfacet
facet normal -0.9659258262890683 0.2588190451025205 0.0
  outer loop
    vertex 12.897777478867207 9.223542864692435 20.000000000000007
    vertex 12.598076211353316 8.500000000000002 17.000000000000007
    vertex 12.598076211353316 8.500000000000002 20.000000000000007
  endloop
endfacet
facet normal -0.8660254037844386 0.5000000000000001 0.0
  outer loop
    vertex 12.598076211353316 8.500000000000002 17.000000000000007
    vertex 12.897777478867207 9.223542864692435 20.000000000000007
    vertex 12.897777478867207 9.223542864692435 17.000000000000007
  endloop
endfacet
facet normal -1.0 -1.7911330890250273e-15 0.0
  outer loop
    vertex 12.999999999999998 9.999999999999998 20.000000000000007
    vertex 12.897777478867207 9.223542864692435 17.000000000000007
    vertex 12.897777478867207 9.223542864692435 20.000000000000007
  endloop
endfacet
facet normal -0.9659258262890683 0.2588190451025205 0.0
  outer loop
    vertex 12.897777478867207 9.223542864692435 17.000000000000007
    vertex 12.999999999999998 9.999999999999998 20.000000000000007
    vertex 12.999999999999998 9.999999999999998 17.000000000000007
  endloop
endfacet
facet normal -0.9659258262890688 -0.25881904510251935 0.0
  outer loop
    vertex 12.897777478867203 10.776457135307561 20.000000000000007
    vertex 12.999999999999998 9.999999999999998 17.000000000000007
    vertex 12.999999999999998 9.999999999999998 20.000000000000007
  endloop
endfacet
facet normal -1.0 -1.7911330890250273e-15 0.0
  outer loop
    vertex 12.999999999999998 9.999999999999998 17.000000000000007
    vertex 12.897777478867203 10.776457135307561 20.000000000000007
    vertex 12.897777478867203 10.776457135307561 17.000000000000007
  endloop
endfacet
facet normal -0.8660254037844392 -0.4999999999999994 0.0
  outer loop
    vertex 12.598076211353316 11.500000000000002 20.000000000000007
    vertex 12.897777478867203 10.776457135307561 17.000000000000007
    vertex 12.897777478867203 10.776457135307561 20.000000000000007
  endloop
endfacet
facet normal -0.9659258262890688 -0.25881904510251935 0.0
  outer loop
    vertex 12.897777478867203 10.776457135307561 17.000000000000007
    vertex 12.598076211353316 11.500000000000002 20.000000000000007
    vertex 12.598076211353316 11.500000000000002 17.000000000000007
  endloop
endfacet
facet normal -0.707106781186547 -0.7071067811865481 0.0
  outer loop
    vertex 12.121320343559644 12.12132034355964 20.000000000000007
    vertex 12.598076211353316 11.500000000000002 17.000000000000007
    vertex 12.598076211353316 11.500000000000002 20.000000000000007
  endloop
endfacet
facet normal -0.8660254037844392 -0.4999999999999994 0.0
  outer loop
    vertex 12.598076211353316 11.500000000000002 17.000000000000007
    vertex 12.121320343559644 12.12132034355964 20.000000000000007
    vertex 12.121320343559644 12.12132034355964 17.000000000000007
  endloop
endfacet
facet normal -0.707106781186547 -0.7071067811865481 0.0
  outer loop
    vertex 12.121320343559644 12.12132034355964 20.000000000000007
    vertex 11.499999999999998 12.598076211353316 17.000000000000007
    vertex 12.121320343559644 12.12132034355964 17.000000000000007
  endloop
endfacet
facet normal -0.4999999999999994 -0.866025403784439 0.0
  outer loop
    vertex 11.499999999999998 12.598076211353316 17.000000000000007
    vertex 12.121320343559644 12.12132034355964 20.000000000000007
    vertex 11.499999999999998 12.598076211353316 20.000000000000007
  endloop
endfacet
facet normal -0.4999999999999994 -0.866025403784439 0.0
  outer loop
    vertex 11.499999999999998 12.598076211353316 20.000000000000007
    vertex 10.776457135307561 12.897777478867203 17.000000000000007
    vertex 11.499999999999998 12.598076211353316 17.000000000000007
  endloop
endfacet
facet normal -0.25881904510252013 -0.9659258262890684 0.0
  outer loop
    vertex 10.776457135307561 12.897777478867203 17.000000000000007
    vertex 11.499999999999998 12.598076211353316 20.000000000000007
    vertex 10.776457135307561 12.897777478867203 20.000000000000007
  endloop
endfacet
facet normal -0.25881904510252013 -0.9659258262890684 0.0
  outer loop
    vertex 10.776457135307561 12.897777478867203 20.000000000000007
    vertex 9.999999999999998 12.999999999999998 17.000000000000007
    vertex 10.776457135307561 12.897777478867203 17.000000000000007
  endloop
endfacet
facet normal -1.0693331874776287e-16 -1.0 0.0
  outer loop
    vertex 9.999999999999998 12.999999999999998 17.000000000000007
    vertex 10.776457135307561 12.897777478867203 20.000000000000007
    vertex 9.999999999999998 12.999999999999998 20.000000000000007
  endloop
endfacet
facet normal -1.0693331874776287e-16 -1.0 0.0
  outer loop
    vertex 9.999999999999998 12.999999999999998 20.000000000000007
    vertex 9.223542864692435 12.897777478867203 17.000000000000007
    vertex 9.999999999999998 12.999999999999998 17.000000000000007
  endloop
endfacet
facet normal 0.25881904510252 -0.9659258262890684 0.0
  outer loop
    vertex 9.223542864692435 12.897777478867203 17.000000000000007
    vertex 9.999999999999998 12.999999999999998 20.000000000000007
    vertex 9.223542864692435 12.897777478867203 20.000000000000007
  endloop
endfacet
facet normal 0.25881904510252 -0.9659258262890684 0.0
  outer loop
    vertex 9.223542864692435 12.897777478867203 20.000000000000007
    vertex 8.499999999999998 12.598076211353316 17.000000000000007
    vertex 9.223542864692435 12.897777478867203 17.000000000000007
  endloop
endfacet
facet normal 0.5000000000000002 -0.8660254037844384 0.0
  outer loop
    vertex 8.499999999999998 12.598076211353316 17.000000000000007
    vertex 9.223542864692435 12.897777478867203 20.000000000000007
    vertex 8.499999999999998 12.598076211353316 20.000000000000007
  endloop
endfacet
facet normal 0.5000000000000002 -0.8660254037844384 0.0
  outer loop
    vertex 8.499999999999998 12.598076211353316 20.000000000000007
    vertex 7.878679656440356 12.12132034355964 17.000000000000007
    vertex 8.499999999999998 12.598076211353316 17.000000000000007
  endloop
endfacet
facet normal 0.6087614290087225 -0.7933533402912339 0.0
  outer loop
    vertex 7.878679656440356 12.12132034355964 17.000000000000007
    vertex 8.499999999999998 12.598076211353316 20.000000000000007
    vertex 7.878679656440356 12.12132034355964 20.000000000000007
  endloop
endfacet
facet normal 0.7933533402912362 -0.6087614290087197 0.0
  outer loop
    vertex 7.878679656440356 12.12132034355964 17.000000000000007
    vertex 7.401923788646684 11.499999999999996 20.000000000000007
    vertex 7.401923788646684 11.499999999999996 17.000000000000007
  endloop
endfacet
facet normal 0.8660254037844387 -0.5 0.0
  outer loop
    vertex 7.401923788646684 11.499999999999996 20.000000000000007
    vertex 7.878679656440356 12.12132034355964 17.000000000000007
    vertex 7.878679656440356 12.12132034355964 20.000000000000007
  endloop
endfacet
facet normal 0.8660254037844387 -0.5 0.0
  outer loop
    vertex 7.401923788646684 11.499999999999996 17.000000000000007
    vertex 7.102222521132794 10.776457135307561 20.000000000000007
    vertex 7.102222521132794 10.776457135307561 17.000000000000007
  endloop
endfacet
facet normal 0.965925826289068 -0.2588190451025214 0.0
  outer loop
    vertex 7.102222521132794 10.776457135307561 20.000000000000007
    vertex 7.401923788646684 11.499999999999996 17.000000000000007
    vertex 7.401923788646684 11.499999999999996 20.000000000000007
  endloop
endfacet
facet normal 0.965925826289068 -0.2588190451025214 0.0
  outer loop
    vertex 7.102222521132794 10.776457135307561 17.000000000000007
    vertex 6.999999999999998 9.999999999999998 20.000000000000007
    vertex 6.999999999999998 9.999999999999998 17.000000000000007
  endloop
endfacet
facet normal 1.0 8.911109895646906e-16 0.0
  outer loop
    vertex 6.999999999999998 9.999999999999998 20.000000000000007
    vertex 7.102222521132794 10.776457135307561 17.000000000000007
    vertex 7.102222521132794 10.776457135307561 20.000000000000007
  endloop
endfacet
facet normal 1.0 8.911109895646906e-16 0.0
  outer loop
    vertex 6.999999999999998 9.999999999999998 17.000000000000007
    vertex 7.102222521132797 9.223542864692435 20.000000000000007
    vertex 7.102222521132797 9.223542864692435 17.000000000000007
  endloop
endfacet
facet normal 0.9659258262890682 0.25881904510252096 0.0
  outer loop
    vertex 7.102222521132797 9.223542864692435 20.000000000000007
    vertex 6.999999999999998 9.999999999999998 17.000000000000007
    vertex 6.999999999999998 9.999999999999998 20.000000000000007
  endloop
endfacet
facet normal 0.9659258262890682 0.25881904510252096 0.0
  outer loop
    vertex 7.102222521132797 9.223542864692435 17.000000000000007
    vertex 7.401923788646684 8.499999999999996 20.000000000000007
    vertex 7.401923788646684 8.499999999999996 17.000000000000007
  endloop
endfacet
facet normal 0.8660254037844385 0.5000000000000001 0.0
  outer loop
    vertex 7.401923788646684 8.499999999999996 20.000000000000007
    vertex 7.102222521132797 9.223542864692435 17.000000000000007
    vertex 7.102222521132797 9.223542864692435 20.000000000000007
  endloop
endfacet
facet normal 0.8660254037844385 0.5000000000000001 0.0
  outer loop
    vertex 7.401923788646684 8.499999999999996 17.000000000000007
    vertex 7.878679656440356 7.878679656440356 20.000000000000007
    vertex 7.878679656440356 7.878679656440356 17.000000000000007
  endloop
endfacet
facet normal 0.7071067811865475 0.7071067811865478 0.0
  outer loop
    vertex 7.878679656440356 7.878679656440356 20.000000000000007
    vertex 7.401923788646684 8.499999999999996 17.000000000000007
    vertex 7.401923788646684 8.499999999999996 20.000000000000007
  endloop
endfacet
facet normal 0.7071067811865475 0.7071067811865478 0.0
  outer loop
    vertex 7.878679656440356 7.878679656440356 20.000000000000007
    vertex 8.500000000000002 7.401923788646681 17.000000000000007
    vertex 7.878679656440356 7.878679656440356 17.000000000000007
  endloop
endfacet
facet normal 0.4999999999999999 0.8660254037844388 0.0
  outer loop
    vertex 8.500000000000002 7.401923788646681 17.000000000000007
    vertex 7.878679656440356 7.878679656440356 20.000000000000007
    vertex 8.500000000000002 7.401923788646681 20.000000000000007
  endloop
endfacet
facet normal 0.4999999999999999 0.8660254037844388 0.0
  outer loop
    vertex 8.500000000000002 7.401923788646681 20.000000000000007
    vertex 9.223542864692439 7.102222521132794 17.000000000000007
    vertex 8.500000000000002 7.401923788646681 17.000000000000007
  endloop
endfacet
facet normal 0.25881904510252013 0.9659258262890684 0.0
  outer loop
    vertex 9.223542864692439 7.102222521132794 17.000000000000007
    vertex 8.500000000000002 7.401923788646681 20.000000000000007
    vertex 9.223542864692439 7.102222521132794 20.000000000000007
  endloop
endfacet
facet normal 0.25881904510252013 0.9659258262890684 0.0
  outer loop
    vertex 9.223542864692439 7.102222521132794 20.000000000000007
    vertex 9.999999999999998 6.999999999999998 17.000000000000007
    vertex 9.223542864692439 7.102222521132794 17.000000000000007
  endloop
endfacet
facet normal 2.2277774739117265e-16 1.0 0.0
  outer loop
    vertex 9.999999999999998 6.999999999999998 17.000000000000007
    vertex 9.223542864692439 7.102222521132794 20.000000000000007
    vertex 9.999999999999998 6.999999999999998 20.000000000000007
  endloop
endfacet
facet normal 2.2277774739117265e-16 1.0 0.0
  outer loop
    vertex 9.999999999999998 6.999999999999998 20.000000000000007
    vertex 10.776457135307565 7.102222521132794 17.000000000000007
    vertex 9.999999999999998 6.999999999999998 17.000000000000007
  endloop
endfacet
facet normal -0.2588190451025199 0.9659258262890684 0.0
  outer loop
    vertex 10.776457135307565 7.102222521132794 17.000000000000007
    vertex 9.999999999999998 6.999999999999998 20.000000000000007
    vertex 10.776457135307565 7.102222521132794 20.000000000000007
  endloop
endfacet
facet normal -0.2588190451025199 0.9659258262890684 0.0
  outer loop
    vertex 10.776457135307565 7.102222521132794 20.000000000000007
    vertex 11.500000000000002 7.401923788646681 17.000000000000007
    vertex 10.776457135307565 7.102222521132794 17.000000000000007
  endloop
endfacet
facet normal -0.5000000000000002 0.8660254037844384 0.0
  outer loop
    vertex 11.500000000000002 7.401923788646681 17.000000000000007
    vertex 10.776457135307565 7.102222521132794 20.000000000000007
    vertex 11.500000000000002 7.401923788646681 20.000000000000007
  endloop
endfacet
endsolid PVA Test Object v1 - Outer
