solid PVA Test Object v2 - Outer
facet normal -2.4490103268688604e-16 2.4490103268688604e-16 1.0
  outer loop
    vertex 20.000000000000007 15.757359312880721 20.000000000000007
    vertex 14.24264068711929 10.000000000000004 20.000000000000007
    vertex 20.000000000000007 4.242640687119285 20.000000000000007
  endloop
endfacet
facet normal 2.4490103268688614e-16 -2.449010326868861e-16 1.0
  outer loop
    vertex 15.757359312880718 0.0 20.000000000000004
    vertex 10.000000000000004 5.75735931288072 20.000000000000007
    vertex 4.242640687119285 1.0574874309554614e-15 20.000000000000007
  endloop
endfacet
facet normal -2.449010326868861e-16 2.449010326868861e-16 1.0
  outer loop
    vertex 5.757359312880719 10.000000000000002 20.000000000000007
    vertex 0.0 15.757359312880718 20.000000000000004
    vertex 1.762479051592436e-15 4.242640687119285 20.000000000000007
  endloop
endfacet
facet normal 2.4490103268688614e-16 -2.4490103268688614e-16 1.0
  outer loop
    vertex 15.757359312880721 20.000000000000004 20.000000000000007
    vertex 4.242640687119285 20.000000000000004 20.000000000000007
    vertex 10.000000000000007 14.24264068711929 20.000000000000007
  endloop
endfacet
facet normal 0.7933533402912354 -0.6087614290087205 -1.5110051050647082e-32
  outer loop
    vertex 7.878679656440365 12.121320343559644 0.0
    vertex 7.401923788646689 11.499999999999998 3.0000000000000058
    vertex 7.401923788646689 11.499999999999998 0.0
  endloop
endfacet
facet normal 0.8660254037844389 -0.49999999999999956 -1.0437043073427528e-32
  outer loop
    vertex 7.401923788646689 11.499999999999998 3.0000000000000058
    vertex 7.878679656440365 12.121320343559644 0.0
    vertex 7.878679656440365 12.121320343559644 3.0000000000000058
  endloop
endfacet
facet normal -0.4999999999999998 -0.8660254037844388 -3.6485384630937195e-32
  outer loop
    vertex 11.500000000000004 12.59807621135332 3.0000000000000058
    vertex 10.776457135307567 12.897777478867207 0.0
    vertex 11.500000000000004 12.59807621135332 0.0
  endloop
endfacet
facet normal -0.2588190451025209 -0.9659258262890682 -3.794348081907087e-32
  outer loop
    vertex 10.776457135307567 12.897777478867207 0.0
    vertex 11.500000000000004 12.59807621135332 3.0000000000000058
    vertex 10.776457135307567 12.897777478867207 3.0000000000000058
  endloop
endfacet
facet normal -0.8660254037844384 -0.5000000000000004 -2.6378748420524173e-32
  outer loop
    vertex 12.598076211353321 11.500000000000004 3.0000000000000058
    vertex 12.897777478867209 10.776457135307565 0.0
    vertex 12.897777478867209 10.776457135307565 3.0000000000000058
  endloop
endfacet
facet normal -0.9659258262890684 -0.25881904510252085 -1.8418958953978426e-32
  outer loop
    vertex 12.897777478867209 10.776457135307565 0.0
    vertex 12.598076211353321 11.500000000000004 3.0000000000000058
    vertex 12.598076211353321 11.500000000000004 0.0
  endloop
endfacet
facet normal 0.500000000000001 -0.8660254037844383 -2.728143675744924e-32
  outer loop
    vertex 8.500000000000004 12.598076211353312 3.0000000000000058
    vertex 7.878679656440365 12.121320343559644 0.0
    vertex 8.500000000000004 12.598076211353312 0.0
  endloop
endfacet
facet normal 0.6087614290087211 -0.7933533402912349 -2.3604922697205933e-32
  outer loop
    vertex 7.878679656440365 12.121320343559644 0.0
    vertex 8.500000000000004 12.598076211353312 3.0000000000000058
    vertex 7.878679656440365 12.121320343559644 3.0000000000000058
  endloop
endfacet
facet normal 0.0 0.0 -1.0
  outer loop
    vertex 4.93494134445882e-15 20.000000000000007 5.639932965095795e-15
    vertex 7.401923788646689 11.499999999999998 0.0
    vertex 4.93494134445882e-15 3.1724622928663847e-15 5.639932965095795e-15
  endloop
endfacet
facet normal 0.0 0.0 -1.0
  outer loop
    vertex 7.401923788646689 11.499999999999998 0.0
    vertex 4.93494134445882e-15 20.000000000000007 5.639932965095795e-15
    vertex 7.878679656440365 12.121320343559644 0.0
  endloop
endfacet
facet normal 0.0 0.0 -1.0
  outer loop
    vertex 7.878679656440365 12.121320343559644 0.0
    vertex 4.93494134445882e-15 20.000000000000007 5.639932965095795e-15
    vertex 8.500000000000004 12.598076211353312 0.0
  endloop
endfacet
facet normal 0.0 0.0 -1.0
  outer loop
    vertex 8.500000000000004 12.598076211353312 0.0
    vertex 4.93494134445882e-15 20.000000000000007 5.639932965095795e-15
    vertex 20.000000000000007 20.000000000000007 5.639932965095795e-15
  endloop
endfacet
facet normal 0.0 0.0 -1.0
  outer loop
    vertex 4.93494134445882e-15 3.1724622928663847e-15 5.639932965095795e-15
    vertex 7.401923788646689 11.499999999999998 0.0
    vertex 7.102222521132802 10.776457135307565 0.0
  endloop
endfacet
facet normal 0.0 0.0 -1.0
  outer loop
    vertex 4.93494134445882e-15 3.1724622928663847e-15 5.639932965095795e-15
    vertex 7.102222521132802 10.776457135307565 0.0
    vertex 7.000000000000007 10.000000000000002 0.0
  endloop
endfacet
facet normal 0.0 0.0 -1.0
  outer loop
    vertex 8.500000000000004 12.598076211353312 0.0
    vertex 20.000000000000007 20.000000000000007 5.639932965095795e-15
    vertex 9.223542864692442 12.897777478867207 0.0
  endloop
endfacet
facet normal 0.0 0.0 -1.0
  outer loop
    vertex 9.223542864692442 12.897777478867207 0.0
    vertex 20.000000000000007 20.000000000000007 5.639932965095795e-15
    vertex 10.000000000000007 13.000000000000002 0.0
  endloop
endfacet
facet normal 0.0 0.0 -1.0
  outer loop
    vertex 10.000000000000007 13.000000000000002 0.0
    vertex 20.000000000000007 20.000000000000007 5.639932965095795e-15
    vertex 10.776457135307567 12.897777478867207 0.0
  endloop
endfacet
facet normal 0.0 0.0 -1.0
  outer loop
    vertex 10.776457135307567 12.897777478867207 0.0
    vertex 20.000000000000007 20.000000000000007 5.639932965095795e-15
    vertex 11.500000000000004 12.59807621135332 0.0
  endloop
endfacet
facet normal 0.0 0.0 -1.0
  outer loop
    vertex 11.500000000000004 12.59807621135332 0.0
    vertex 20.000000000000007 20.000000000000007 5.639932965095795e-15
    vertex 12.121320343559647 12.121320343559644 0.0
  endloop
endfacet
facet normal 0.0 0.0 -1.0
  outer loop
    vertex 12.121320343559647 12.121320343559644 0.0
    vertex 20.000000000000007 20.000000000000007 5.639932965095795e-15
    vertex 12.598076211353321 11.500000000000004 0.0
  endloop
endfacet
facet normal 0.0 0.0 -1.0
  outer loop
    vertex 12.598076211353321 11.500000000000004 0.0
    vertex 20.000000000000007 20.000000000000007 5.639932965095795e-15
    vertex 12.897777478867209 10.776457135307565 0.0
  endloop
endfacet
facet normal 0.0 0.0 -1.0
  outer loop
    vertex 12.897777478867209 10.776457135307565 0.0
    vertex 20.000000000000007 20.000000000000007 5.639932965095795e-15
    vertex 13.000000000000004 10.000000000000002 0.0
  endloop
endfacet
facet normal 0.0 0.0 -1.0
  outer loop
    vertex 4.93494134445882e-15 3.1724622928663847e-15 5.639932965095795e-15
    vertex 8.500000000000007 7.401923788646689 0.0
    vertex 20.000000000000007 3.1724622928663847e-15 5.639932965095795e-15
  endloop
endfacet
facet normal 0.0 0.0 -1.0
  outer loop
    vertex 8.500000000000007 7.401923788646689 0.0
    vertex 4.93494134445882e-15 3.1724622928663847e-15 5.639932965095795e-15
    vertex 7.878679656440365 7.878679656440359 0.0
  endloop
endfacet
facet normal 0.0 0.0 -1.0
  outer loop
    vertex 7.878679656440365 7.878679656440359 0.0
    vertex 4.93494134445882e-15 3.1724622928663847e-15 5.639932965095795e-15
    vertex 7.401923788646692 8.500000000000004 0.0
  endloop
endfacet
facet normal 0.0 0.0 -1.0
  outer loop
    vertex 7.401923788646692 8.500000000000004 0.0
    vertex 4.93494134445882e-15 3.1724622928663847e-15 5.639932965095795e-15
    vertex 7.102222521132802 9.223542864692439 0.0
  endloop
endfacet
facet normal 0.0 0.0 -1.0
  outer loop
    vertex 7.102222521132802 9.223542864692439 0.0
    vertex 4.93494134445882e-15 3.1724622928663847e-15 5.639932965095795e-15
    vertex 7.000000000000007 10.000000000000002 0.0
  endloop
endfacet
facet normal 0.0 0.0 -1.0
  outer loop
    vertex 20.000000000000007 3.1724622928663847e-15 5.639932965095795e-15
    vertex 8.500000000000007 7.401923788646689 0.0
    vertex 9.223542864692444 7.102222521132797 0.0
  endloop
endfacet
facet normal 0.0 0.0 -1.0
  outer loop
    vertex 20.000000000000007 3.1724622928663847e-15 5.639932965095795e-15
    vertex 9.223542864692444 7.102222521132797 0.0
    vertex 10.000000000000007 7.000000000000007 0.0
  endloop
endfacet
facet normal 0.0 0.0 -1.0
  outer loop
    vertex 20.000000000000007 3.1724622928663847e-15 5.639932965095795e-15
    vertex 10.000000000000007 7.000000000000007 0.0
    vertex 10.77645713530757 7.102222521132797 0.0
  endloop
endfacet
facet normal 0.0 0.0 -1.0
  outer loop
    vertex 20.000000000000007 3.1724622928663847e-15 5.639932965095795e-15
    vertex 10.77645713530757 7.102222521132797 0.0
    vertex 11.500000000000007 7.401923788646689 0.0
  endloop
endfacet
facet normal 0.0 0.0 -1.0
  outer loop
    vertex 20.000000000000007 3.1724622928663847e-15 5.639932965095795e-15
    vertex 11.500000000000007 7.401923788646689 0.0
    vertex 12.121320343559649 7.878679656440365 0.0
  endloop
endfacet
facet normal 0.0 0.0 -1.0
  outer loop
    vertex 20.000000000000007 3.1724622928663847e-15 5.639932965095795e-15
    vertex 12.121320343559649 7.878679656440365 0.0
    vertex 12.598076211353321 8.500000000000004 0.0
  endloop
endfacet
facet normal 0.0 0.0 -1.0
  outer loop
    vertex 20.000000000000007 3.1724622928663847e-15 5.639932965095795e-15
    vertex 12.598076211353321 8.500000000000004 0.0
    vertex 12.897777478867209 9.223542864692444 0.0
  endloop
endfacet
facet normal 0.0 0.0 -1.0
  outer loop
    vertex 20.000000000000007 3.1724622928663847e-15 5.639932965095795e-15
    vertex 12.897777478867209 9.223542864692444 0.0
    vertex 13.000000000000004 10.000000000000002 0.0
  endloop
endfacet
facet normal 0.0 0.0 -1.0
  outer loop
    vertex 20.000000000000007 3.1724622928663847e-15 5.639932965095795e-15
    vertex 13.000000000000004 10.000000000000002 0.0
    vertex 20.000000000000007 20.000000000000007 5.639932965095795e-15
  endloop
endfacet
facet normal 1.0 0.0 0.0
  outer loop
    vertex 20.000000000000007 20.000000000000007 5.639932965095795e-15
    vertex 20.000000000000007 3.24943580084999e-15 17.000000000000007
    vertex 20.000000000000007 3.1724622928663847e-15 5.639932965095795e-15
  endloop
endfacet
facet normal 1.0 0.0 0.0
  outer loop
    vertex 20.000000000000007 3.24943580084999e-15 17.000000000000007
    vertex 20.000000000000007 20.000000000000007 5.639932965095795e-15
    vertex 20.000000000000007 4.242640687119285 17.000000000000007
  endloop
endfacet
facet normal 1.0 0.0 0.0
  outer loop
    vertex 20.000000000000007 4.242640687119285 17.000000000000007
    vertex 20.000000000000007 20.000000000000007 5.639932965095795e-15
    vertex 20.000000000000007 4.242640687119285 20.000000000000007
  endloop
endfacet
facet normal 1.0 0.0 0.0
  outer loop
    vertex 20.000000000000007 4.242640687119285 20.000000000000007
    vertex 20.000000000000007 20.000000000000007 5.639932965095795e-15
    vertex 20.000000000000007 15.757359312880721 17.000000000000007
  endloop
endfacet
facet normal 1.0 0.0 0.0
  outer loop
    vertex 20.000000000000007 15.757359312880721 17.000000000000007
    vertex 20.000000000000007 20.000000000000007 5.639932965095795e-15
    vertex 20.000000000000007 20.000000000000007 17.000000000000007
  endloop
endfacet
facet normal 1.0 0.0 0.0
  outer loop
    vertex 20.000000000000007 15.757359312880721 20.000000000000007
    vertex 20.000000000000007 4.242640687119285 20.000000000000007
    vertex 20.000000000000007 15.757359312880721 17.000000000000007
  endloop
endfacet
facet normal 0.0 1.0 0.0
  outer loop
    vertex 3.000000000000005 3.000000000000003 17.000000000000007
    vertex 17.000000000000007 3.000000000000003 3.0000000000000058
    vertex 3.000000000000005 3.000000000000003 3.0000000000000058
  endloop
endfacet
facet normal 0.0 1.0 0.0
  outer loop
    vertex 17.000000000000007 3.000000000000003 3.0000000000000058
    vertex 3.000000000000005 3.000000000000003 17.000000000000007
    vertex 17.000000000000007 3.000000000000003 17.000000000000007
  endloop
endfacet
facet normal 0.0 1.0 0.0
  outer loop
    vertex 17.000000000000007 3.000000000000003 17.000000000000007
    vertex 3.000000000000005 3.000000000000003 17.000000000000007
    vertex 7.242640687119287 3.000000000000003 17.000000000000007
  endloop
endfacet
facet normal 0.0 1.0 0.0
  outer loop
    vertex 17.000000000000007 3.000000000000003 17.000000000000007
    vertex 7.242640687119287 3.000000000000003 17.000000000000007
    vertex 12.757359312880718 3.000000000000003 17.000000000000007
  endloop
endfacet
facet normal 0.4999999999999991 0.8660254037844393 3.64853846309372e-32
  outer loop
    vertex 8.500000000000007 7.401923788646689 3.0000000000000058
    vertex 9.223542864692444 7.102222521132797 0.0
    vertex 8.500000000000007 7.401923788646689 0.0
  endloop
endfacet
facet normal 0.25881904510252013 0.9659258262890684 3.7943480819070885e-32
  outer loop
    vertex 9.223542864692444 7.102222521132797 0.0
    vertex 8.500000000000007 7.401923788646689 3.0000000000000058
    vertex 9.223542864692444 7.102222521132797 3.0000000000000058
  endloop
endfacet
facet normal 0.0 0.0 1.0
  outer loop
    vertex 3.000000000000005 3.000000000000003 3.0000000000000058
    vertex 7.401923788646692 8.500000000000004 3.0000000000000058
    vertex 3.000000000000005 17.0 3.0000000000000058
  endloop
endfacet
facet normal 0.0 0.0 1.0
  outer loop
    vertex 7.401923788646692 8.500000000000004 3.0000000000000058
    vertex 3.000000000000005 3.000000000000003 3.0000000000000058
    vertex 7.878679656440365 7.878679656440359 3.0000000000000058
  endloop
endfacet
facet normal 0.0 0.0 1.0
  outer loop
    vertex 7.878679656440365 7.878679656440359 3.0000000000000058
    vertex 3.000000000000005 3.000000000000003 3.0000000000000058
    vertex 8.500000000000007 7.401923788646689 3.0000000000000058
  endloop
endfacet
facet normal 0.0 0.0 1.0
  outer loop
    vertex 8.500000000000007 7.401923788646689 3.0000000000000058
    vertex 3.000000000000005 3.000000000000003 3.0000000000000058
    vertex 17.000000000000007 3.000000000000003 3.0000000000000058
  endloop
endfacet
facet normal 0.0 0.0 1.0
  outer loop
    vertex 3.000000000000005 17.0 3.0000000000000058
    vertex 7.401923788646692 8.500000000000004 3.0000000000000058
    vertex 7.102222521132802 9.223542864692439 3.0000000000000058
  endloop
endfacet
facet normal 0.0 0.0 1.0
  outer loop
    vertex 3.000000000000005 17.0 3.0000000000000058
    vertex 7.102222521132802 9.223542864692439 3.0000000000000058
    vertex 7.000000000000007 10.000000000000002 3.0000000000000058
  endloop
endfacet
facet normal 0.0 0.0 1.0
  outer loop
    vertex 8.500000000000007 7.401923788646689 3.0000000000000058
    vertex 17.000000000000007 3.000000000000003 3.0000000000000058
    vertex 9.223542864692444 7.102222521132797 3.0000000000000058
  endloop
endfacet
facet normal 0.0 0.0 1.0
  outer loop
    vertex 9.223542864692444 7.102222521132797 3.0000000000000058
    vertex 17.000000000000007 3.000000000000003 3.0000000000000058
    vertex 10.000000000000007 7.000000000000007 3.0000000000000058
  endloop
endfacet
facet normal 0.0 0.0 1.0
  outer loop
    vertex 10.000000000000007 7.000000000000007 3.0000000000000058
    vertex 17.000000000000007 3.000000000000003 3.0000000000000058
    vertex 10.77645713530757 7.102222521132797 3.0000000000000058
  endloop
endfacet
facet normal 0.0 0.0 1.0
  outer loop
    vertex 10.77645713530757 7.102222521132797 3.0000000000000058
    vertex 17.000000000000007 3.000000000000003 3.0000000000000058
    vertex 11.500000000000007 7.401923788646689 3.0000000000000058
  endloop
endfacet
facet normal 0.0 0.0 1.0
  outer loop
    vertex 11.500000000000007 7.401923788646689 3.0000000000000058
    vertex 17.000000000000007 3.000000000000003 3.0000000000000058
    vertex 12.121320343559649 7.878679656440365 3.0000000000000058
  endloop
endfacet
facet normal 0.0 0.0 1.0
  outer loop
    vertex 12.121320343559649 7.878679656440365 3.0000000000000058
    vertex 17.000000000000007 3.000000000000003 3.0000000000000058
    vertex 12.598076211353321 8.500000000000004 3.0000000000000058
  endloop
endfacet
facet normal 0.0 0.0 1.0
  outer loop
    vertex 12.598076211353321 8.500000000000004 3.0000000000000058
    vertex 17.000000000000007 3.000000000000003 3.0000000000000058
    vertex 12.897777478867209 9.223542864692444 3.0000000000000058
  endloop
endfacet
facet normal 0.0 0.0 1.0
  outer loop
    vertex 12.897777478867209 9.223542864692444 3.0000000000000058
    vertex 17.000000000000007 3.000000000000003 3.0000000000000058
    vertex 13.000000000000004 10.000000000000002 3.0000000000000058
  endloop
endfacet
facet normal 0.0 0.0 1.0
  outer loop
    vertex 3.000000000000005 17.0 3.0000000000000058
    vertex 8.500000000000004 12.598076211353312 3.0000000000000058
    vertex 17.000000000000007 17.0 3.0000000000000058
  endloop
endfacet
facet normal 0.0 0.0 1.0
  outer loop
    vertex 8.500000000000004 12.598076211353312 3.0000000000000058
    vertex 3.000000000000005 17.0 3.0000000000000058
    vertex 7.878679656440365 12.121320343559644 3.0000000000000058
  endloop
endfacet
facet normal 0.0 0.0 1.0
  outer loop
    vertex 7.878679656440365 12.121320343559644 3.0000000000000058
    vertex 3.000000000000005 17.0 3.0000000000000058
    vertex 7.401923788646689 11.499999999999998 3.0000000000000058
  endloop
endfacet
facet normal 0.0 0.0 1.0
  outer loop
    vertex 7.401923788646689 11.499999999999998 3.0000000000000058
    vertex 3.000000000000005 17.0 3.0000000000000058
    vertex 7.102222521132802 10.776457135307565 3.0000000000000058
  endloop
endfacet
facet normal 0.0 0.0 1.0
  outer loop
    vertex 7.102222521132802 10.776457135307565 3.0000000000000058
    vertex 3.000000000000005 17.0 3.0000000000000058
    vertex 7.000000000000007 10.000000000000002 3.0000000000000058
  endloop
endfacet
facet normal 0.0 0.0 1.0
  outer loop
    vertex 17.000000000000007 17.0 3.0000000000000058
    vertex 8.500000000000004 12.598076211353312 3.0000000000000058
    vertex 9.223542864692442 12.897777478867207 3.0000000000000058
  endloop
endfacet
facet normal 0.0 0.0 1.0
  outer loop
    vertex 17.000000000000007 17.0 3.0000000000000058
    vertex 9.223542864692442 12.897777478867207 3.0000000000000058
    vertex 10.000000000000007 13.000000000000002 3.0000000000000058
  endloop
endfacet
facet normal 0.0 0.0 1.0
  outer loop
    vertex 17.000000000000007 17.0 3.0000000000000058
    vertex 10.000000000000007 13.000000000000002 3.0000000000000058
    vertex 10.776457135307567 12.897777478867207 3.0000000000000058
  endloop
endfacet
facet normal 0.0 0.0 1.0
  outer loop
    vertex 17.000000000000007 17.0 3.0000000000000058
    vertex 10.776457135307567 12.897777478867207 3.0000000000000058
    vertex 11.500000000000004 12.59807621135332 3.0000000000000058
  endloop
endfacet
facet normal 0.0 0.0 1.0
  outer loop
    vertex 17.000000000000007 17.0 3.0000000000000058
    vertex 11.500000000000004 12.59807621135332 3.0000000000000058
    vertex 12.121320343559647 12.121320343559644 3.0000000000000058
  endloop
endfacet
facet normal 0.0 0.0 1.0
  outer loop
    vertex 17.000000000000007 17.0 3.0000000000000058
    vertex 12.121320343559647 12.121320343559644 3.0000000000000058
    vertex 12.598076211353321 11.500000000000004 3.0000000000000058
  endloop
endfacet
facet normal 0.0 0.0 1.0
  outer loop
    vertex 17.000000000000007 17.0 3.0000000000000058
    vertex 12.598076211353321 11.500000000000004 3.0000000000000058
    vertex 12.897777478867209 10.776457135307565 3.0000000000000058
  endloop
endfacet
facet normal 0.0 0.0 1.0
  outer loop
    vertex 17.000000000000007 17.0 3.0000000000000058
    vertex 12.897777478867209 10.776457135307565 3.0000000000000058
    vertex 13.000000000000004 10.000000000000002 3.0000000000000058
  endloop
endfacet
facet normal 0.0 0.0 1.0
  outer loop
    vertex 17.000000000000007 17.0 3.0000000000000058
    vertex 13.000000000000004 10.000000000000002 3.0000000000000058
    vertex 17.000000000000007 3.000000000000003 3.0000000000000058
  endloop
endfacet
facet normal -1.0 1.0693331874776287e-16 -9.203947873487919e-33
  outer loop
    vertex 13.000000000000004 10.000000000000002 3.0000000000000058
    vertex 12.897777478867209 9.223542864692444 0.0
    vertex 12.897777478867209 9.223542864692444 3.0000000000000058
  endloop
endfacet
facet normal -0.9659258262890682 0.2588190451025209 6.382970443377578e-34
  outer loop
    vertex 12.897777478867209 9.223542864692444 0.0
    vertex 13.000000000000004 10.000000000000002 3.0000000000000058
    vertex 13.000000000000004 10.000000000000002 0.0
  endloop
endfacet
facet normal 1.0 0.0 0.0
  outer loop
    vertex 3.000000000000005 17.0 3.0000000000000058
    vertex 3.000000000000005 3.000000000000003 17.000000000000007
    vertex 3.000000000000005 3.000000000000003 3.0000000000000058
  endloop
endfacet
facet normal 1.0 0.0 0.0
  outer loop
    vertex 3.000000000000005 3.000000000000003 17.000000000000007
    vertex 3.000000000000005 17.0 3.0000000000000058
    vertex 3.000000000000005 7.242640687119287 17.000000000000007
  endloop
endfacet
facet normal 1.0 0.0 0.0
  outer loop
    vertex 3.000000000000005 7.242640687119287 17.000000000000007
    vertex 3.000000000000005 17.0 3.0000000000000058
    vertex 3.000000000000005 12.757359312880716 17.000000000000007
  endloop
endfacet
facet normal 1.0 0.0 0.0
  outer loop
    vertex 3.000000000000005 12.757359312880716 17.000000000000007
    vertex 3.000000000000005 17.0 3.0000000000000058
    vertex 3.000000000000005 17.0 17.000000000000007
  endloop
endfacet
facet normal -0.9659258262890682 0.2588190451025209 6.382970443377578e-34
  outer loop
    vertex 12.897777478867209 9.223542864692444 3.0000000000000058
    vertex 12.598076211353321 8.500000000000004 0.0
    vertex 12.598076211353321 8.500000000000004 3.0000000000000058
  endloop
endfacet
facet normal -0.8660254037844388 0.4999999999999998 1.0437043073427538e-32
  outer loop
    vertex 12.598076211353321 8.500000000000004 0.0
    vertex 12.897777478867209 9.223542864692444 3.0000000000000058
    vertex 12.897777478867209 9.223542864692444 0.0
  endloop
endfacet
facet normal -1.0 0.0 0.0
  outer loop
    vertex 17.000000000000007 7.242640687119287 17.000000000000007
    vertex 17.000000000000007 3.000000000000003 3.0000000000000058
    vertex 17.000000000000007 3.000000000000003 17.000000000000007
  endloop
endfacet
facet normal -1.0 0.0 0.0
  outer loop
    vertex 17.000000000000007 3.000000000000003 3.0000000000000058
    vertex 17.000000000000007 7.242640687119287 17.000000000000007
    vertex 17.000000000000007 17.0 3.0000000000000058
  endloop
endfacet
facet normal -1.0 0.0 0.0
  outer loop
    vertex 17.000000000000007 17.0 3.0000000000000058
    vertex 17.000000000000007 7.242640687119287 17.000000000000007
    vertex 17.000000000000007 12.757359312880721 17.000000000000007
  endloop
endfacet
facet normal -1.0 0.0 0.0
  outer loop
    vertex 17.000000000000007 17.0 3.0000000000000058
    vertex 17.000000000000007 12.757359312880721 17.000000000000007
    vertex 17.000000000000007 17.0 17.000000000000007
  endloop
endfacet
facet normal -0.5000000000000004 0.8660254037844384 2.7281436757449257e-32
  outer loop
    vertex 11.500000000000007 7.401923788646689 3.0000000000000058
    vertex 12.121320343559649 7.878679656440365 0.0
    vertex 11.500000000000007 7.401923788646689 0.0
  endloop
endfacet
facet normal -0.6087614290087213 0.7933533402912346 2.360492269720592e-32
  outer loop
    vertex 12.121320343559649 7.878679656440365 0.0
    vertex 11.500000000000007 7.401923788646689 3.0000000000000058
    vertex 12.121320343559649 7.878679656440365 3.0000000000000058
  endloop
endfacet
facet normal -0.7933533402912346 -0.6087614290087213 -2.9714016629243223e-32
  outer loop
    vertex 12.121320343559647 12.121320343559644 3.0000000000000058
    vertex 12.598076211353321 11.500000000000004 0.0
    vertex 12.598076211353321 11.500000000000004 3.0000000000000058
  endloop
endfacet
facet normal -0.8660254037844384 -0.5000000000000004 -2.6378748420524173e-32
  outer loop
    vertex 12.598076211353321 11.500000000000004 0.0
    vertex 12.121320343559647 12.121320343559644 3.0000000000000058
    vertex 12.121320343559647 12.121320343559644 0.0
  endloop
endfacet
facet normal -0.9659258262890684 -0.25881904510252085 -1.8418958953978426e-32
  outer loop
    vertex 12.897777478867209 10.776457135307565 3.0000000000000058
    vertex 13.000000000000004 10.000000000000002 0.0
    vertex 13.000000000000004 10.000000000000002 3.0000000000000058
  endloop
endfacet
facet normal -1.0 1.0693331874776287e-16 -9.203947873487919e-33
  outer loop
    vertex 13.000000000000004 10.000000000000002 0.0
    vertex 12.897777478867209 10.776457135307565 3.0000000000000058
    vertex 12.897777478867209 10.776457135307565 0.0
  endloop
endfacet
facet normal 1.0 -2.2277774739117265e-16 9.203947873487915e-33
  outer loop
    vertex 7.000000000000007 10.000000000000002 0.0
    vertex 7.102222521132802 9.223542864692439 3.0000000000000058
    vertex 7.102222521132802 9.223542864692439 0.0
  endloop
endfacet
facet normal 0.9659258262890681 0.2588190451025215 1.8418958953978448e-32
  outer loop
    vertex 7.102222521132802 9.223542864692439 3.0000000000000058
    vertex 7.000000000000007 10.000000000000002 0.0
    vertex 7.000000000000007 10.000000000000002 3.0000000000000058
  endloop
endfacet
facet normal -0.6087614290087202 -0.7933533402912355 -3.4810939617178524e-32
  outer loop
    vertex 12.121320343559647 12.121320343559644 3.0000000000000058
    vertex 11.500000000000004 12.59807621135332 0.0
    vertex 12.121320343559647 12.121320343559644 0.0
  endloop
endfacet
facet normal -0.4999999999999998 -0.8660254037844388 -3.6485384630937195e-32
  outer loop
    vertex 11.500000000000004 12.59807621135332 0.0
    vertex 12.121320343559647 12.121320343559644 3.0000000000000058
    vertex 11.500000000000004 12.59807621135332 3.0000000000000058
  endloop
endfacet
facet normal 0.8660254037844389 -0.49999999999999956 -1.0437043073427528e-32
  outer loop
    vertex 7.401923788646689 11.499999999999998 0.0
    vertex 7.102222521132802 10.776457135307565 3.0000000000000058
    vertex 7.102222521132802 10.776457135307565 0.0
  endloop
endfacet
facet normal 0.9659258262890684 -0.2588190451025204 -6.382970443377394e-34
  outer loop
    vertex 7.102222521132802 10.776457135307565 3.0000000000000058
    vertex 7.401923788646689 11.499999999999998 0.0
    vertex 7.401923788646689 11.499999999999998 3.0000000000000058
  endloop
endfacet
facet normal 0.6087614290087202 0.7933533402912355 3.4810939617178524e-32
  outer loop
    vertex 7.878679656440365 7.878679656440359 3.0000000000000058
    vertex 8.500000000000007 7.401923788646689 0.0
    vertex 7.878679656440365 7.878679656440359 0.0
  endloop
endfacet
facet normal 0.4999999999999991 0.8660254037844393 3.64853846309372e-32
  outer loop
    vertex 8.500000000000007 7.401923788646689 0.0
    vertex 7.878679656440365 7.878679656440359 3.0000000000000058
    vertex 8.500000000000007 7.401923788646689 3.0000000000000058
  endloop
endfacet
facet normal -2.2277774739117265e-16 -1.0 -3.681579149395172e-32
  outer loop
    vertex 10.000000000000007 13.000000000000002 3.0000000000000058
    vertex 9.223542864692442 12.897777478867207 0.0
    vertex 10.000000000000007 13.000000000000002 0.0
  endloop
endfacet
facet normal 0.2588190451025215 -0.9659258262890681 -3.3179166819491816e-32
  outer loop
    vertex 9.223542864692442 12.897777478867207 0.0
    vertex 10.000000000000007 13.000000000000002 3.0000000000000058
    vertex 9.223542864692442 12.897777478867207 3.0000000000000058
  endloop
endfacet
facet normal 1.0693331874776287e-16 1.0 3.681579149395172e-32
  outer loop
    vertex 10.000000000000007 7.000000000000007 3.0000000000000058
    vertex 10.77645713530757 7.102222521132797 0.0
    vertex 10.000000000000007 7.000000000000007 0.0
  endloop
endfacet
facet normal -0.25881904510252085 0.9659258262890684 3.317916681949183e-32
  outer loop
    vertex 10.77645713530757 7.102222521132797 0.0
    vertex 10.000000000000007 7.000000000000007 3.0000000000000058
    vertex 10.77645713530757 7.102222521132797 3.0000000000000058
  endloop
endfacet
facet normal -1.3056848779934356e-17 -1.0 -6.609296443471632e-17
  outer loop
    vertex 20.000000000000007 3.24943580084999e-15 17.000000000000007
    vertex 4.93494134445882e-15 3.1724622928663847e-15 5.639932965095795e-15
    vertex 20.000000000000007 3.1724622928663847e-15 5.639932965095795e-15
  endloop
endfacet
facet normal -1.3056848779934356e-17 -1.0 -6.609296443471632e-17
  outer loop
    vertex 4.93494134445882e-15 3.1724622928663847e-15 5.639932965095795e-15
    vertex 20.000000000000007 3.24943580084999e-15 17.000000000000007
    vertex 15.757359312880718 7.697350798360513e-17 17.000000000000004
  endloop
endfacet
facet normal -1.3056848779934356e-17 -1.0 -6.609296443471632e-17
  outer loop
    vertex 15.757359312880718 0.0 20.000000000000004
    vertex 4.242640687119285 1.1344609389390666e-15 17.000000000000007
    vertex 15.757359312880718 7.697350798360513e-17 17.000000000000004
  endloop
endfacet
facet normal -1.3056848779934356e-17 -1.0 -6.609296443471632e-17
  outer loop
    vertex 4.242640687119285 1.1344609389390666e-15 17.000000000000007
    vertex 15.757359312880718 0.0 20.000000000000004
    vertex 4.242640687119285 1.0574874309554614e-15 20.000000000000007
  endloop
endfacet
facet normal -1.3056848779934356e-17 -1.0 -6.609296443471632e-17
  outer loop
    vertex 15.757359312880718 7.697350798360513e-17 17.000000000000004
    vertex 5.011914852442426e-15 3.24943580084999e-15 17.000000000000007
    vertex 4.93494134445882e-15 3.1724622928663847e-15 5.639932965095795e-15
  endloop
endfacet
facet normal -1.3056848779934356e-17 -1.0 -6.609296443471632e-17
  outer loop
    vertex 5.011914852442426e-15 3.24943580084999e-15 17.000000000000007
    vertex 15.757359312880718 7.697350798360513e-17 17.000000000000004
    vertex 4.242640687119285 1.1344609389390666e-15 17.000000000000007
  endloop
endfacet
facet normal -1.0 -2.1761414633223947e-17 -1.0134254546656509e-16
  outer loop
    vertex 0.0 15.757359312880718 20.000000000000004
    vertex 1.839452559576041e-15 4.242640687119285 17.000000000000007
    vertex 1.762479051592436e-15 4.242640687119285 20.000000000000007
  endloop
endfacet
facet normal -1.0 -2.1761414633223947e-17 -1.0134254546656509e-16
  outer loop
    vertex 5.011914852442426e-15 3.24943580084999e-15 17.000000000000007
    vertex 4.93494134445882e-15 20.000000000000007 5.639932965095795e-15
    vertex 4.93494134445882e-15 3.1724622928663847e-15 5.639932965095795e-15
  endloop
endfacet
facet normal -1.0 -2.1761414633223947e-17 -1.0134254546656509e-16
  outer loop
    vertex 4.93494134445882e-15 20.000000000000007 5.639932965095795e-15
    vertex 5.011914852442426e-15 3.24943580084999e-15 17.000000000000007
    vertex 1.839452559576041e-15 4.242640687119285 17.000000000000007
  endloop
endfacet
facet normal -1.0 -2.1761414633223947e-17 -1.0134254546656509e-16
  outer loop
    vertex 4.93494134445882e-15 20.000000000000007 5.639932965095795e-15
    vertex 1.839452559576041e-15 4.242640687119285 17.000000000000007
    vertex 7.697350798360513e-17 15.757359312880718 17.000000000000004
  endloop
endfacet
facet normal -1.0 -2.1761414633223947e-17 -1.0134254546656509e-16
  outer loop
    vertex 7.697350798360513e-17 15.757359312880718 17.000000000000004
    vertex 1.839452559576041e-15 4.242640687119285 17.000000000000007
    vertex 0.0 15.757359312880718 20.000000000000004
  endloop
endfacet
facet normal -1.0 -2.1761414633223947e-17 -1.0134254546656509e-16
  outer loop
    vertex 4.93494134445882e-15 20.000000000000007 5.639932965095795e-15
    vertex 7.697350798360513e-17 15.757359312880718 17.000000000000004
    vertex 5.011914852442426e-15 20.000000000000007 17.000000000000007
  endloop
endfacet
facet normal 0.0 -1.0 0.0
  outer loop
    vertex 17.000000000000007 17.0 17.000000000000007
    vertex 3.000000000000005 17.0 3.0000000000000058
    vertex 17.000000000000007 17.0 3.0000000000000058
  endloop
endfacet
facet normal 0.0 -1.0 0.0
  outer loop
    vertex 3.000000000000005 17.0 3.0000000000000058
    vertex 17.000000000000007 17.0 17.000000000000007
    vertex 3.000000000000005 17.0 17.000000000000007
  endloop
endfacet
facet normal 0.0 -1.0 0.0
  outer loop
    vertex 3.000000000000005 17.0 17.000000000000007
    vertex 17.000000000000007 17.0 17.000000000000007
    vertex 12.757359312880718 17.0 17.000000000000007
  endloop
endfacet
facet normal 0.0 -1.0 0.0
  outer loop
    vertex 3.000000000000005 17.0 17.000000000000007
    vertex 12.757359312880718 17.0 17.000000000000007
    vertex 7.242640687119293 17.0 17.000000000000007
  endloop
endfacet
facet normal 0.9659258262890681 0.2588190451025215 1.8418958953978448e-32
  outer loop
    vertex 7.102222521132802 9.223542864692439 0.0
    vertex 7.401923788646692 8.500000000000004 3.0000000000000058
    vertex 7.401923788646692 8.500000000000004 0.0
  endloop
endfacet
facet normal 0.8660254037844384 0.5000000000000004 2.6378748420524173e-32
  outer loop
    vertex 7.401923788646692 8.500000000000004 3.0000000000000058
    vertex 7.102222521132802 9.223542864692439 0.0
    vertex 7.102222521132802 9.223542864692439 3.0000000000000058
  endloop
endfacet
facet normal 0.8660254037844384 0.5000000000000004 2.6378748420524173e-32
  outer loop
    vertex 7.401923788646692 8.500000000000004 0.0
    vertex 7.878679656440365 7.878679656440359 3.0000000000000058
    vertex 7.878679656440365 7.878679656440359 0.0
  endloop
endfacet
facet normal 0.7933533402912355 0.6087614290087202 2.971401662924319e-32
  outer loop
    vertex 7.878679656440365 7.878679656440359 3.0000000000000058
    vertex 7.401923788646692 8.500000000000004 0.0
    vertex 7.401923788646692 8.500000000000004 3.0000000000000058
  endloop
endfacet
facet normal -4.601042551162174e-33 1.0 7.049916206369744e-17
  outer loop
    vertex 4.242640687119285 20.000000000000004 17.000000000000007
    vertex 15.757359312880721 20.000000000000004 17.000000000000007
    vertex 5.011914852442426e-15 20.000000000000007 17.000000000000007
  endloop
endfacet
facet normal -4.601042551162174e-33 1.0 7.049916206369744e-17
  outer loop
    vertex 15.757359312880721 20.000000000000004 17.000000000000007
    vertex 4.242640687119285 20.000000000000004 17.000000000000007
    vertex 15.757359312880721 20.000000000000004 20.000000000000007
  endloop
endfacet
facet normal -4.601042551162174e-33 1.0 7.049916206369744e-17
  outer loop
    vertex 15.757359312880721 20.000000000000004 20.000000000000007
    vertex 4.242640687119285 20.000000000000004 17.000000000000007
    vertex 4.242640687119285 20.000000000000004 20.000000000000007
  endloop
endfacet
facet normal -4.601042551162174e-33 1.0 7.049916206369744e-17
  outer loop
    vertex 5.011914852442426e-15 20.000000000000007 17.000000000000007
    vertex 20.000000000000007 20.000000000000007 5.639932965095795e-15
    vertex 4.93494134445882e-15 20.000000000000007 5.639932965095795e-15
  endloop
endfacet
facet normal -4.601042551162174e-33 1.0 7.049916206369744e-17
  outer loop
    vertex 20.000000000000007 20.000000000000007 5.639932965095795e-15
    vertex 5.011914852442426e-15 20.000000000000007 17.000000000000007
    vertex 20.000000000000007 20.000000000000007 17.000000000000007
  endloop
endfacet
facet normal -4.601042551162174e-33 1.0 7.049916206369744e-17
  outer loop
    vertex 20.000000000000007 20.000000000000007 17.000000000000007
    vertex 5.011914852442426e-15 20.000000000000007 17.000000000000007
    vertex 15.757359312880721 20.000000000000004 17.000000000000007
  endloop
endfacet
facet normal -0.8660254037844388 0.4999999999999998 1.0437043073427538e-32
  outer loop
    vertex 12.598076211353321 8.500000000000004 3.0000000000000058
    vertex 12.121320343559649 7.878679656440365 0.0
    vertex 12.121320343559649 7.878679656440365 3.0000000000000058
  endloop
endfacet
facet normal -0.7933533402912355 0.6087614290087202 1.5110051050647068e-32
  outer loop
    vertex 12.121320343559649 7.878679656440365 0.0
    vertex 12.598076211353321 8.500000000000004 3.0000000000000058
    vertex 12.598076211353321 8.500000000000004 0.0
  endloop
endfacet
facet normal -0.25881904510252085 0.9659258262890684 3.317916681949183e-32
  outer loop
    vertex 10.77645713530757 7.102222521132797 3.0000000000000058
    vertex 11.500000000000007 7.401923788646689 0.0
    vertex 10.77645713530757 7.102222521132797 0.0
  endloop
endfacet
facet normal -0.5000000000000004 0.8660254037844384 2.7281436757449257e-32
  outer loop
    vertex 11.500000000000007 7.401923788646689 0.0
    vertex 10.77645713530757 7.102222521132797 3.0000000000000058
    vertex 11.500000000000007 7.401923788646689 3.0000000000000058
  endloop
endfacet
facet normal 0.2588190451025215 -0.9659258262890681 -3.3179166819491816e-32
  outer loop
    vertex 9.223542864692442 12.897777478867207 3.0000000000000058
    vertex 8.500000000000004 12.598076211353312 0.0
    vertex 9.223542864692442 12.897777478867207 0.0
  endloop
endfacet
facet normal 0.500000000000001 -0.8660254037844383 -2.728143675744924e-32
  outer loop
    vertex 8.500000000000004 12.598076211353312 0.0
    vertex 9.223542864692442 12.897777478867207 3.0000000000000058
    vertex 8.500000000000004 12.598076211353312 3.0000000000000058
  endloop
endfacet
facet normal -0.2588190451025209 -0.9659258262890682 -3.794348081907087e-32
  outer loop
    vertex 10.776457135307567 12.897777478867207 3.0000000000000058
    vertex 10.000000000000007 13.000000000000002 0.0
    vertex 10.776457135307567 12.897777478867207 0.0
  endloop
endfacet
facet normal -2.2277774739117265e-16 -1.0 -3.681579149395172e-32
  outer loop
    vertex 10.000000000000007 13.000000000000002 0.0
    vertex 10.776457135307567 12.897777478867207 3.0000000000000058
    vertex 10.000000000000007 13.000000000000002 3.0000000000000058
  endloop
endfacet
facet normal 0.25881904510252013 0.9659258262890684 3.7943480819070885e-32
  outer loop
    vertex 9.223542864692444 7.102222521132797 3.0000000000000058
    vertex 10.000000000000007 7.000000000000007 0.0
    vertex 9.223542864692444 7.102222521132797 0.0
  endloop
endfacet
facet normal 1.0693331874776287e-16 1.0 3.681579149395172e-32
  outer loop
    vertex 10.000000000000007 7.000000000000007 0.0
    vertex 9.223542864692444 7.102222521132797 3.0000000000000058
    vertex 10.000000000000007 7.000000000000007 3.0000000000000058
  endloop
endfacet
facet normal 0.9659258262890684 -0.2588190451025204 -6.382970443377394e-34
  outer loop
    vertex 7.102222521132802 10.776457135307565 0.0
    vertex 7.000000000000007 10.000000000000002 3.0000000000000058
    vertex 7.000000000000007 10.000000000000002 0.0
  endloop
endfacet
facet normal 1.0 -2.2277774739117265e-16 9.203947873487915e-33
  outer loop
    vertex 7.000000000000007 10.000000000000002 3.0000000000000058
    vertex 7.102222521132802 10.776457135307565 0.0
    vertex 7.102222521132802 10.776457135307565 3.0000000000000058
  endloop
endfacet
facet normal -0.7071067811865476 0.7071067811865476 3.620133183603314e-17
  outer loop
    vertex 10.000000000000004 5.75735931288072 20.000000000000007
    vertex 4.242640687119285 1.1344609389390666e-15 17.000000000000007
    vertex 4.242640687119285 1.0574874309554614e-15 20.000000000000007
  endloop
endfacet
facet normal -0.7071067811865476 0.7071067811865476 3.620133183603314e-17
  outer loop
    vertex 4.242640687119285 1.1344609389390666e-15 17.000000000000007
    vertex 10.000000000000004 5.75735931288072 20.000000000000007
    vertex 7.242640687119287 3.000000000000003 17.000000000000007
  endloop
endfacet
facet normal -0.7071067811865476 0.7071067811865476 3.620133183603314e-17
  outer loop
    vertex 7.242640687119287 3.000000000000003 17.000000000000007
    vertex 10.000000000000004 5.75735931288072 20.000000000000007
    vertex 10.000000000000004 5.75735931288072 17.000000000000007
  endloop
endfacet
facet normal 0.7071067811865479 0.7071067811865472 2.6454819418639605e-17
  outer loop
    vertex 15.757359312880718 7.697350798360513e-17 17.000000000000004
    vertex 10.000000000000004 5.75735931288072 20.000000000000007
    vertex 15.757359312880718 0.0 20.000000000000004
  endloop
endfacet
facet normal 0.7071067811865479 0.7071067811865472 2.6454819418639605e-17
  outer loop
    vertex 10.000000000000004 5.75735931288072 20.000000000000007
    vertex 15.757359312880718 7.697350798360513e-17 17.000000000000004
    vertex 12.757359312880718 3.000000000000003 17.000000000000007
  endloop
endfacet
facet normal 0.7071067811865479 0.7071067811865472 2.6454819418639605e-17
  outer loop
    vertex 10.000000000000004 5.75735931288072 20.000000000000007
    vertex 12.757359312880718 3.000000000000003 17.000000000000007
    vertex 10.000000000000004 5.75735931288072 17.000000000000007
  endloop
endfacet
facet normal -0.7071067811865477 -0.7071067811865474 -6.822558692175472e-17
  outer loop
    vertex 14.24264068711929 10.000000000000004 20.000000000000007
    vertex 20.000000000000007 4.242640687119285 17.000000000000007
    vertex 20.000000000000007 4.242640687119285 20.000000000000007
  endloop
endfacet
facet normal -0.7071067811865477 -0.7071067811865474 -6.822558692175472e-17
  outer loop
    vertex 20.000000000000007 4.242640687119285 17.000000000000007
    vertex 14.24264068711929 10.000000000000004 20.000000000000007
    vertex 17.000000000000007 7.242640687119287 17.000000000000007
  endloop
endfacet
facet normal -0.7071067811865477 -0.7071067811865474 -6.822558692175472e-17
  outer loop
    vertex 17.000000000000007 7.242640687119287 17.000000000000007
    vertex 14.24264068711929 10.000000000000004 20.000000000000007
    vertex 14.24264068711929 10.000000000000004 17.000000000000007
  endloop
endfacet
facet normal -0.7071067811865476 0.7071067811865476 0.0
  outer loop
    vertex 20.000000000000007 15.757359312880721 20.000000000000007
    vertex 14.24264068711929 10.000000000000004 17.000000000000007
    vertex 14.24264068711929 10.000000000000004 20.000000000000007
  endloop
endfacet
facet normal -0.7071067811865476 0.7071067811865476 0.0
  outer loop
    vertex 14.24264068711929 10.000000000000004 17.000000000000007
    vertex 20.000000000000007 15.757359312880721 20.000000000000007
    vertex 17.000000000000007 12.757359312880721 17.000000000000007
  endloop
endfacet
facet normal -0.7071067811865476 0.7071067811865476 0.0
  outer loop
    vertex 17.000000000000007 12.757359312880721 17.000000000000007
    vertex 20.000000000000007 15.757359312880721 20.000000000000007
    vertex 20.000000000000007 15.757359312880721 17.000000000000007
  endloop
endfacet
facet normal 0.7071067811865476 -0.7071067811865476 0.0
  outer loop
    vertex 12.757359312880718 17.0 17.000000000000007
    vertex 10.000000000000007 14.24264068711929 20.000000000000007
    vertex 10.000000000000007 14.24264068711929 17.000000000000007
  endloop
endfacet
facet normal 0.7071067811865476 -0.7071067811865476 0.0
  outer loop
    vertex 10.000000000000007 14.24264068711929 20.000000000000007
    vertex 12.757359312880718 17.0 17.000000000000007
    vertex 15.757359312880721 20.000000000000004 20.000000000000007
  endloop
endfacet
facet normal 0.7071067811865476 -0.7071067811865476 0.0
  outer loop
    vertex 15.757359312880721 20.000000000000004 20.000000000000007
    vertex 12.757359312880718 17.0 17.000000000000007
    vertex 15.757359312880721 20.000000000000004 17.000000000000007
  endloop
endfacet
facet normal -0.7071067811865471 -0.7071067811865479 -9.74651241739353e-17
  outer loop
    vertex 10.000000000000007 14.24264068711929 20.000000000000007
    vertex 7.242640687119293 17.0 17.000000000000007
    vertex 10.000000000000007 14.24264068711929 17.000000000000007
  endloop
endfacet
facet normal -0.7071067811865471 -0.7071067811865479 -9.74651241739353e-17
  outer loop
    vertex 7.242640687119293 17.0 17.000000000000007
    vertex 10.000000000000007 14.24264068711929 20.000000000000007
    vertex 4.242640687119285 20.000000000000004 17.000000000000007
  endloop
endfacet
facet normal -0.7071067811865471 -0.7071067811865479 -9.74651241739353e-17
  outer loop
    vertex 4.242640687119285 20.000000000000004 17.000000000000007
    vertex 10.000000000000007 14.24264068711929 20.000000000000007
    vertex 4.242640687119285 20.000000000000004 20.000000000000007
  endloop
endfacet
facet normal 0.7071067811865475 0.7071067811865477 -4.177076750311516e-18
  outer loop
    vertex 0.0 15.757359312880718 20.000000000000004
    vertex 3.000000000000005 12.757359312880716 17.000000000000007
    vertex 7.697350798360513e-17 15.757359312880718 17.000000000000004
  endloop
endfacet
facet normal 0.7071067811865475 0.7071067811865477 -4.177076750311516e-18
  outer loop
    vertex 3.000000000000005 12.757359312880716 17.000000000000007
    vertex 0.0 15.757359312880718 20.000000000000004
    vertex 5.757359312880719 10.000000000000002 17.000000000000007
  endloop
endfacet
facet normal 0.7071067811865475 0.7071067811865477 -4.177076750311516e-18
  outer loop
    vertex 5.757359312880719 10.000000000000002 17.000000000000007
    vertex 0.0 15.757359312880718 20.000000000000004
    vertex 5.757359312880719 10.000000000000002 20.000000000000007
  endloop
endfacet
facet normal 0.7071067811865475 -0.7071067811865477 3.480897291926265e-17
  outer loop
    vertex 5.757359312880719 10.000000000000002 20.000000000000007
    vertex 3.000000000000005 7.242640687119287 17.000000000000007
    vertex 5.757359312880719 10.000000000000002 17.000000000000007
  endloop
endfacet
facet normal 0.7071067811865475 -0.7071067811865477 3.480897291926265e-17
  outer loop
    vertex 3.000000000000005 7.242640687119287 17.000000000000007
    vertex 5.757359312880719 10.000000000000002 20.000000000000007
    vertex 1.839452559576041e-15 4.242640687119285 17.000000000000007
  endloop
endfacet
facet normal 0.7071067811865475 -0.7071067811865477 3.480897291926265e-17
  outer loop
    vertex 1.839452559576041e-15 4.242640687119285 17.000000000000007
    vertex 5.757359312880719 10.000000000000002 20.000000000000007
    vertex 1.762479051592436e-15 4.242640687119285 20.000000000000007
  endloop
endfacet
facet normal -3.323362370880657e-16 -3.323362370880658e-16 1.0
  outer loop
    vertex 15.757359312880718 7.697350798360513e-17 17.000000000000004
    vertex 17.000000000000007 3.000000000000003 17.000000000000007
    vertex 12.757359312880718 3.000000000000003 17.000000000000007
  endloop
endfacet
facet normal -3.323362370880657e-16 -3.323362370880658e-16 1.0
  outer loop
    vertex 17.000000000000007 3.000000000000003 17.000000000000007
    vertex 15.757359312880718 7.697350798360513e-17 17.000000000000004
    vertex 20.000000000000007 3.24943580084999e-15 17.000000000000007
  endloop
endfacet
facet normal -3.323362370880657e-16 -3.323362370880658e-16 1.0
  outer loop
    vertex 17.000000000000007 3.000000000000003 17.000000000000007
    vertex 20.000000000000007 3.24943580084999e-15 17.000000000000007
    vertex 17.000000000000007 7.242640687119287 17.000000000000007
  endloop
endfacet
facet normal -3.323362370880657e-16 -3.323362370880658e-16 1.0
  outer loop
    vertex 17.000000000000007 7.242640687119287 17.000000000000007
    vertex 20.000000000000007 3.24943580084999e-15 17.000000000000007
    vertex 20.000000000000007 4.242640687119285 17.000000000000007
  endloop
endfacet
facet normal 0.0 0.0 1.0
  outer loop
    vertex 4.242640687119285 1.1344609389390666e-15 17.000000000000007
    vertex 3.000000000000005 3.000000000000003 17.000000000000007
    vertex 5.011914852442426e-15 3.24943580084999e-15 17.000000000000007
  endloop
endfacet
facet normal 0.0 0.0 1.0
  outer loop
    vertex 3.000000000000005 3.000000000000003 17.000000000000007
    vertex 4.242640687119285 1.1344609389390666e-15 17.000000000000007
    vertex 7.242640687119287 3.000000000000003 17.000000000000007
  endloop
endfacet
facet normal 0.0 0.0 1.0
  outer loop
    vertex 5.011914852442426e-15 3.24943580084999e-15 17.000000000000007
    vertex 3.000000000000005 7.242640687119287 17.000000000000007
    vertex 1.839452559576041e-15 4.242640687119285 17.000000000000007
  endloop
endfacet
facet normal 0.0 0.0 1.0
  outer loop
    vertex 3.000000000000005 7.242640687119287 17.000000000000007
    vertex 5.011914852442426e-15 3.24943580084999e-15 17.000000000000007
    vertex 3.000000000000005 3.000000000000003 17.000000000000007
  endloop
endfacet
facet normal 0.0 0.0 1.0
  outer loop
    vertex 20.000000000000007 15.757359312880721 17.000000000000007
    vertex 17.000000000000007 17.0 17.000000000000007
    vertex 17.000000000000007 12.757359312880721 17.000000000000007
  endloop
endfacet
facet normal 0.0 0.0 1.0
  outer loop
    vertex 17.000000000000007 17.0 17.000000000000007
    vertex 15.757359312880721 20.000000000000004 17.000000000000007
    vertex 12.757359312880718 17.0 17.000000000000007
  endloop
endfacet
facet normal 0.0 0.0 1.0
  outer loop
    vertex 15.757359312880721 20.000000000000004 17.000000000000007
    vertex 17.000000000000007 17.0 17.000000000000007
    vertex 20.000000000000007 20.000000000000007 17.000000000000007
  endloop
endfacet
facet normal 0.0 0.0 1.0
  outer loop
    vertex 20.000000000000007 20.000000000000007 17.000000000000007
    vertex 17.000000000000007 17.0 17.000000000000007
    vertex 20.000000000000007 15.757359312880721 17.000000000000007
  endloop
endfacet
facet normal -3.323362370880657e-16 -3.323362370880656e-16 1.0
  outer loop
    vertex 3.000000000000005 12.757359312880716 17.000000000000007
    vertex 5.011914852442426e-15 20.000000000000007 17.000000000000007
    vertex 7.697350798360513e-17 15.757359312880718 17.000000000000004
  endloop
endfacet
facet normal -3.323362370880657e-16 -3.323362370880656e-16 1.0
  outer loop
    vertex 5.011914852442426e-15 20.000000000000007 17.000000000000007
    vertex 3.000000000000005 12.757359312880716 17.000000000000007
    vertex 3.000000000000005 17.0 17.000000000000007
  endloop
endfacet
facet normal -3.323362370880657e-16 -3.323362370880656e-16 1.0
  outer loop
    vertex 5.011914852442426e-15 20.000000000000007 17.000000000000007
    vertex 3.000000000000005 17.0 17.000000000000007
    vertex 4.242640687119285 20.000000000000004 17.000000000000007
  endloop
endfacet
facet normal -3.323362370880657e-16 -3.323362370880656e-16 1.0
  outer loop
    vertex 4.242640687119285 20.000000000000004 17.000000000000007
    vertex 3.000000000000005 17.0 17.000000000000007
    vertex 7.242640687119293 17.0 17.000000000000007
  endloop
endfacet
endsolid PVA Test Object v2 - Outer
