solid PVA Test Object v1 - Inner
facet normal 0.0 0.0 1.0
  outer loop
    vertex 0.0 0.0 17.0
    vertex 4.401923788646684 5.499999999999998 17.0
    vertex 0.0 14.0 17.0
  endloop
endfacet
facet normal 0.0 0.0 1.0
  outer loop
    vertex 4.401923788646684 5.499999999999998 17.0
    vertex 0.0 0.0 17.0
    vertex 4.878679656440356 4.878679656440356 17.0
  endloop
endfacet
facet normal 0.0 0.0 1.0
  outer loop
    vertex 4.878679656440356 4.878679656440356 17.0
    vertex 0.0 0.0 17.0
    vertex 5.5 4.401923788646682 17.0
  endloop
endfacet
facet normal 0.0 0.0 1.0
  outer loop
    vertex 5.5 4.401923788646682 17.0
    vertex 0.0 0.0 17.0
    vertex 14.0 0.0 17.0
  endloop
endfacet
facet normal 0.0 0.0 1.0
  outer loop
    vertex 0.0 14.0 17.0
    vertex 4.401923788646684 5.499999999999998 17.0
    vertex 4.102222521132793 6.223542864692436 17.0
  endloop
endfacet
facet normal 0.0 0.0 1.0
  outer loop
    vertex 0.0 14.0 17.0
    vertex 4.102222521132793 6.223542864692436 17.0
    vertex 3.9999999999999982 6.999999999999998 17.0
  endloop
endfacet
facet normal 0.0 0.0 1.0
  outer loop
    vertex 5.5 4.401923788646682 17.0
    vertex 14.0 0.0 17.0
    vertex 6.223542864692439 4.102222521132793 17.0
  endloop
endfacet
facet normal 0.0 0.0 1.0
  outer loop
    vertex 6.223542864692439 4.102222521132793 17.0
    vertex 14.0 0.0 17.0
    vertex 7.0 3.9999999999999982 17.0
  endloop
endfacet
facet normal 0.0 0.0 1.0
  outer loop
    vertex 7.0 3.9999999999999982 17.0
    vertex 14.0 0.0 17.0
    vertex 7.776457135307564 4.102222521132793 17.0
  endloop
endfacet
facet normal 0.0 0.0 1.0
  outer loop
    vertex 7.776457135307564 4.102222521132793 17.0
    vertex 14.0 0.0 17.0
    vertex 8.500000000000002 4.401923788646682 17.0
  endloop
endfacet
facet normal 0.0 0.0 1.0
  outer loop
    vertex 8.500000000000002 4.401923788646682 17.0
    vertex 14.0 0.0 17.0
    vertex 9.121320343559644 4.878679656440356 17.0
  endloop
endfacet
facet normal 0.0 0.0 1.0
  outer loop
    vertex 9.121320343559644 4.878679656440356 17.0
    vertex 14.0 0.0 17.0
    vertex 9.598076211353318 5.5 17.0
  endloop
endfacet
facet normal 0.0 0.0 1.0
  outer loop
    vertex 9.598076211353318 5.5 17.0
    vertex 14.0 0.0 17.0
    vertex 9.897777478867207 6.223542864692437 17.0
  endloop
endfacet
facet normal 0.0 0.0 1.0
  outer loop
    vertex 9.897777478867207 6.223542864692437 17.0
    vertex 14.0 0.0 17.0
    vertex 10.000000000000002 7.0 17.0
  endloop
endfacet
facet normal 0.0 0.0 1.0
  outer loop
    vertex 0.0 14.0 17.0
    vertex 5.499999999999998 9.598076211353316 17.0
    vertex 14.0 14.0 17.0
  endloop
endfacet
facet normal 0.0 0.0 1.0
  outer loop
    vertex 5.499999999999998 9.598076211353316 17.0
    vertex 0.0 14.0 17.0
    vertex 4.878679656440356 9.121320343559644 17.0
  endloop
endfacet
facet normal 0.0 0.0 1.0
  outer loop
    vertex 4.878679656440356 9.121320343559644 17.0
    vertex 0.0 14.0 17.0
    vertex 4.401923788646681 8.499999999999998 17.0
  endloop
endfacet
facet normal 0.0 0.0 1.0
  outer loop
    vertex 4.401923788646681 8.499999999999998 17.0
    vertex 0.0 14.0 17.0
    vertex 4.102222521132793 7.776457135307561 17.0
  endloop
endfacet
facet normal 0.0 0.0 1.0
  outer loop
    vertex 4.102222521132793 7.776457135307561 17.0
    vertex 0.0 14.0 17.0
    vertex 3.9999999999999982 6.999999999999998 17.0
  endloop
endfacet
facet normal 0.0 0.0 1.0
  outer loop
    vertex 14.0 14.0 17.0
    vertex 5.499999999999998 9.598076211353316 17.0
    vertex 6.223542864692434 9.897777478867207 17.0
  endloop
endfacet
facet normal 0.0 0.0 1.0
  outer loop
    vertex 14.0 14.0 17.0
    vertex 6.223542864692434 9.897777478867207 17.0
    vertex 6.999999999999998 10.000000000000002 17.0
  endloop
endfacet
facet normal 0.0 0.0 1.0
  outer loop
    vertex 14.0 14.0 17.0
    vertex 6.999999999999998 10.000000000000002 17.0
    vertex 7.776457135307561 9.897777478867207 17.0
  endloop
endfacet
facet normal 0.0 0.0 1.0
  outer loop
    vertex 14.0 14.0 17.0
    vertex 7.776457135307561 9.897777478867207 17.0
    vertex 8.499999999999998 9.59807621135332 17.0
  endloop
endfacet
facet normal 0.0 0.0 1.0
  outer loop
    vertex 14.0 14.0 17.0
    vertex 8.499999999999998 9.59807621135332 17.0
    vertex 9.121320343559644 9.121320343559644 17.0
  endloop
endfacet
facet normal 0.0 0.0 1.0
  outer loop
    vertex 14.0 14.0 17.0
    vertex 9.121320343559644 9.121320343559644 17.0
    vertex 9.598076211353318 8.5 17.0
  endloop
endfacet
facet normal 0.0 0.0 1.0
  outer loop
    vertex 14.0 14.0 17.0
    vertex 9.598076211353318 8.5 17.0
    vertex 9.897777478867207 7.776457135307562 17.0
  endloop
endfacet
facet normal 0.0 0.0 1.0
  outer loop
    vertex 14.0 14.0 17.0
    vertex 9.897777478867207 7.776457135307562 17.0
    vertex 10.000000000000002 7.0 17.0
  endloop
endfacet
facet normal 0.0 0.0 1.0
  outer loop
    vertex 14.0 14.0 17.0
    vertex 10.000000000000002 7.0 17.0
    vertex 14.0 0.0 17.0
  endloop
endfacet
facet normal 0.0 0.0 -1.0
  outer loop
    vertex 0.0 14.0 3.0
    vertex 4.401923788646685 8.499999999999998 3.0
    vertex 0.0 0.0 3.0
  endloop
endfacet
facet normal 0.0 0.0 -1.0
  outer loop
    vertex 4.401923788646685 8.499999999999998 3.0
    vertex 0.0 14.0 3.0
    vertex 4.878679656440358 9.12132034355964 3.0
  endloop
endfacet
facet normal 0.0 0.0 -1.0
  outer loop
    vertex 4.878679656440358 9.12132034355964 3.0
    vertex 0.0 14.0 3.0
    vertex 5.500000000000001 9.598076211353314 3.0
  endloop
endfacet
facet normal 0.0 0.0 -1.0
  outer loop
    vertex 5.500000000000001 9.598076211353314 3.0
    vertex 0.0 14.0 3.0
    vertex 14.0 14.0 3.0
  endloop
endfacet
facet normal 0.0 0.0 -1.0
  outer loop
    vertex 0.0 0.0 3.0
    vertex 4.401923788646685 8.499999999999998 3.0
    vertex 4.102222521132797 7.776457135307561 3.0
  endloop
endfacet
facet normal 0.0 0.0 -1.0
  outer loop
    vertex 0.0 0.0 3.0
    vertex 4.102222521132797 7.776457135307561 3.0
    vertex 4.000000000000001 7.0 3.0
  endloop
endfacet
facet normal 0.0 0.0 -1.0
  outer loop
    vertex 5.500000000000001 9.598076211353314 3.0
    vertex 14.0 14.0 3.0
    vertex 6.223542864692439 9.897777478867203 3.0
  endloop
endfacet
facet normal 0.0 0.0 -1.0
  outer loop
    vertex 6.223542864692439 9.897777478867203 3.0
    vertex 14.0 14.0 3.0
    vertex 6.999999999999998 9.999999999999998 3.0
  endloop
endfacet
facet normal 0.0 0.0 -1.0
  outer loop
    vertex 6.999999999999998 9.999999999999998 3.0
    vertex 14.0 14.0 3.0
    vertex 7.776457135307561 9.897777478867203 3.0
  endloop
endfacet
facet normal 0.0 0.0 -1.0
  outer loop
    vertex 7.776457135307561 9.897777478867203 3.0
    vertex 14.0 14.0 3.0
    vertex 8.499999999999998 9.598076211353314 3.0
  endloop
endfacet
facet normal 0.0 0.0 -1.0
  outer loop
    vertex 8.499999999999998 9.598076211353314 3.0
    vertex 14.0 14.0 3.0
    vertex 9.12132034355964 9.121320343559642 3.0
  endloop
endfacet
facet normal 0.0 0.0 -1.0
  outer loop
    vertex 9.12132034355964 9.121320343559642 3.0
    vertex 14.0 14.0 3.0
    vertex 9.598076211353314 8.499999999999998 3.0
  endloop
endfacet
facet normal 0.0 0.0 -1.0
  outer loop
    vertex 9.598076211353314 8.499999999999998 3.0
    vertex 14.0 14.0 3.0
    vertex 9.897777478867203 7.776457135307562 3.0
  endloop
endfacet
facet normal 0.0 0.0 -1.0
  outer loop
    vertex 9.897777478867203 7.776457135307562 3.0
    vertex 14.0 14.0 3.0
    vertex 9.999999999999998 7.000000000000001 3.0
  endloop
endfacet
facet normal 0.0 0.0 -1.0
  outer loop
    vertex 0.0 0.0 3.0
    vertex 5.500000000000001 4.401923788646685 3.0
    vertex 14.0 0.0 3.0
  endloop
endfacet
facet normal 0.0 0.0 -1.0
  outer loop
    vertex 5.500000000000001 4.401923788646685 3.0
    vertex 0.0 0.0 3.0
    vertex 4.878679656440359 4.878679656440358 3.0
  endloop
endfacet
facet normal 0.0 0.0 -1.0
  outer loop
    vertex 4.878679656440359 4.878679656440358 3.0
    vertex 0.0 0.0 3.0
    vertex 4.401923788646685 5.500000000000001 3.0
  endloop
endfacet
facet normal 0.0 0.0 -1.0
  outer loop
    vertex 4.401923788646685 5.500000000000001 3.0
    vertex 0.0 0.0 3.0
    vertex 4.102222521132797 6.223542864692439 3.0
  endloop
endfacet
facet normal 0.0 0.0 -1.0
  outer loop
    vertex 4.102222521132797 6.223542864692439 3.0
    vertex 0.0 0.0 3.0
    vertex 4.000000000000001 7.0 3.0
  endloop
endfacet
facet normal 0.0 0.0 -1.0
  outer loop
    vertex 14.0 0.0 3.0
    vertex 5.500000000000001 4.401923788646685 3.0
    vertex 6.223542864692437 4.102222521132797 3.0
  endloop
endfacet
facet normal 0.0 0.0 -1.0
  outer loop
    vertex 14.0 0.0 3.0
    vertex 6.223542864692437 4.102222521132797 3.0
    vertex 7.0 4.000000000000001 3.0
  endloop
endfacet
facet normal 0.0 0.0 -1.0
  outer loop
    vertex 14.0 0.0 3.0
    vertex 7.0 4.000000000000001 3.0
    vertex 7.776457135307561 4.102222521132797 3.0
  endloop
endfacet
facet normal 0.0 0.0 -1.0
  outer loop
    vertex 14.0 0.0 3.0
    vertex 7.776457135307561 4.102222521132797 3.0
    vertex 8.499999999999998 4.401923788646684 3.0
  endloop
endfacet
facet normal 0.0 0.0 -1.0
  outer loop
    vertex 14.0 0.0 3.0
    vertex 8.499999999999998 4.401923788646684 3.0
    vertex 9.121320343559642 4.878679656440359 3.0
  endloop
endfacet
facet normal 0.0 0.0 -1.0
  outer loop
    vertex 14.0 0.0 3.0
    vertex 9.121320343559642 4.878679656440359 3.0
    vertex 9.598076211353314 5.500000000000001 3.0
  endloop
endfacet
facet normal 0.0 0.0 -1.0
  outer loop
    vertex 14.0 0.0 3.0
    vertex 9.598076211353314 5.500000000000001 3.0
    vertex 9.897777478867203 6.223542864692439 3.0
  endloop
endfacet
facet normal 0.0 0.0 -1.0
  outer loop
    vertex 14.0 0.0 3.0
    vertex 9.897777478867203 6.223542864692439 3.0
    vertex 9.999999999999998 7.000000000000001 3.0
  endloop
endfacet
facet normal 0.0 0.0 -1.0
  outer loop
    vertex 14.0 0.0 3.0
    vertex 9.999999999999998 7.000000000000001 3.0
    vertex 14.0 14.0 3.0
  endloop
endfacet
facet normal 0.0 1.0 0.0
  outer loop
    vertex 0.0 14.0 17.0
    vertex 14.0 14.0 3.0
    vertex 0.0 14.0 3.0
  endloop
endfacet
facet normal 0.0 1.0 0.0
  outer loop
    vertex 14.0 14.0 3.0
    vertex 0.0 14.0 17.0
    vertex 14.0 14.0 17.0
  endloop
endfacet
facet normal -0.0 -1.0 -0.0
  outer loop
    vertex 14.0 0.0 17.0
    vertex 0.0 0.0 3.0
    vertex 14.0 0.0 3.0
  endloop
endfacet
facet normal -0.0 -1.0 -0.0
  outer loop
    vertex 0.0 0.0 3.0
    vertex 14.0 0.0 17.0
    vertex 0.0 0.0 17.0
  endloop
endfacet
facet normal -1.0 0.0 0.0
  outer loop
    vertex 0.0 14.0 17.0
    vertex 0.0 0.0 3.0
    vertex 0.0 0.0 17.0
  endloop
endfacet
facet normal -1.0 0.0 0.0
  outer loop
    vertex 0.0 0.0 3.0
    vertex 0.0 14.0 17.0
    vertex 0.0 14.0 3.0
  endloop
endfacet
facet normal 1.0 0.0 0.0
  outer loop
    vertex 14.0 14.0 3.0
    vertex 14.0 0.0 17.0
    vertex 14.0 0.0 3.0
  endloop
endfacet
facet normal 1.0 0.0 0.0
  outer loop
    vertex 14.0 0.0 17.0
    vertex 14.0 14.0 3.0
    vertex 14.0 14.0 17.0
  endloop
endfacet
facet normal -1.0 0.0 1.7574065547009837e-48
  outer loop
    vertex 4.000000000000001 7.0 3.0
    vertex 4.102222521132797 6.223542864692439 0.0
    vertex 4.102222521132797 6.223542864692439 3.0
  endloop
endfacet
facet normal -0.9659258262890682 -0.2588190451025209 -9.528627999158091e-33
  outer loop
    vertex 4.102222521132797 6.223542864692439 0.0
    vertex 4.000000000000001 7.0 3.0
    vertex 4.000000000000001 7.0 0.0
  endloop
endfacet
facet normal 0.8660254037844388 -0.4999999999999998 -1.840789574697585e-32
  outer loop
    vertex 9.598076211353314 5.500000000000001 0.0
    vertex 9.121320343559642 4.878679656440359 3.0
    vertex 9.121320343559642 4.878679656440359 0.0
  endloop
endfacet
facet normal 0.7071067811865481 -0.707106781186547 -2.603269582012325e-32
  outer loop
    vertex 9.121320343559642 4.878679656440359 3.0
    vertex 9.598076211353314 5.500000000000001 0.0
    vertex 9.598076211353314 5.500000000000001 3.0
  endloop
endfacet
facet normal 0.8660254037844386 0.5000000000000002 1.840789574697586e-32
  outer loop
    vertex 9.598076211353314 8.499999999999998 0.0
    vertex 9.897777478867203 7.776457135307562 3.0
    vertex 9.897777478867203 7.776457135307562 0.0
  endloop
endfacet
facet normal 0.9659258262890682 0.2588190451025212 9.528627999158104e-33
  outer loop
    vertex 9.897777478867203 7.776457135307562 3.0
    vertex 9.598076211353314 8.499999999999998 0.0
    vertex 9.598076211353314 8.499999999999998 3.0
  endloop
endfacet
facet normal 0.4999999999999999 -0.8660254037844388 -3.188341069419323e-32
  outer loop
    vertex 8.499999999999998 4.401923788646684 3.0
    vertex 7.776457135307561 4.102222521132797 0.0
    vertex 8.499999999999998 4.401923788646684 0.0
  endloop
endfacet
facet normal 0.25881904510252013 -0.9659258262890684 -3.5561323819281364e-32
  outer loop
    vertex 7.776457135307561 4.102222521132797 0.0
    vertex 8.499999999999998 4.401923788646684 3.0
    vertex 7.776457135307561 4.102222521132797 3.0
  endloop
endfacet
facet normal -0.7071067811865477 0.7071067811865475 2.6032695820123265e-32
  outer loop
    vertex 4.878679656440358 9.12132034355964 3.0
    vertex 4.401923788646685 8.499999999999998 0.0
    vertex 4.401923788646685 8.499999999999998 3.0
  endloop
endfacet
facet normal -0.8660254037844388 0.4999999999999998 1.840789574697585e-32
  outer loop
    vertex 4.401923788646685 8.499999999999998 0.0
    vertex 4.878679656440358 9.12132034355964 3.0
    vertex 4.878679656440358 9.12132034355964 0.0
  endloop
endfacet
facet normal -2.28907132834372e-48 3.681579149395171e-32 -1.0
  outer loop
    vertex 4.102222521132797 7.776457135307561 0.0
    vertex 4.102222521132797 6.223542864692439 0.0
    vertex 4.000000000000001 7.0 0.0
  endloop
endfacet
facet normal -2.28907132834372e-48 3.681579149395171e-32 -1.0
  outer loop
    vertex 4.102222521132797 6.223542864692439 0.0
    vertex 4.102222521132797 7.776457135307561 0.0
    vertex 4.401923788646685 8.499999999999998 0.0
  endloop
endfacet
facet normal -2.28907132834372e-48 3.681579149395171e-32 -1.0
  outer loop
    vertex 4.102222521132797 6.223542864692439 0.0
    vertex 4.401923788646685 8.499999999999998 0.0
    vertex 4.401923788646685 5.500000000000001 0.0
  endloop
endfacet
facet normal -2.28907132834372e-48 3.681579149395171e-32 -1.0
  outer loop
    vertex 4.401923788646685 5.500000000000001 0.0
    vertex 4.401923788646685 8.499999999999998 0.0
    vertex 4.878679656440358 9.12132034355964 0.0
  endloop
endfacet
facet normal -2.28907132834372e-48 3.681579149395171e-32 -1.0
  outer loop
    vertex 4.401923788646685 5.500000000000001 0.0
    vertex 4.878679656440358 9.12132034355964 0.0
    vertex 4.878679656440359 4.878679656440358 0.0
  endloop
endfacet
facet normal -2.28907132834372e-48 3.681579149395171e-32 -1.0
  outer loop
    vertex 4.878679656440359 4.878679656440358 0.0
    vertex 4.878679656440358 9.12132034355964 0.0
    vertex 5.500000000000001 9.598076211353314 0.0
  endloop
endfacet
facet normal -2.28907132834372e-48 3.681579149395171e-32 -1.0
  outer loop
    vertex 4.878679656440359 4.878679656440358 0.0
    vertex 5.500000000000001 9.598076211353314 0.0
    vertex 5.500000000000001 4.401923788646685 0.0
  endloop
endfacet
facet normal -2.28907132834372e-48 3.681579149395171e-32 -1.0
  outer loop
    vertex 5.500000000000001 4.401923788646685 0.0
    vertex 5.500000000000001 9.598076211353314 0.0
    vertex 6.223542864692439 9.897777478867203 0.0
  endloop
endfacet
facet normal -2.28907132834372e-48 3.681579149395171e-32 -1.0
  outer loop
    vertex 5.500000000000001 4.401923788646685 0.0
    vertex 6.223542864692439 9.897777478867203 0.0
    vertex 6.223542864692437 4.102222521132797 0.0
  endloop
endfacet
facet normal -2.28907132834372e-48 3.681579149395171e-32 -1.0
  outer loop
    vertex 6.223542864692437 4.102222521132797 0.0
    vertex 6.223542864692439 9.897777478867203 0.0
    vertex 7.0 4.000000000000001 0.0
  endloop
endfacet
facet normal -2.28907132834372e-48 3.681579149395171e-32 -1.0
  outer loop
    vertex 7.0 4.000000000000001 0.0
    vertex 6.223542864692439 9.897777478867203 0.0
    vertex 6.999999999999998 9.999999999999998 0.0
  endloop
endfacet
facet normal -2.28907132834372e-48 3.681579149395171e-32 -1.0
  outer loop
    vertex 7.0 4.000000000000001 0.0
    vertex 6.999999999999998 9.999999999999998 0.0
    vertex 7.776457135307561 9.897777478867203 0.0
  endloop
endfacet
facet normal -2.28907132834372e-48 3.681579149395171e-32 -1.0
  outer loop
    vertex 7.0 4.000000000000001 0.0
    vertex 7.776457135307561 9.897777478867203 0.0
    vertex 7.776457135307561 4.102222521132797 0.0
  endloop
endfacet
facet normal -2.28907132834372e-48 3.681579149395171e-32 -1.0
  outer loop
    vertex 7.776457135307561 4.102222521132797 0.0
    vertex 7.776457135307561 9.897777478867203 0.0
    vertex 8.499999999999998 9.598076211353314 0.0
  endloop
endfacet
facet normal -2.28907132834372e-48 3.681579149395171e-32 -1.0
  outer loop
    vertex 7.776457135307561 4.102222521132797 0.0
    vertex 8.499999999999998 9.598076211353314 0.0
    vertex 8.499999999999998 4.401923788646684 0.0
  endloop
endfacet
facet normal -2.28907132834372e-48 3.681579149395171e-32 -1.0
  outer loop
    vertex 8.499999999999998 4.401923788646684 0.0
    vertex 8.499999999999998 9.598076211353314 0.0
    vertex 9.12132034355964 9.121320343559642 0.0
  endloop
endfacet
facet normal -2.28907132834372e-48 3.681579149395171e-32 -1.0
  outer loop
    vertex 8.499999999999998 4.401923788646684 0.0
    vertex 9.12132034355964 9.121320343559642 0.0
    vertex 9.121320343559642 4.878679656440359 0.0
  endloop
endfacet
facet normal -2.28907132834372e-48 3.681579149395171e-32 -1.0
  outer loop
    vertex 9.121320343559642 4.878679656440359 0.0
    vertex 9.12132034355964 9.121320343559642 0.0
    vertex 9.598076211353314 8.499999999999998 0.0
  endloop
endfacet
facet normal -2.28907132834372e-48 3.681579149395171e-32 -1.0
  outer loop
    vertex 9.121320343559642 4.878679656440359 0.0
    vertex 9.598076211353314 8.499999999999998 0.0
    vertex 9.598076211353314 5.500000000000001 0.0
  endloop
endfacet
facet normal -2.28907132834372e-48 3.681579149395171e-32 -1.0
  outer loop
    vertex 9.598076211353314 5.500000000000001 0.0
    vertex 9.598076211353314 8.499999999999998 0.0
    vertex 9.897777478867203 7.776457135307562 0.0
  endloop
endfacet
facet normal -2.28907132834372e-48 3.681579149395171e-32 -1.0
  outer loop
    vertex 9.598076211353314 5.500000000000001 0.0
    vertex 9.897777478867203 7.776457135307562 0.0
    vertex 9.897777478867203 6.223542864692439 0.0
  endloop
endfacet
facet normal -2.28907132834372e-48 3.681579149395171e-32 -1.0
  outer loop
    vertex 9.897777478867203 6.223542864692439 0.0
    vertex 9.897777478867203 7.776457135307562 0.0
    vertex 9.999999999999998 7.000000000000001 0.0
  endloop
endfacet
facet normal 0.25881904510252013 -0.9659258262890684 -3.5561323819281364e-32
  outer loop
    vertex 7.776457135307561 4.102222521132797 3.0
    vertex 7.0 4.000000000000001 0.0
    vertex 7.776457135307561 4.102222521132797 0.0
  endloop
endfacet
facet normal 1.0693331874776287e-16 -1.0 -3.681579149395172e-32
  outer loop
    vertex 7.0 4.000000000000001 0.0
    vertex 7.776457135307561 4.102222521132797 3.0
    vertex 7.0 4.000000000000001 3.0
  endloop
endfacet
facet normal -0.25881904510252113 -0.9659258262890682 -3.556132381928135e-32
  outer loop
    vertex 6.223542864692437 4.102222521132797 3.0
    vertex 5.500000000000001 4.401923788646685 0.0
    vertex 6.223542864692437 4.102222521132797 0.0
  endloop
endfacet
facet normal -0.5 -0.8660254037844387 -3.1883410694193234e-32
  outer loop
    vertex 5.500000000000001 4.401923788646685 0.0
    vertex 6.223542864692437 4.102222521132797 3.0
    vertex 5.500000000000001 4.401923788646685 3.0
  endloop
endfacet
facet normal -0.9659258262890682 0.2588190451025209 9.528627999158095e-33
  outer loop
    vertex 4.102222521132797 7.776457135307561 3.0
    vertex 4.000000000000001 7.0 0.0
    vertex 4.000000000000001 7.0 3.0
  endloop
endfacet
facet normal -1.0 0.0 1.7574065547009837e-48
  outer loop
    vertex 4.000000000000001 7.0 0.0
    vertex 4.102222521132797 7.776457135307561 3.0
    vertex 4.102222521132797 7.776457135307561 0.0
  endloop
endfacet
facet normal 0.9659258262890682 0.2588190451025212 9.528627999158104e-33
  outer loop
    vertex 9.897777478867203 7.776457135307562 0.0
    vertex 9.999999999999998 7.000000000000001 3.0
    vertex 9.999999999999998 7.000000000000001 0.0
  endloop
endfacet
facet normal 1.0 1.0693331874776287e-16 2.1967581933762296e-48
  outer loop
    vertex 9.999999999999998 7.000000000000001 3.0
    vertex 9.897777478867203 7.776457135307562 0.0
    vertex 9.897777478867203 7.776457135307562 3.0
  endloop
endfacet
facet normal -0.258819045102521 0.9659258262890682 3.556132381928135e-32
  outer loop
    vertex 6.223542864692439 9.897777478867203 3.0
    vertex 6.999999999999998 9.999999999999998 0.0
    vertex 6.223542864692439 9.897777478867203 0.0
  endloop
endfacet
facet normal -2.4059996718246644e-16 1.0 3.681579149395172e-32
  outer loop
    vertex 6.999999999999998 9.999999999999998 0.0
    vertex 6.223542864692439 9.897777478867203 3.0
    vertex 6.999999999999998 9.999999999999998 3.0
  endloop
endfacet
facet normal 1.0 1.0693331874776287e-16 2.1967581933762296e-48
  outer loop
    vertex 9.999999999999998 7.000000000000001 0.0
    vertex 9.897777478867203 6.223542864692439 3.0
    vertex 9.897777478867203 6.223542864692439 0.0
  endloop
endfacet
facet normal 0.9659258262890684 -0.25881904510252085 -9.528627999158095e-33
  outer loop
    vertex 9.897777478867203 6.223542864692439 3.0
    vertex 9.999999999999998 7.000000000000001 0.0
    vertex 9.999999999999998 7.000000000000001 3.0
  endloop
endfacet
facet normal 0.9659258262890684 -0.25881904510252085 -9.528627999158095e-33
  outer loop
    vertex 9.897777478867203 6.223542864692439 0.0
    vertex 9.598076211353314 5.500000000000001 3.0
    vertex 9.598076211353314 5.500000000000001 0.0
  endloop
endfacet
facet normal 0.8660254037844388 -0.4999999999999998 -1.840789574697585e-32
  outer loop
    vertex 9.598076211353314 5.500000000000001 3.0
    vertex 9.897777478867203 6.223542864692439 0.0
    vertex 9.897777478867203 6.223542864692439 3.0
  endloop
endfacet
facet normal -0.5 -0.8660254037844387 -3.1883410694193234e-32
  outer loop
    vertex 5.500000000000001 4.401923788646685 3.0
    vertex 4.878679656440359 4.878679656440358 0.0
    vertex 5.500000000000001 4.401923788646685 0.0
  endloop
endfacet
facet normal -0.7071067811865475 -0.7071067811865477 -2.6032695820123276e-32
  outer loop
    vertex 4.878679656440359 4.878679656440358 0.0
    vertex 5.500000000000001 4.401923788646685 3.0
    vertex 4.878679656440359 4.878679656440358 3.0
  endloop
endfacet
facet normal -0.7071067811865477 0.7071067811865475 2.6032695820123265e-32
  outer loop
    vertex 4.878679656440358 9.12132034355964 3.0
    vertex 5.500000000000001 9.598076211353314 0.0
    vertex 4.878679656440358 9.12132034355964 0.0
  endloop
endfacet
facet normal -0.4999999999999999 0.8660254037844387 3.1883410694193234e-32
  outer loop
    vertex 5.500000000000001 9.598076211353314 0.0
    vertex 4.878679656440358 9.12132034355964 3.0
    vertex 5.500000000000001 9.598076211353314 3.0
  endloop
endfacet
facet normal 0.7071067811865481 -0.707106781186547 -2.603269582012325e-32
  outer loop
    vertex 9.121320343559642 4.878679656440359 3.0
    vertex 8.499999999999998 4.401923788646684 0.0
    vertex 9.121320343559642 4.878679656440359 0.0
  endloop
endfacet
facet normal 0.4999999999999999 -0.8660254037844388 -3.188341069419323e-32
  outer loop
    vertex 8.499999999999998 4.401923788646684 0.0
    vertex 9.121320343559642 4.878679656440359 3.0
    vertex 8.499999999999998 4.401923788646684 3.0
  endloop
endfacet
facet normal -0.4999999999999999 0.8660254037844387 3.1883410694193234e-32
  outer loop
    vertex 5.500000000000001 9.598076211353314 3.0
    vertex 6.223542864692439 9.897777478867203 0.0
    vertex 5.500000000000001 9.598076211353314 0.0
  endloop
endfacet
facet normal -0.258819045102521 0.9659258262890682 3.556132381928135e-32
  outer loop
    vertex 6.223542864692439 9.897777478867203 0.0
    vertex 5.500000000000001 9.598076211353314 3.0
    vertex 6.223542864692439 9.897777478867203 3.0
  endloop
endfacet
facet normal 0.25881904510252085 0.9659258262890684 3.5561323819281364e-32
  outer loop
    vertex 7.776457135307561 9.897777478867203 3.0
    vertex 8.499999999999998 9.598076211353314 0.0
    vertex 7.776457135307561 9.897777478867203 0.0
  endloop
endfacet
facet normal 0.4999999999999998 0.8660254037844388 3.1883410694193234e-32
  outer loop
    vertex 8.499999999999998 9.598076211353314 0.0
    vertex 7.776457135307561 9.897777478867203 3.0
    vertex 8.499999999999998 9.598076211353314 3.0
  endloop
endfacet
facet normal -0.8660254037844388 0.4999999999999998 1.840789574697585e-32
  outer loop
    vertex 4.401923788646685 8.499999999999998 3.0
    vertex 4.102222521132797 7.776457135307561 0.0
    vertex 4.102222521132797 7.776457135307561 3.0
  endloop
endfacet
facet normal -0.9659258262890682 0.2588190451025209 9.528627999158095e-33
  outer loop
    vertex 4.102222521132797 7.776457135307561 0.0
    vertex 4.401923788646685 8.499999999999998 3.0
    vertex 4.401923788646685 8.499999999999998 0.0
  endloop
endfacet
facet normal -0.8660254037844387 -0.4999999999999999 -1.840789574697585e-32
  outer loop
    vertex 4.401923788646685 5.500000000000001 3.0
    vertex 4.878679656440359 4.878679656440358 0.0
    vertex 4.878679656440359 4.878679656440358 3.0
  endloop
endfacet
facet normal -0.7071067811865475 -0.7071067811865477 -2.6032695820123276e-32
  outer loop
    vertex 4.878679656440359 4.878679656440358 0.0
    vertex 4.401923788646685 5.500000000000001 3.0
    vertex 4.401923788646685 5.500000000000001 0.0
  endloop
endfacet
facet normal 0.4999999999999998 0.8660254037844388 3.1883410694193234e-32
  outer loop
    vertex 8.499999999999998 9.598076211353314 3.0
    vertex 9.12132034355964 9.121320343559642 0.0
    vertex 8.499999999999998 9.598076211353314 0.0
  endloop
endfacet
facet normal 0.7071067811865475 0.7071067811865477 2.6032695820123276e-32
  outer loop
    vertex 9.12132034355964 9.121320343559642 0.0
    vertex 8.499999999999998 9.598076211353314 3.0
    vertex 9.12132034355964 9.121320343559642 3.0
  endloop
endfacet
facet normal 0.7071067811865475 0.7071067811865477 2.6032695820123276e-32
  outer loop
    vertex 9.12132034355964 9.121320343559642 0.0
    vertex 9.598076211353314 8.499999999999998 3.0
    vertex 9.598076211353314 8.499999999999998 0.0
  endloop
endfacet
facet normal 0.8660254037844386 0.5000000000000002 1.840789574697586e-32
  outer loop
    vertex 9.598076211353314 8.499999999999998 3.0
    vertex 9.12132034355964 9.121320343559642 0.0
    vertex 9.12132034355964 9.121320343559642 3.0
  endloop
endfacet
facet normal 1.0693331874776287e-16 -1.0 -3.681579149395172e-32
  outer loop
    vertex 7.0 4.000000000000001 3.0
    vertex 6.223542864692437 4.102222521132797 0.0
    vertex 7.0 4.000000000000001 0.0
  endloop
endfacet
facet normal -0.25881904510252113 -0.9659258262890682 -3.556132381928135e-32
  outer loop
    vertex 6.223542864692437 4.102222521132797 0.0
    vertex 7.0 4.000000000000001 3.0
    vertex 6.223542864692437 4.102222521132797 3.0
  endloop
endfacet
facet normal -0.9659258262890682 -0.2588190451025209 -9.528627999158091e-33
  outer loop
    vertex 4.102222521132797 6.223542864692439 3.0
    vertex 4.401923788646685 5.500000000000001 0.0
    vertex 4.401923788646685 5.500000000000001 3.0
  endloop
endfacet
facet normal -0.8660254037844387 -0.4999999999999999 -1.840789574697585e-32
  outer loop
    vertex 4.401923788646685 5.500000000000001 0.0
    vertex 4.102222521132797 6.223542864692439 3.0
    vertex 4.102222521132797 6.223542864692439 0.0
  endloop
endfacet
facet normal -2.4059996718246644e-16 1.0 3.681579149395172e-32
  outer loop
    vertex 6.999999999999998 9.999999999999998 3.0
    vertex 7.776457135307561 9.897777478867203 0.0
    vertex 6.999999999999998 9.999999999999998 0.0
  endloop
endfacet
facet normal 0.25881904510252085 0.9659258262890684 3.5561323819281364e-32
  outer loop
    vertex 7.776457135307561 9.897777478867203 0.0
    vertex 6.999999999999998 9.999999999999998 3.0
    vertex 7.776457135307561 9.897777478867203 3.0
  endloop
endfacet
facet normal 0.9659258262890684 -0.25881904510252085 0.0
  outer loop
    vertex 9.897777478867207 6.223542864692437 17.0
    vertex 9.598076211353318 5.5 20.0
    vertex 9.598076211353318 5.5 17.0
  endloop
endfacet
facet normal 0.8660254037844387 -0.4999999999999999 0.0
  outer loop
    vertex 9.598076211353318 5.5 20.0
    vertex 9.897777478867207 6.223542864692437 17.0
    vertex 9.897777478867207 6.223542864692437 20.0
  endloop
endfacet
facet normal -2.2277774739117265e-16 -1.0 0.0
  outer loop
    vertex 7.0 3.9999999999999982 20.0
    vertex 6.223542864692439 4.102222521132793 17.0
    vertex 7.0 3.9999999999999982 17.0
  endloop
endfacet
facet normal -0.2588190451025206 -0.9659258262890684 0.0
  outer loop
    vertex 6.223542864692439 4.102222521132793 17.0
    vertex 7.0 3.9999999999999982 20.0
    vertex 6.223542864692439 4.102222521132793 20.0
  endloop
endfacet
facet normal 0.9659258262890684 0.25881904510252085 0.0
  outer loop
    vertex 9.897777478867207 7.776457135307562 17.0
    vertex 10.000000000000002 7.0 20.0
    vertex 10.000000000000002 7.0 17.0
  endloop
endfacet
facet normal 1.0 0.0 0.0
  outer loop
    vertex 10.000000000000002 7.0 20.0
    vertex 9.897777478867207 7.776457135307562 17.0
    vertex 9.897777478867207 7.776457135307562 20.0
  endloop
endfacet
facet normal 0.25881904510252074 -0.9659258262890684 0.0
  outer loop
    vertex 7.776457135307564 4.102222521132793 20.0
    vertex 7.0 3.9999999999999982 17.0
    vertex 7.776457135307564 4.102222521132793 17.0
  endloop
endfacet
facet normal -2.2277774739117265e-16 -1.0 0.0
  outer loop
    vertex 7.0 3.9999999999999982 17.0
    vertex 7.776457135307564 4.102222521132793 20.0
    vertex 7.0 3.9999999999999982 20.0
  endloop
endfacet
facet normal -0.8660254037844384 -0.5000000000000004 0.0
  outer loop
    vertex 4.401923788646684 5.499999999999998 20.0
    vertex 4.878679656440356 4.878679656440356 17.0
    vertex 4.878679656440356 4.878679656440356 20.0
  endloop
endfacet
facet normal -0.7933533402912355 -0.6087614290087202 -0.0
  outer loop
    vertex 4.878679656440356 4.878679656440356 17.0
    vertex 4.401923788646684 5.499999999999998 20.0
    vertex 4.401923788646684 5.499999999999998 17.0
  endloop
endfacet
facet normal 0.4999999999999994 0.866025403784439 0.0
  outer loop
    vertex 8.499999999999998 9.59807621135332 20.0
    vertex 9.121320343559644 9.121320343559644 17.0
    vertex 8.499999999999998 9.59807621135332 17.0
  endloop
endfacet
facet normal 0.6087614290087207 0.793353340291235 0.0
  outer loop
    vertex 9.121320343559644 9.121320343559644 17.0
    vertex 8.499999999999998 9.59807621135332 20.0
    vertex 9.121320343559644 9.121320343559644 20.0
  endloop
endfacet
facet normal -0.5000000000000009 0.8660254037844384 0.0
  outer loop
    vertex 5.499999999999998 9.598076211353316 20.0
    vertex 6.223542864692434 9.897777478867207 17.0
    vertex 5.499999999999998 9.598076211353316 17.0
  endloop
endfacet
facet normal -0.2588190451025219 0.9659258262890681 0.0
  outer loop
    vertex 6.223542864692434 9.897777478867207 17.0
    vertex 5.499999999999998 9.598076211353316 20.0
    vertex 6.223542864692434 9.897777478867207 20.0
  endloop
endfacet
facet normal 0.2588190451025201 0.9659258262890686 0.0
  outer loop
    vertex 7.776457135307561 9.897777478867207 20.0
    vertex 8.499999999999998 9.59807621135332 17.0
    vertex 7.776457135307561 9.897777478867207 17.0
  endloop
endfacet
facet normal 0.4999999999999994 0.866025403784439 0.0
  outer loop
    vertex 8.499999999999998 9.59807621135332 17.0
    vertex 7.776457135307561 9.897777478867207 20.0
    vertex 8.499999999999998 9.59807621135332 20.0
  endloop
endfacet
facet normal -0.7071067811865474 0.7071067811865477 0.0
  outer loop
    vertex 4.878679656440356 9.121320343559644 20.0
    vertex 5.499999999999998 9.598076211353316 17.0
    vertex 4.878679656440356 9.121320343559644 17.0
  endloop
endfacet
facet normal -0.5000000000000009 0.8660254037844384 0.0
  outer loop
    vertex 5.499999999999998 9.598076211353316 17.0
    vertex 4.878679656440356 9.121320343559644 20.0
    vertex 5.499999999999998 9.598076211353316 20.0
  endloop
endfacet
facet normal 0.5000000000000004 -0.8660254037844384 0.0
  outer loop
    vertex 8.500000000000002 4.401923788646682 20.0
    vertex 7.776457135307564 4.102222521132793 17.0
    vertex 8.500000000000002 4.401923788646682 17.0
  endloop
endfacet
facet normal 0.25881904510252074 -0.9659258262890684 0.0
  outer loop
    vertex 7.776457135307564 4.102222521132793 17.0
    vertex 8.500000000000002 4.401923788646682 20.0
    vertex 7.776457135307564 4.102222521132793 20.0
  endloop
endfacet
facet normal -0.9659258262890686 0.2588190451025201 0.0
  outer loop
    vertex 4.102222521132793 7.776457135307561 20.0
    vertex 3.9999999999999982 6.999999999999998 17.0
    vertex 3.9999999999999982 6.999999999999998 20.0
  endloop
endfacet
facet normal -1.0 0.0 0.0
  outer loop
    vertex 3.9999999999999982 6.999999999999998 17.0
    vertex 4.102222521132793 7.776457135307561 20.0
    vertex 4.102222521132793 7.776457135307561 17.0
  endloop
endfacet
facet normal -1.0 0.0 0.0
  outer loop
    vertex 3.9999999999999982 6.999999999999998 20.0
    vertex 4.102222521132793 6.223542864692436 17.0
    vertex 4.102222521132793 6.223542864692436 20.0
  endloop
endfacet
facet normal -0.9659258262890681 -0.2588190451025216 0.0
  outer loop
    vertex 4.102222521132793 6.223542864692436 17.0
    vertex 3.9999999999999982 6.999999999999998 20.0
    vertex 3.9999999999999982 6.999999999999998 17.0
  endloop
endfacet
facet normal 0.8660254037844387 -0.4999999999999999 0.0
  outer loop
    vertex 9.598076211353318 5.5 17.0
    vertex 9.121320343559644 4.878679656440356 20.0
    vertex 9.121320343559644 4.878679656440356 17.0
  endloop
endfacet
facet normal 0.7071067811865479 -0.7071067811865471 0.0
  outer loop
    vertex 9.121320343559644 4.878679656440356 20.0
    vertex 9.598076211353318 5.5 17.0
    vertex 9.598076211353318 5.5 20.0
  endloop
endfacet
facet normal -0.2588190451025206 -0.9659258262890684 0.0
  outer loop
    vertex 6.223542864692439 4.102222521132793 20.0
    vertex 5.5 4.401923788646682 17.0
    vertex 6.223542864692439 4.102222521132793 17.0
  endloop
endfacet
facet normal -0.4999999999999997 -0.8660254037844389 0.0
  outer loop
    vertex 5.5 4.401923788646682 17.0
    vertex 6.223542864692439 4.102222521132793 20.0
    vertex 5.5 4.401923788646682 20.0
  endloop
endfacet
facet normal 0.8660254037844387 0.4999999999999999 0.0
  outer loop
    vertex 9.598076211353318 8.5 17.0
    vertex 9.897777478867207 7.776457135307562 20.0
    vertex 9.897777478867207 7.776457135307562 17.0
  endloop
endfacet
facet normal 0.9659258262890684 0.25881904510252085 0.0
  outer loop
    vertex 9.897777478867207 7.776457135307562 20.0
    vertex 9.598076211353318 8.5 17.0
    vertex 9.598076211353318 8.5 20.0
  endloop
endfacet
facet normal -0.7071067811865474 0.7071067811865477 0.0
  outer loop
    vertex 4.878679656440356 9.121320343559644 20.0
    vertex 4.401923788646681 8.499999999999998 17.0
    vertex 4.401923788646681 8.499999999999998 20.0
  endloop
endfacet
facet normal -0.866025403784439 0.4999999999999994 0.0
  outer loop
    vertex 4.401923788646681 8.499999999999998 17.0
    vertex 4.878679656440356 9.121320343559644 20.0
    vertex 4.878679656440356 9.121320343559644 17.0
  endloop
endfacet
facet normal 1.1584442864340977e-16 1.0 0.0
  outer loop
    vertex 6.999999999999998 10.000000000000002 20.0
    vertex 7.776457135307561 9.897777478867207 17.0
    vertex 6.999999999999998 10.000000000000002 17.0
  endloop
endfacet
facet normal 0.2588190451025201 0.9659258262890686 0.0
  outer loop
    vertex 7.776457135307561 9.897777478867207 17.0
    vertex 6.999999999999998 10.000000000000002 20.0
    vertex 7.776457135307561 9.897777478867207 20.0
  endloop
endfacet
facet normal -0.866025403784439 0.4999999999999994 0.0
  outer loop
    vertex 4.401923788646681 8.499999999999998 20.0
    vertex 4.102222521132793 7.776457135307561 17.0
    vertex 4.102222521132793 7.776457135307561 20.0
  endloop
endfacet
facet normal -0.9659258262890686 0.2588190451025201 0.0
  outer loop
    vertex 4.102222521132793 7.776457135307561 17.0
    vertex 4.401923788646681 8.499999999999998 20.0
    vertex 4.401923788646681 8.499999999999998 17.0
  endloop
endfacet
facet normal 0.7071067811865479 -0.7071067811865471 0.0
  outer loop
    vertex 9.121320343559644 4.878679656440356 20.0
    vertex 8.500000000000002 4.401923788646682 17.0
    vertex 9.121320343559644 4.878679656440356 17.0
  endloop
endfacet
facet normal 0.5000000000000004 -0.8660254037844384 0.0
  outer loop
    vertex 8.500000000000002 4.401923788646682 17.0
    vertex 9.121320343559644 4.878679656440356 20.0
    vertex 8.500000000000002 4.401923788646682 20.0
  endloop
endfacet
facet normal 0.0 0.0 1.0
  outer loop
    vertex 4.102222521132793 6.223542864692436 20.0
    vertex 4.102222521132793 7.776457135307561 20.0
    vertex 3.9999999999999982 6.999999999999998 20.0
  endloop
endfacet
facet normal 0.0 0.0 1.0
  outer loop
    vertex 4.102222521132793 7.776457135307561 20.0
    vertex 4.102222521132793 6.223542864692436 20.0
    vertex 4.401923788646684 5.499999999999998 20.0
  endloop
endfacet
facet normal 0.0 0.0 1.0
  outer loop
    vertex 4.102222521132793 7.776457135307561 20.0
    vertex 4.401923788646684 5.499999999999998 20.0
    vertex 4.401923788646681 8.499999999999998 20.0
  endloop
endfacet
facet normal 0.0 0.0 1.0
  outer loop
    vertex 4.401923788646681 8.499999999999998 20.0
    vertex 4.401923788646684 5.499999999999998 20.0
    vertex 4.878679656440356 9.121320343559644 20.0
  endloop
endfacet
facet normal 0.0 0.0 1.0
  outer loop
    vertex 4.878679656440356 9.121320343559644 20.0
    vertex 4.401923788646684 5.499999999999998 20.0
    vertex 4.878679656440356 4.878679656440356 20.0
  endloop
endfacet
facet normal 0.0 0.0 1.0
  outer loop
    vertex 4.878679656440356 9.121320343559644 20.0
    vertex 4.878679656440356 4.878679656440356 20.0
    vertex 5.5 4.401923788646682 20.0
  endloop
endfacet
facet normal 0.0 0.0 1.0
  outer loop
    vertex 4.878679656440356 9.121320343559644 20.0
    vertex 5.5 4.401923788646682 20.0
    vertex 5.499999999999998 9.598076211353316 20.0
  endloop
endfacet
facet normal 0.0 0.0 1.0
  outer loop
    vertex 5.499999999999998 9.598076211353316 20.0
    vertex 5.5 4.401923788646682 20.0
    vertex 6.223542864692434 9.897777478867207 20.0
  endloop
endfacet
facet normal 0.0 0.0 1.0
  outer loop
    vertex 6.223542864692434 9.897777478867207 20.0
    vertex 5.5 4.401923788646682 20.0
    vertex 6.223542864692439 4.102222521132793 20.0
  endloop
endfacet
facet normal 0.0 0.0 1.0
  outer loop
    vertex 6.223542864692434 9.897777478867207 20.0
    vertex 6.223542864692439 4.102222521132793 20.0
    vertex 6.999999999999998 10.000000000000002 20.0
  endloop
endfacet
facet normal 0.0 0.0 1.0
  outer loop
    vertex 6.999999999999998 10.000000000000002 20.0
    vertex 6.223542864692439 4.102222521132793 20.0
    vertex 7.0 3.9999999999999982 20.0
  endloop
endfacet
facet normal 0.0 0.0 1.0
  outer loop
    vertex 6.999999999999998 10.000000000000002 20.0
    vertex 7.0 3.9999999999999982 20.0
    vertex 7.776457135307561 9.897777478867207 20.0
  endloop
endfacet
facet normal 0.0 0.0 1.0
  outer loop
    vertex 7.776457135307561 9.897777478867207 20.0
    vertex 7.0 3.9999999999999982 20.0
    vertex 7.776457135307564 4.102222521132793 20.0
  endloop
endfacet
facet normal 0.0 0.0 1.0
  outer loop
    vertex 7.776457135307561 9.897777478867207 20.0
    vertex 7.776457135307564 4.102222521132793 20.0
    vertex 8.499999999999998 9.59807621135332 20.0
  endloop
endfacet
facet normal 0.0 0.0 1.0
  outer loop
    vertex 8.499999999999998 9.59807621135332 20.0
    vertex 7.776457135307564 4.102222521132793 20.0
    vertex 8.500000000000002 4.401923788646682 20.0
  endloop
endfacet
facet normal 0.0 0.0 1.0
  outer loop
    vertex 8.499999999999998 9.59807621135332 20.0
    vertex 8.500000000000002 4.401923788646682 20.0
    vertex 9.121320343559644 9.121320343559644 20.0
  endloop
endfacet
facet normal 0.0 0.0 1.0
  outer loop
    vertex 9.121320343559644 9.121320343559644 20.0
    vertex 8.500000000000002 4.401923788646682 20.0
    vertex 9.121320343559644 4.878679656440356 20.0
  endloop
endfacet
facet normal 0.0 0.0 1.0
  outer loop
    vertex 9.121320343559644 9.121320343559644 20.0
    vertex 9.121320343559644 4.878679656440356 20.0
    vertex 9.598076211353318 5.5 20.0
  endloop
endfacet
facet normal 0.0 0.0 1.0
  outer loop
    vertex 9.121320343559644 9.121320343559644 20.0
    vertex 9.598076211353318 5.5 20.0
    vertex 9.598076211353318 8.5 20.0
  endloop
endfacet
facet normal 0.0 0.0 1.0
  outer loop
    vertex 9.598076211353318 8.5 20.0
    vertex 9.598076211353318 5.5 20.0
    vertex 9.897777478867207 6.223542864692437 20.0
  endloop
endfacet
facet normal 0.0 0.0 1.0
  outer loop
    vertex 9.598076211353318 8.5 20.0
    vertex 9.897777478867207 6.223542864692437 20.0
    vertex 9.897777478867207 7.776457135307562 20.0
  endloop
endfacet
facet normal 0.0 0.0 1.0
  outer loop
    vertex 9.897777478867207 7.776457135307562 20.0
    vertex 9.897777478867207 6.223542864692437 20.0
    vertex 10.000000000000002 7.0 20.0
  endloop
endfacet
facet normal -0.4999999999999997 -0.8660254037844389 0.0
  outer loop
    vertex 5.5 4.401923788646682 20.0
    vertex 4.878679656440356 4.878679656440356 17.0
    vertex 5.5 4.401923788646682 17.0
  endloop
endfacet
facet normal -0.6087614290087205 -0.7933533402912354 -0.0
  outer loop
    vertex 4.878679656440356 4.878679656440356 17.0
    vertex 5.5 4.401923788646682 20.0
    vertex 4.878679656440356 4.878679656440356 20.0
  endloop
endfacet
facet normal 1.0 0.0 0.0
  outer loop
    vertex 10.000000000000002 7.0 17.0
    vertex 9.897777478867207 6.223542864692437 20.0
    vertex 9.897777478867207 6.223542864692437 17.0
  endloop
endfacet
facet normal 0.9659258262890684 -0.25881904510252085 0.0
  outer loop
    vertex 9.897777478867207 6.223542864692437 20.0
    vertex 10.000000000000002 7.0 17.0
    vertex 10.000000000000002 7.0 20.0
  endloop
endfacet
facet normal 0.7933533402912354 0.6087614290087205 0.0
  outer loop
    vertex 9.121320343559644 9.121320343559644 17.0
    vertex 9.598076211353318 8.5 20.0
    vertex 9.598076211353318 8.5 17.0
  endloop
endfacet
facet normal 0.8660254037844387 0.4999999999999999 0.0
  outer loop
    vertex 9.598076211353318 8.5 20.0
    vertex 9.121320343559644 9.121320343559644 17.0
    vertex 9.121320343559644 9.121320343559644 20.0
  endloop
endfacet
facet normal -0.2588190451025219 0.9659258262890681 0.0
  outer loop
    vertex 6.223542864692434 9.897777478867207 20.0
    vertex 6.999999999999998 10.000000000000002 17.0
    vertex 6.223542864692434 9.897777478867207 17.0
  endloop
endfacet
facet normal 1.1584442864340977e-16 1.0 0.0
  outer loop
    vertex 6.999999999999998 10.000000000000002 17.0
    vertex 6.223542864692434 9.897777478867207 20.0
    vertex 6.999999999999998 10.000000000000002 20.0
  endloop
endfacet
facet normal -0.9659258262890681 -0.2588190451025216 0.0
  outer loop
    vertex 4.102222521132793 6.223542864692436 20.0
    vertex 4.401923788646684 5.499999999999998 17.0
    vertex 4.401923788646684 5.499999999999998 20.0
  endloop
endfacet
facet normal -0.8660254037844384 -0.5000000000000004 0.0
  outer loop
    vertex 4.401923788646684 5.499999999999998 17.0
    vertex 4.102222521132793 6.223542864692436 20.0
    vertex 4.102222521132793 6.223542864692436 17.0
  endloop
endfacet
endsolid PVA Test Object v1 - Inner
